<svg width="33" height="25" viewBox="0 0 33 25" fill="none" xmlns="http://www.w3.org/2000/svg">
  <path d="M30.9284 20.75C30.9284 21.297 30.7111 21.8216 30.3244 22.2084C29.9376 22.5952 29.413 22.8125 28.866 22.8125H4.11744C3.57046 22.8125 3.04589 22.5952 2.65912 22.2084C2.27234 21.8216 2.05506 21.297 2.05506 20.75V8.375C2.05506 7.82799 2.27234 7.30339 2.65912 6.91659C3.04589 6.5298 3.57046 6.3125 4.11744 6.3125H6.53455C8.17464 6.3116 9.74727 5.65952 10.9068 4.49956L12.6186 2.79181C13.0043 2.406 13.5271 2.18871 14.0726 2.1875H18.9068C19.4537 2.18762 19.9782 2.40499 20.3649 2.79181L22.0725 4.49956C22.6472 5.07441 23.3295 5.5304 24.0804 5.84147C24.8313 6.15254 25.6361 6.3126 26.4489 6.3125H28.866C29.413 6.3125 29.9376 6.5298 30.3244 6.91659C30.7111 7.30339 30.9284 7.82799 30.9284 8.375V20.75ZM4.11744 4.25C3.02349 4.25 1.97434 4.6846 1.20079 5.45818C0.427248 6.23177 -0.00732422 7.28098 -0.00732422 8.375L-0.00732422 20.75C-0.00732422 21.844 0.427248 22.8932 1.20079 23.6668C1.97434 24.4404 3.02349 24.875 4.11744 24.875H28.866C29.96 24.875 31.0091 24.4404 31.7827 23.6668C32.5562 22.8932 32.9908 21.844 32.9908 20.75V8.375C32.9908 7.28098 32.5562 6.23177 31.7827 5.45818C31.0091 4.6846 29.96 4.25 28.866 4.25H26.4489C25.3551 4.24977 24.3061 3.81502 23.5327 3.04138L21.8251 1.33362C21.0517 0.559984 20.0027 0.125234 18.9089 0.125H14.0746C12.9808 0.125234 11.9318 0.559984 11.1584 1.33362L9.45076 3.04138C8.6774 3.81502 7.62842 4.24977 6.53455 4.25H4.11744Z" fill="#464E5F" />
  <path d="M16.492 18.6875C15.1245 18.6875 13.8131 18.1443 12.8462 17.1773C11.8792 16.2103 11.336 14.8988 11.336 13.5312C11.336 12.1637 11.8792 10.8522 12.8462 9.88523C13.8131 8.91825 15.1245 8.375 16.492 8.375C17.8594 8.375 19.1709 8.91825 20.1378 9.88523C21.1047 10.8522 21.6479 12.1637 21.6479 13.5312C21.6479 14.8988 21.1047 16.2103 20.1378 17.1773C19.1709 18.1443 17.8594 18.6875 16.492 18.6875ZM16.492 20.75C18.4064 20.75 20.2424 19.9895 21.5961 18.6357C22.9498 17.2819 23.7103 15.4458 23.7103 13.5312C23.7103 11.6167 22.9498 9.7806 21.5961 8.42682C20.2424 7.07305 18.4064 6.3125 16.492 6.3125C14.5776 6.3125 12.7415 7.07305 11.3878 8.42682C10.0341 9.7806 9.27363 11.6167 9.27363 13.5312C9.27363 15.4458 10.0341 17.2819 11.3878 18.6357C12.7415 19.9895 14.5776 20.75 16.492 20.75ZM6.18006 9.40625C6.18006 9.67975 6.07142 9.94206 5.87803 10.1355C5.68464 10.3289 5.42236 10.4375 5.14887 10.4375C4.87538 10.4375 4.61309 10.3289 4.4197 10.1355C4.22632 9.94206 4.11768 9.67975 4.11768 9.40625C4.11768 9.13275 4.22632 8.87044 4.4197 8.67705C4.61309 8.48365 4.87538 8.375 5.14887 8.375C5.42236 8.375 5.68464 8.48365 5.87803 8.67705C6.07142 8.87044 6.18006 9.13275 6.18006 9.40625Z" fill="#464E5F" />
</svg>