<svg width="87" height="54" viewBox="0 0 87 54" fill="none" xmlns="http://www.w3.org/2000/svg">
<path d="M82.7003 0.349976H4.80032C4.26762 0.349974 3.74016 0.455054 3.24813 0.65921C2.75611 0.863367 2.3092 1.16258 1.93299 1.53972C1.55679 1.91686 1.25868 2.3645 1.05574 2.85703C0.852794 3.34955 0.749001 3.87728 0.750316 4.40997V39.89C0.743602 40.4237 0.843779 40.9533 1.04493 41.4477C1.24609 41.9421 1.54414 42.3913 1.92157 42.7687C2.29899 43.1461 2.74813 43.4442 3.24253 43.6454C3.73694 43.8465 4.26661 43.9467 4.80032 43.94H37.4803L44.4203 52.85L50.2103 43.94H82.7003C83.2322 43.94 83.7588 43.8352 84.2502 43.6317C84.7415 43.4282 85.188 43.1298 85.5641 42.7538C85.9402 42.3777 86.2385 41.9312 86.442 41.4398C86.6456 40.9485 86.7503 40.4218 86.7503 39.89V4.40997C86.7503 3.33492 86.3239 2.30376 85.5647 1.54265C84.8055 0.781537 83.7754 0.352623 82.7003 0.349976Z" fill="white"/>
<path d="M82.7003 0.349994H83.0803C83.4599 0.382836 83.8332 0.466933 84.1903 0.599993C84.7742 0.809401 85.3014 1.15175 85.7303 1.59999C86.3431 2.25926 86.7195 3.10349 86.8003 3.99999C86.8803 7.85999 86.8603 13.48 86.8903 20.6C86.8903 24.16 86.8903 28.09 86.8903 32.35C86.8903 34.49 86.8903 36.7 86.8903 39C86.9174 39.5879 86.8906 40.177 86.8103 40.76C86.6874 41.3667 86.435 41.9398 86.0703 42.44C85.696 42.9529 85.2116 43.3754 84.6527 43.6765C84.0937 43.9776 83.4744 44.1496 82.8403 44.18H50.1603L50.3603 44.08C48.5403 46.87 46.5803 49.9 44.5803 52.98L44.3903 53.27L44.1703 53L37.2303 44.1L37.4303 44.2H6.00026C5.43026 44.2 4.90026 44.2 4.29026 44.2C3.40276 44.0942 2.56975 43.7164 1.90551 43.1184C1.24126 42.5204 0.778336 41.7315 0.580265 40.86C0.480587 40.2992 0.443692 39.729 0.470264 39.16V24.51C0.470264 20.25 0.470264 16.0733 0.470264 11.98V4.40999C0.470639 3.88312 0.56897 3.3609 0.760258 2.86998C1.13104 1.89419 1.84109 1.08473 2.76026 0.589984C3.21942 0.355135 3.71758 0.206025 4.23026 0.149981C4.72328 0.125299 5.21725 0.125299 5.71027 0.149981H14.2203H25.0003H44.3403L72.3403 0.229983L79.9503 0.279986H81.9503H82.6303H81.9503H79.9503L72.3403 0.329989L44.3403 0.409991H25.0003H5.79026C5.31026 0.409991 4.79026 0.409991 4.36026 0.409991C3.90598 0.462073 3.46524 0.597679 3.06026 0.809985C2.23322 1.23362 1.58952 1.9449 1.25026 2.80998C1.07871 3.24638 0.99052 3.71107 0.990269 4.17998V5.67998C0.990269 7.67998 0.990269 9.67999 0.990269 11.75V24.28C0.990269 28.5333 0.990269 32.8667 0.990269 37.28V38.94C0.95862 39.4717 0.988819 40.0053 1.08026 40.53C1.25649 41.296 1.66534 41.9888 2.25077 42.5134C2.83619 43.0379 3.56954 43.3686 4.35027 43.46C4.86027 43.51 5.45026 43.46 6.00026 43.46H37.6003L37.6803 43.56L44.6203 52.46H44.2103L50.0003 43.56L50.0703 43.45H50.2103H82.8703C83.4453 43.4308 84.0083 43.2802 84.5162 43.0098C85.0241 42.7394 85.4633 42.3564 85.8003 41.89C86.1386 41.441 86.371 40.9214 86.4803 40.37C86.5574 39.8102 86.5842 39.2446 86.5603 38.68C86.5603 36.38 86.5603 34.17 86.5603 32.03C86.5603 27.77 86.5603 23.84 86.5603 20.28C86.5603 13.18 86.5603 7.55999 86.6103 3.68999C86.5218 2.8535 86.1719 2.06619 85.6103 1.43999C85.1998 0.981316 84.6903 0.622219 84.1203 0.389987C83.6512 0.309139 83.1731 0.295676 82.7003 0.349994Z" fill="#263238"/>
<path d="M29.1601 10.37V11.68H28.3101V10.36L26.8701 8H27.7801L28.7801 9.64L29.7801 8H30.6201L29.1601 10.37Z" fill="#263238"/>
<path d="M30.5802 9.83C30.5622 9.43109 30.664 9.03593 30.8726 8.69541C31.0811 8.3549 31.3869 8.0846 31.7504 7.91934C32.1139 7.75407 32.5185 7.70139 32.9122 7.76809C33.3059 7.8348 33.6706 8.01784 33.9594 8.29362C34.2482 8.5694 34.4478 8.9253 34.5326 9.31552C34.6173 9.70573 34.5833 10.1124 34.4349 10.4831C34.2866 10.8538 34.0306 11.1717 33.7001 11.3957C33.3695 11.6197 32.9795 11.7396 32.5802 11.74C32.3219 11.7522 32.0638 11.7118 31.8216 11.6213C31.5793 11.5308 31.358 11.392 31.171 11.2134C30.984 11.0348 30.8352 10.8201 30.7337 10.5823C30.6321 10.3445 30.5799 10.0886 30.5802 9.83ZM33.7601 9.83C33.7582 9.60101 33.6885 9.37773 33.5598 9.18829C33.4312 8.99885 33.2493 8.85172 33.0372 8.76545C32.8251 8.67919 32.5921 8.65764 32.3678 8.70352C32.1434 8.7494 31.9377 8.86066 31.7764 9.02328C31.6152 9.1859 31.5057 9.39261 31.4618 9.61735C31.4178 9.84209 31.4414 10.0748 31.5294 10.2862C31.6175 10.4976 31.7662 10.6781 31.9567 10.8052C32.1473 10.9322 32.3712 11 32.6002 11C32.7545 11.0042 32.908 10.9767 33.0513 10.9193C33.1946 10.8618 33.3246 10.7756 33.4333 10.666C33.542 10.5564 33.6271 10.4256 33.6833 10.2818C33.7395 10.1381 33.7657 9.98428 33.7601 9.83Z" fill="#263238"/>
<path d="M35.25 10.05V8H36.11V10C36.11 10.7 36.42 11 36.93 11C37.44 11 37.76 10.71 37.76 10V8H38.61V10.07C38.61 10.5156 38.433 10.9429 38.1179 11.2579C37.8029 11.573 37.3756 11.75 36.93 11.75C36.4844 11.75 36.0571 11.573 35.7421 11.2579C35.427 10.9429 35.25 10.5156 35.25 10.07V10.05Z" fill="#263238"/>
<path d="M41.82 11.68L41.11 10.68H40.32V11.68H39.46V8H41.06C42.06 8 42.67 8.51 42.67 9.34C42.681 9.5899 42.6137 9.83702 42.4775 10.0468C42.3412 10.2566 42.1428 10.4185 41.91 10.51L42.74 11.7L41.82 11.68ZM41.02 8.67999H40.32V10H41.02C41.54 10 41.8 9.75001 41.8 9.35001C41.8 8.95001 41.54 8.67 41 8.67L41.02 8.67999Z" fill="#263238"/>
<path d="M44.6201 9.83C44.6234 9.41988 44.7527 9.02068 44.9905 8.68651C45.2283 8.35233 45.563 8.09934 45.9494 7.96181C46.3358 7.82428 46.7551 7.80886 47.1506 7.91765C47.546 8.02644 47.8985 8.25419 48.1601 8.57001L47.6101 9.08C47.4968 8.94043 47.3534 8.82833 47.1906 8.75212C47.0278 8.67592 46.8499 8.63758 46.6701 8.64C46.3746 8.66717 46.0999 8.80377 45.8999 9.023C45.7 9.24222 45.5891 9.52826 45.5891 9.825C45.5891 10.1217 45.7 10.4078 45.8999 10.627C46.0999 10.8462 46.3746 10.9828 46.6701 11.01C46.8492 11.0144 47.0268 10.9779 47.1897 10.9034C47.3526 10.8289 47.4963 10.7183 47.6101 10.58L48.1601 11.08C47.899 11.3952 47.5475 11.6227 47.153 11.7318C46.7585 11.8409 46.34 11.8263 45.954 11.69C45.5681 11.5537 45.2332 11.3023 44.9947 10.9697C44.7562 10.6371 44.6254 10.2393 44.6201 9.83Z" fill="#263238"/>
<path d="M48.4298 9.83C48.4118 9.43109 48.5137 9.03593 48.7222 8.69541C48.9308 8.3549 49.2365 8.0846 49.6 7.91934C49.9635 7.75407 50.3681 7.70139 50.7618 7.76809C51.1555 7.8348 51.5203 8.01784 51.809 8.29362C52.0978 8.5694 52.2974 8.9253 52.3822 9.31552C52.4669 9.70573 52.4329 10.1124 52.2846 10.4831C52.1362 10.8538 51.8803 11.1717 51.5497 11.3957C51.2191 11.6197 50.8291 11.7396 50.4298 11.74C50.1715 11.7522 49.9134 11.7118 49.6712 11.6213C49.4289 11.5308 49.2076 11.392 49.0206 11.2134C48.8336 11.0348 48.6848 10.8201 48.5833 10.5823C48.4817 10.3445 48.4295 10.0886 48.4298 9.83ZM51.6098 9.83C51.6058 9.60146 51.5345 9.37919 51.4046 9.19108C51.2748 9.00297 51.0923 8.85739 50.88 8.77265C50.6677 8.68792 50.4351 8.66779 50.2115 8.71478C49.9878 8.76177 49.783 8.87379 49.6227 9.03678C49.4625 9.19978 49.354 9.40649 49.3108 9.63095C49.2676 9.8554 49.2918 10.0876 49.3801 10.2984C49.4685 10.5092 49.6171 10.6892 49.8074 10.8158C49.9977 10.9424 50.2212 11.01 50.4498 11.01C50.605 11.0143 50.7594 10.9865 50.9034 10.9285C51.0474 10.8704 51.1779 10.7833 51.2867 10.6726C51.3956 10.5619 51.4804 10.4299 51.536 10.2849C51.5916 10.14 51.6167 9.9851 51.6098 9.83Z" fill="#263238"/>
<path d="M53.1299 7.99999H54.8199C55.079 7.97301 55.3409 8.00076 55.5886 8.08144C55.8363 8.16212 56.0642 8.29394 56.2578 8.46834C56.4513 8.64275 56.606 8.85587 56.7119 9.09388C56.8178 9.33189 56.8725 9.58949 56.8725 9.85C56.8725 10.1105 56.8178 10.3681 56.7119 10.6061C56.606 10.8441 56.4513 11.0572 56.2578 11.2316C56.0642 11.406 55.8363 11.5379 55.5886 11.6185C55.3409 11.6992 55.079 11.727 54.8199 11.7H53.1299V7.99999ZM54.7699 11C55.0749 11 55.3674 10.8788 55.5831 10.6632C55.7987 10.4475 55.9199 10.155 55.9199 9.85C55.9199 9.545 55.7987 9.25249 55.5831 9.03683C55.3674 8.82116 55.0749 8.69999 54.7699 8.69999H53.9999V11H54.7699Z" fill="#263238"/>
<path d="M60.3798 11V11.69H57.5098V8H60.3098V8.67999H58.3598V9.49001H60.0798V10.16H58.3598V11H60.3798Z" fill="#263238"/>
<path d="M75.1004 15.57H12.4104C10.4497 15.57 8.86035 17.1594 8.86035 19.12V32.36C8.86035 34.3206 10.4497 35.91 12.4104 35.91H75.1004C77.061 35.91 78.6503 34.3206 78.6503 32.36V19.12C78.6503 17.1594 77.061 15.57 75.1004 15.57Z" fill="#F5F5F5"/>
<path d="M23.0005 27C23.0023 27.4187 22.9165 27.8331 22.7485 28.2166C22.5806 28.6001 22.3342 28.9442 22.0253 29.2268C21.7163 29.5094 21.3516 29.7241 20.9547 29.8573C20.5578 29.9905 20.1374 30.0391 19.7205 30C17.1405 30 15.7705 28.14 15.7705 25.06C15.7705 21.72 17.5405 20.01 20.1505 20.01C20.925 19.9764 21.6945 20.1489 22.3805 20.51L22.0905 21.09C21.4973 20.765 20.8262 20.6093 20.1505 20.64C17.9405 20.64 16.4905 22.09 16.4905 24.95C16.4874 25.3448 16.5141 25.7392 16.5705 26.13C16.8054 25.5006 17.2389 24.9649 17.8055 24.604C18.3721 24.2431 19.0409 24.0767 19.7105 24.13C21.7205 24.06 23.0005 25.21 23.0005 27ZM22.2805 27C22.2805 25.59 21.2805 24.68 19.6105 24.68C19.2751 24.6456 18.9363 24.68 18.6146 24.781C18.293 24.882 17.9953 25.0476 17.7398 25.2675C17.4843 25.4875 17.2763 25.7572 17.1286 26.0602C16.9808 26.3633 16.8964 26.6932 16.8805 27.03C16.8805 28.18 17.8805 29.34 19.7005 29.34C20.0308 29.3814 20.3661 29.3516 20.6839 29.2526C21.0016 29.1536 21.2945 28.9877 21.5428 28.7659C21.791 28.5442 21.9889 28.2719 22.123 27.9673C22.2572 27.6626 22.3245 27.3328 22.3205 27H22.2805Z" fill="#FF725E"/>
<path d="M36.1105 27.16H34.0505V29.89H33.3405V27.16H27.7305V26.64L33.0805 20.04H33.8805L28.6305 26.52H33.3605V24.12H34.0505V26.52H36.1105V27.16Z" fill="#FF725E"/>
<path d="M47.0499 27.11C47.0499 28.75 45.8699 29.96 43.5999 29.96C42.9616 29.9847 42.3249 29.8795 41.7285 29.6509C41.132 29.4223 40.5882 29.075 40.1299 28.63L40.4899 28.08C40.8984 28.483 41.3851 28.7982 41.9199 29.0063C42.4547 29.2144 43.0264 29.3109 43.5999 29.29C45.3699 29.29 46.3199 28.45 46.3199 27.11C46.3199 25.77 45.4199 24.93 43.4499 24.93H42.8299V24.41L45.7399 20.68H40.4899V20H46.6699V20.5L43.6699 24.29C45.9999 24.38 47.0499 25.51 47.0499 27.11Z" fill="#FF725E"/>
<path d="M59.0004 20V20.5L54.7704 29.85H53.9804L58.1704 20.64H52.6404V22.53H51.9404V20H59.0004Z" fill="#FF725E"/>
<path d="M64 25C64 21.92 65.59 20 67.85 20C70.11 20 71.71 21.91 71.71 25C71.71 28.09 70.12 30 67.85 30C65.58 30 64 28 64 25ZM71 25C71 22.26 69.72 20.67 67.86 20.67C66 20.67 64.72 22.26 64.72 25C64.72 27.74 66 29.33 67.86 29.33C69.72 29.33 71 27.7 71 25Z" fill="#FF725E"/>
</svg>
