<svg width="163" height="91" viewBox="0 0 163 91" fill="none" xmlns="http://www.w3.org/2000/svg">
<path d="M155.791 0.720032H6.77063C3.24705 0.720032 0.390625 3.57646 0.390625 7.10004V84.24C0.390625 87.7636 3.24705 90.62 6.77063 90.62H155.791C159.314 90.62 162.171 87.7636 162.171 84.24V7.10004C162.171 3.57646 159.314 0.720032 155.791 0.720032Z" fill="white"/>
<path d="M155.8 90.62C155.8 90.62 156.23 90.62 157.05 90.47C158.266 90.2069 159.38 89.5994 160.26 88.72C160.902 88.073 161.396 87.2954 161.71 86.44C161.89 85.9459 162.011 85.4324 162.07 84.91C162.07 84.37 162.07 83.79 162.07 83.19C162.07 80.79 162.07 78.02 162.07 74.91C162.07 62.44 162.02 44.42 161.99 22.15C161.99 19.36 161.99 16.51 161.99 13.6V9.18001C161.99 7.69001 162.14 6.18002 161.53 4.80002C161.109 3.75498 160.411 2.84486 159.51 2.16806C158.61 1.49126 157.541 1.07352 156.42 0.960022C155.68 0.910022 154.86 0.960022 154.08 0.960022H144.43H102.61H6.79015C5.76953 0.958061 4.76464 1.21138 3.86691 1.69691C2.96919 2.18245 2.20715 2.8848 1.65015 3.74002C1.08281 4.58729 0.738825 5.56421 0.650146 6.58002C0.600146 7.58002 0.650146 8.68002 0.650146 9.72002V46.7C0.650146 54.7 0.650146 62.5667 0.650146 70.3V81.74C0.650146 82.68 0.650146 83.63 0.650146 84.55C0.695922 85.4502 0.934658 86.3301 1.35016 87.13C1.77635 87.9154 2.36674 88.5996 3.08115 89.1363C3.79555 89.673 4.6172 90.0494 5.49016 90.24C6.37922 90.3829 7.28105 90.4298 8.18015 90.38H47.2502H83.6902L136.45 90.46L150.79 90.51H154.52H155.8H154.52H150.79L136.45 90.56L83.6902 90.64H47.2502H8.18015C7.24746 90.6886 6.31226 90.6383 5.39015 90.49C4.4476 90.2868 3.56052 89.881 2.79039 89.3008C2.02026 88.7206 1.38552 87.9799 0.930145 87.13C0.470702 86.2718 0.207707 85.3223 0.160156 84.35C0.160156 83.35 0.160156 82.47 0.160156 81.52C0.160156 77.75 0.160156 73.93 0.160156 70.08V46.7C0.160156 38.7 0.160156 30.55 0.160156 22.25V9.75002C0.160156 8.69002 0.160156 7.67002 0.160156 6.57002C0.234607 5.47664 0.578125 4.4186 1.16016 3.49002C1.76803 2.56612 2.59176 1.80416 3.56015 1.27002C4.53987 0.748958 5.63055 0.47115 6.74016 0.460022H102.56H144.38H154.03C154.83 0.460022 155.59 0.460022 156.41 0.460022C157.212 0.543869 157.992 0.774357 158.71 1.14001C160.137 1.86384 161.256 3.07812 161.86 4.56001C162.153 5.28521 162.309 6.05817 162.32 6.84001C162.32 7.59001 162.32 8.34001 162.32 9.09001V13.51C162.32 16.4167 162.32 19.2667 162.32 22.06C162.32 44.33 162.25 62.35 162.23 74.82C162.23 77.93 162.23 80.7 162.23 83.1C162.23 83.7 162.23 84.27 162.23 84.83C162.166 85.3633 162.039 85.8871 161.85 86.39C161.528 87.2593 161.019 88.0476 160.36 88.7C159.46 89.5853 158.319 90.1868 157.08 90.43C156.77 90.488 156.456 90.5215 156.14 90.53L155.8 90.62Z" fill="#263238"/>
<path d="M56.7601 32.49V33.61H52.0801V27.61H56.6401V28.73H53.4701V30H56.2701V31.09H53.4701V32.49H56.7601Z" fill="#263238"/>
<path d="M63.4206 27.57V33.57H62.2706L59.2706 29.9V33.57H57.8906V27.57H59.0006L62.0006 31.24V27.57H63.4206Z" fill="#263238"/>
<path d="M66.1099 28.71H64.1699V27.57H69.4399V28.71H67.4999V33.61H66.1099V28.71Z" fill="#263238"/>
<path d="M74.8704 32.49V33.61H70.1904V27.61H74.7604V28.73H71.5804V30H74.3904V31.09H71.5804V32.49H74.8704Z" fill="#263238"/>
<path d="M79.84 33.61L78.67 31.93H77.39V33.61H76V27.61H78.62C80.23 27.61 81.24 28.44 81.24 29.8C81.2521 30.2067 81.1399 30.6074 80.9184 30.9487C80.6968 31.29 80.3764 31.5556 80 31.71L81.35 33.65L79.84 33.61ZM78.53 28.71H77.39V30.81H78.53C79.38 30.81 79.81 30.42 79.81 29.76C79.81 29.1 79.38 28.71 78.53 28.71Z" fill="#263238"/>
<path d="M84.4004 30.59C84.4395 29.9384 84.6694 29.3126 85.0613 28.7905C85.4532 28.2684 85.9899 27.873 86.6047 27.6535C87.2196 27.434 87.8853 27.4001 88.5193 27.5559C89.1532 27.7117 89.7274 28.0505 90.1704 28.53L89.2704 29.36C89.0836 29.1386 88.8509 28.9605 88.5884 28.8379C88.326 28.7153 88.0401 28.6512 87.7504 28.65C87.2612 28.6852 86.8036 28.9043 86.4695 29.2633C86.1353 29.6224 85.9496 30.0946 85.9496 30.585C85.9496 31.0754 86.1353 31.5476 86.4695 31.9067C86.8036 32.2657 87.2612 32.4848 87.7504 32.52C88.041 32.5244 88.3287 32.4628 88.592 32.3398C88.8553 32.2168 89.0873 32.0357 89.2704 31.81L90.1704 32.64C89.7301 33.1238 89.1566 33.4666 88.5221 33.6256C87.8875 33.7846 87.2202 33.7525 86.6038 33.5335C85.9874 33.3145 85.4494 32.9183 85.0574 32.3947C84.6654 31.871 84.4368 31.2431 84.4004 30.59Z" fill="#263238"/>
<path d="M90.6104 30.59C90.5743 29.9285 90.7377 29.2713 91.0793 28.7036C91.4208 28.1359 91.9249 27.6838 92.5263 27.4057C93.1276 27.1276 93.7986 27.0364 94.4524 27.1439C95.1061 27.2513 95.7126 27.5526 96.1933 28.0085C96.6741 28.4644 97.0069 29.0541 97.1487 29.7013C97.2906 30.3485 97.235 31.0233 96.9891 31.6386C96.7432 32.2538 96.3183 32.7811 95.7694 33.1521C95.2205 33.5232 94.5729 33.7211 93.9104 33.72C93.4849 33.7446 93.0589 33.6818 92.6587 33.5354C92.2585 33.389 91.8924 33.1622 91.5832 32.8689C91.274 32.5757 91.0282 32.2222 90.8609 31.8302C90.6936 31.4383 90.6083 31.0162 90.6104 30.59ZM95.8004 30.59C95.7925 30.218 95.675 29.8566 95.4626 29.5511C95.2502 29.2456 94.9523 29.0096 94.6064 28.8727C94.2604 28.7358 93.8817 28.704 93.5177 28.7814C93.1538 28.8587 92.8208 29.0418 92.5604 29.3077C92.3001 29.5735 92.124 29.9103 92.0543 30.2758C91.9846 30.6413 92.0243 31.0192 92.1684 31.3623C92.3126 31.7053 92.5548 31.9981 92.8646 32.2041C93.1745 32.41 93.5383 32.5199 93.9104 32.52C94.1636 32.5257 94.4152 32.4794 94.6497 32.384C94.8843 32.2885 95.0967 32.1458 95.2739 31.9649C95.4511 31.784 95.5892 31.5686 95.6798 31.3321C95.7704 31.0956 95.8114 30.843 95.8004 30.59Z" fill="#263238"/>
<path d="M98.2798 27.57H101C101.795 27.57 102.558 27.8861 103.121 28.4487C103.684 29.0113 104 29.7744 104 30.57C104 31.3657 103.684 32.1287 103.121 32.6913C102.558 33.2539 101.795 33.57 101 33.57H98.2598L98.2798 27.57ZM100.95 32.46C101.446 32.46 101.921 32.263 102.272 31.9123C102.623 31.5616 102.82 31.086 102.82 30.59C102.82 30.094 102.623 29.6184 102.272 29.2677C101.921 28.917 101.446 28.72 100.95 28.72H99.6797V32.46H100.95Z" fill="#263238"/>
<path d="M110.09 32.49V33.61H105.41V27.61H110V28.73H106.8V30H109.61V31.09H106.8V32.49H110.09Z" fill="#263238"/>
<path d="M33.8197 43.26H19.1297C16.9482 43.26 15.1797 45.0285 15.1797 47.21V70.08C15.1797 72.2615 16.9482 74.03 19.1297 74.03H33.8197C36.0012 74.03 37.7697 72.2615 37.7697 70.08V47.21C37.7697 45.0285 36.0012 43.26 33.8197 43.26Z" fill="#EBEBEB"/>
<path d="M62.0306 43.26H47.3406C45.1591 43.26 43.3906 45.0285 43.3906 47.21V70.08C43.3906 72.2615 45.1591 74.03 47.3406 74.03H62.0306C64.2121 74.03 65.9806 72.2615 65.9806 70.08V47.21C65.9806 45.0285 64.2121 43.26 62.0306 43.26Z" fill="#EBEBEB"/>
<path d="M90.2406 43.26H75.5506C73.369 43.26 71.6006 45.0285 71.6006 47.21V70.08C71.6006 72.2615 73.369 74.03 75.5506 74.03H90.2406C92.4221 74.03 94.1906 72.2615 94.1906 70.08V47.21C94.1906 45.0285 92.4221 43.26 90.2406 43.26Z" fill="#EBEBEB"/>
<path d="M118.44 43.26H103.75C101.568 43.26 99.7998 45.0285 99.7998 47.21V70.08C99.7998 72.2615 101.568 74.03 103.75 74.03H118.44C120.621 74.03 122.39 72.2615 122.39 70.08V47.21C122.39 45.0285 120.621 43.26 118.44 43.26Z" fill="#EBEBEB"/>
<path d="M146.65 43.26H131.96C129.778 43.26 128.01 45.0285 128.01 47.21V70.08C128.01 72.2615 129.778 74.03 131.96 74.03H146.65C148.831 74.03 150.6 72.2615 150.6 70.08V47.21C150.6 45.0285 148.831 43.26 146.65 43.26Z" fill="#EBEBEB"/>
<path d="M31.4003 61C31.4003 63.19 29.7003 64.62 27.4003 64.62C24.2403 64.62 22.5703 62.35 22.5703 58.62C22.5703 54.56 24.7403 52.46 27.9103 52.46C28.8595 52.4173 29.8027 52.6314 30.6403 53.08L30.2803 53.78C29.5558 53.3825 28.7358 53.1923 27.9103 53.23C25.2203 53.23 23.4503 55 23.4503 58.49C23.45 58.9717 23.4834 59.4529 23.5503 59.93C23.8317 59.1567 24.3583 58.4967 25.0498 58.0508C25.7414 57.6048 26.5598 57.3973 27.3803 57.46C29.7803 57.46 31.4003 58.86 31.4003 61ZM30.5203 61C30.5203 59.29 29.2903 58.17 27.2603 58.17C26.8503 58.1243 26.4352 58.1637 26.0411 58.2857C25.6469 58.4078 25.2822 58.6097 24.9697 58.8791C24.6572 59.1484 24.4035 59.4794 24.2247 59.8512C24.0459 60.223 23.9456 60.6277 23.9303 61.04C23.9303 62.45 25.1103 63.85 27.3603 63.85C27.7598 63.8937 28.164 63.8525 28.5464 63.7289C28.9288 63.6054 29.2807 63.4024 29.5791 63.1333C29.8775 62.8642 30.1157 62.535 30.2779 62.1673C30.4401 61.7996 30.5227 61.4018 30.5203 61Z" fill="#FF725E"/>
<path d="M59.3003 61.23H56.7803V64.56H55.9203V61.23H49.0703V60.6L55.5903 52.55H56.5903L50.1903 60.46H55.9603V57.53H56.8003V60.46H59.3203L59.3003 61.23Z" fill="#FF725E"/>
<path d="M88.3899 66.27C84.9085 66.6167 81.4013 66.6167 77.9199 66.27C81.4013 65.9233 84.9085 65.9233 88.3899 66.27Z" fill="#FF725E"/>
<path d="M10.66 12.15C12.0131 12.15 13.1099 11.0531 13.1099 9.7C13.1099 8.3469 12.0131 7.25 10.66 7.25C9.30686 7.25 8.20996 8.3469 8.20996 9.7C8.20996 11.0531 9.30686 12.15 10.66 12.15Z" fill="#263238"/>
<path d="M20.1705 9.7C20.1705 10.1846 20.0268 10.6583 19.7576 11.0612C19.4884 11.4641 19.1058 11.7781 18.6581 11.9635C18.2104 12.1489 17.7178 12.1975 17.2425 12.1029C16.7673 12.0084 16.3307 11.775 15.9881 11.4324C15.6455 11.0898 15.4121 10.6532 15.3176 10.178C15.2231 9.70272 15.2716 9.2101 15.457 8.76242C15.6424 8.31474 15.9565 7.93211 16.3594 7.6629C16.7623 7.39369 17.2359 7.25 17.7205 7.25C18.3703 7.25 18.9935 7.50813 19.4529 7.96759C19.9124 8.42705 20.1705 9.05022 20.1705 9.7Z" fill="#263238"/>
<path d="M24.6502 12.15C26.0033 12.15 27.1002 11.0531 27.1002 9.7C27.1002 8.3469 26.0033 7.25 24.6502 7.25C23.2971 7.25 22.2002 8.3469 22.2002 9.7C22.2002 11.0531 23.2971 12.15 24.6502 12.15Z" fill="#263238"/>
<path d="M162.42 16.6C162.42 16.74 126.19 16.86 81.5201 16.86C36.8501 16.86 0.620117 16.74 0.620117 16.6C0.620117 16.46 36.8301 16.34 81.5201 16.34C126.21 16.34 162.42 16.45 162.42 16.6Z" fill="#263238"/>
</svg>
