<svg width="99" height="108" viewBox="0 0 99 108" fill="none" xmlns="http://www.w3.org/2000/svg">
<path d="M86.1301 102.7C100.39 88.63 100.47 67.01 96.6101 48.25C95.9601 45.12 95.7401 41.74 93.7701 39.25C91.8001 36.76 87.98 35.45 85.3901 37.25C83.2401 38.75 82.68 41.65 81.76 44.12C80.5227 47.4189 78.3808 50.3024 75.5801 52.44C73.7501 53.82 71.3801 54.88 69.2101 54.13C66.2101 53.13 65.2701 49.4 64.7601 46.26L61.88 28.73C61.5271 25.564 60.6695 22.4749 59.34 19.58C57.86 16.78 55.23 14.38 52.1101 14.06C48.9901 13.74 45.6 16.06 45.49 19.25C45.5938 20.5684 45.7876 21.8781 46.07 23.17C46.2001 24.49 45.84 26.03 44.67 26.6C43.5 27.17 42.0801 26.51 40.9801 25.75C37.2101 23.14 34.3201 19.44 31.5801 15.75C28.8401 12.06 26.1301 8.24 22.5801 5.29C19.0301 2.34 14.5801 0.289999 10.0001 0.819999C5.42005 1.35 1.17005 4.91 0.790051 9.51C0.410051 14.11 3.79005 18.16 7.16005 21.26C12.2382 25.8446 17.9502 29.6739 24.1201 32.63C25.2901 33.0375 26.2992 33.8084 27 34.83C28 36.83 26.4201 39.22 24.4701 40.25C22.2701 41.43 19.7001 41.62 17.3001 42.33C14.9001 43.04 12.45 44.56 11.92 47.03C11.18 50.45 14.4301 53.35 17.4401 55.09C23.4707 58.5951 30.0606 61.0342 36.92 62.3C39.37 62.75 41.9201 63.07 44.0501 64.37C46.1801 65.67 47.7901 68.3 47.0501 70.7C46.3101 73.1 43.5401 74.3 41.0501 74.26C38.5601 74.22 36.1701 73.26 33.7301 72.81C29.1401 71.92 23.6401 73.17 21.5101 77.36C20.8883 78.7851 20.6054 80.335 20.6835 81.8879C20.7615 83.4408 21.1985 84.9544 21.96 86.31C23.4892 89.001 25.5431 91.3576 28 93.24C36.2253 100.267 46.1663 104.987 56.81 106.92C67.3801 108.67 76.8101 108.03 86.1001 102.7" fill="#EBEBEB"/>
</svg>
