<svg width="193" height="179" viewBox="0 0 193 179" fill="none" xmlns="http://www.w3.org/2000/svg">
<path d="M185.711 1.28998H7.07076C3.44777 1.28998 0.510742 4.22699 0.510742 7.84998V172.2C0.510742 175.823 3.44777 178.76 7.07076 178.76H185.711C189.334 178.76 192.271 175.823 192.271 172.2V7.84998C192.271 4.22699 189.334 1.28998 185.711 1.28998Z" fill="white"/>
<path d="M185.71 178.76H186.18C186.645 178.722 187.104 178.634 187.55 178.5C188.422 178.233 189.229 177.786 189.918 177.189C190.607 176.591 191.163 175.856 191.55 175.03C192.089 173.791 192.302 172.435 192.17 171.09C192.17 169.6 192.17 167.96 192.17 166.19C192.17 162.65 192.17 158.56 192.17 153.96C192.17 135.56 192.12 108.96 192.08 76.04C192.08 59.59 192.08 41.58 192.08 22.23C192.08 17.4033 192.08 12.4933 192.08 7.49998C192.005 6.27916 191.578 5.10623 190.85 4.12306C190.123 3.13989 189.126 2.38857 187.98 1.95998C186.789 1.58325 185.535 1.44728 184.29 1.55998H148.6H7.09031C5.58865 1.5687 4.139 2.11099 3.00031 3.08998C1.82398 4.08334 1.05497 5.47537 0.840307 6.99998C0.771416 7.76458 0.748049 8.53261 0.770315 9.29998V70.87C0.770315 94.54 0.770315 117.37 0.770315 139.12C0.770315 150 0.770315 160.597 0.770315 170.91C0.770315 171.55 0.770315 172.21 0.770315 172.82C0.828001 173.434 0.972779 174.037 1.20031 174.61C1.66298 175.758 2.45221 176.746 3.47031 177.45C4.47814 178.153 5.67152 178.543 6.9003 178.57H25.4103H79.2203L157.14 178.66H178.32H183.83H185.71H183.83H178.32L157.14 178.71L79.2203 178.79H25.4103H6.89031C5.56919 178.757 4.28669 178.338 3.20096 177.584C2.11524 176.831 1.27376 175.776 0.780309 174.55C0.534883 173.935 0.376682 173.289 0.310308 172.63C0.260308 171.95 0.310308 171.33 0.310308 170.68C0.310308 160.367 0.310308 149.77 0.310308 138.89C0.310308 117.14 0.310308 94.31 0.310308 70.64C0.310308 58.8 0.310308 46.7633 0.310308 34.53V9.24998C0.28283 8.45908 0.309561 7.66723 0.39031 6.87998C0.610176 5.2536 1.42194 3.76537 2.67031 2.69998C3.89605 1.62813 5.46222 1.02576 7.09031 0.999983H148.6H184.23C185.53 0.88785 186.839 1.03746 188.08 1.43998C189.306 1.899 190.374 2.70324 191.153 3.75554C191.932 4.80785 192.389 6.06321 192.47 7.36998C192.47 12.37 192.47 17.29 192.47 22.13C192.47 41.48 192.47 59.49 192.47 75.94C192.47 108.84 192.41 135.46 192.39 153.86C192.39 158.46 192.39 162.55 192.39 166.09C192.39 167.86 192.39 169.5 192.39 170.99C192.517 172.358 192.29 173.735 191.73 174.99C191.229 176.041 190.455 176.939 189.49 177.592C188.525 178.244 187.403 178.627 186.24 178.7L185.71 178.76Z" fill="#263238"/>
<path d="M15.0004 13.59C15.0004 14.247 14.8054 14.8893 14.4401 15.4355C14.0749 15.9817 13.5558 16.4072 12.9485 16.6582C12.3413 16.9092 11.6733 16.9743 11.029 16.8454C10.3847 16.7165 9.79314 16.3993 9.32923 15.934C8.86532 15.4687 8.5499 14.8762 8.42293 14.2315C8.29596 13.5868 8.36314 12.919 8.61595 12.3125C8.86877 11.706 9.29586 11.1882 9.84314 10.8246C10.3904 10.461 11.0333 10.268 11.6904 10.27C12.1259 10.27 12.5571 10.3559 12.9594 10.5229C13.3616 10.6899 13.7269 10.9346 14.0344 11.243C14.3419 11.5514 14.5855 11.9175 14.7513 12.3202C14.917 12.723 15.0017 13.1545 15.0004 13.59Z" fill="#263238"/>
<path d="M21.3501 16.9C23.1781 16.9 24.66 15.418 24.66 13.59C24.66 11.7619 23.1781 10.28 21.3501 10.28C19.522 10.28 18.04 11.7619 18.04 13.59C18.04 15.418 19.522 16.9 21.3501 16.9Z" fill="#263238"/>
<path d="M31.0307 16.9C32.8588 16.9 34.3407 15.418 34.3407 13.59C34.3407 11.7619 32.8588 10.28 31.0307 10.28C29.2026 10.28 27.7207 11.7619 27.7207 13.59C27.7207 15.418 29.2026 16.9 31.0307 16.9Z" fill="#263238"/>
<path d="M192.271 23C192.271 23.15 149.341 23.26 96.3908 23.26C43.4408 23.26 0.510742 23.15 0.510742 23C0.510742 22.85 43.4308 22.74 96.3908 22.74C149.351 22.74 192.271 22.85 192.271 23Z" fill="#263238"/>
<path d="M123.481 89.85C123.481 89.85 123.551 89.74 123.711 89.54L123.841 89.37L123.971 89.14C124.081 88.9539 124.178 88.7601 124.261 88.56C124.261 88.45 124.361 88.33 124.401 88.2L124.521 87.78C124.564 87.6257 124.598 87.4687 124.621 87.31C124.621 87.14 124.681 86.97 124.691 86.79C124.756 85.9582 124.716 85.1216 124.571 84.3C124.15 82.0511 123.38 79.8817 122.291 77.87C120.885 75.1849 119.242 72.6313 117.381 70.24C115.14 67.3315 112.697 64.5847 110.071 62.02C107.063 59.0679 103.852 56.3312 100.461 53.83C98.6706 52.51 96.7806 51.23 94.7906 50.03C92.7615 48.7905 90.6537 47.6848 88.4806 46.72C86.2471 45.7004 83.8958 44.9614 81.4806 44.52C80.2457 44.3001 78.9846 44.2697 77.7406 44.43C77.1161 44.5186 76.5069 44.6936 75.9306 44.95C75.3654 45.2275 74.8541 45.6034 74.4206 46.06C74.0069 46.5389 73.688 47.092 73.4806 47.69C73.2926 48.2929 73.1883 48.9187 73.1706 49.55C73.1541 50.8052 73.326 52.0558 73.6806 53.26C74.3977 55.6158 75.4055 57.8732 76.6806 59.98C77.8825 62.0294 79.2187 63.997 80.6806 65.87C82.1006 67.71 83.5906 69.45 85.1006 71.08C87.9728 74.1652 91.0606 77.0424 94.3406 79.69C97.1868 82.0105 100.194 84.1259 103.341 86.02C105.929 87.5939 108.653 88.9325 111.481 90.02C113.606 90.8681 115.849 91.3874 118.131 91.56C118.961 91.6009 119.793 91.5439 120.611 91.39C120.791 91.39 120.951 91.3 121.111 91.26C121.267 91.2189 121.42 91.1689 121.571 91.11L121.971 90.94L122.321 90.76C122.511 90.6564 122.692 90.5359 122.861 90.4L123.071 90.25L123.231 90.1C123.411 89.92 123.511 89.84 123.511 89.84L123.241 90.11L123.081 90.26L122.881 90.42C122.71 90.5581 122.525 90.6787 122.331 90.78L122.001 91L121.591 91.17C121.445 91.2318 121.294 91.2819 121.141 91.32C120.974 91.3772 120.803 91.4239 120.631 91.46C119.809 91.6283 118.968 91.6888 118.131 91.64C115.843 91.4845 113.592 90.9751 111.461 90.13C108.623 89.0437 105.889 87.705 103.291 86.13C100.145 84.2355 97.1371 82.1202 94.2906 79.8C91.0015 77.1557 87.9068 74.2783 85.0306 71.19C83.5206 69.56 82.0306 67.82 80.6006 65.98C79.1423 64.0975 77.8062 62.1234 76.6006 60.07C75.3238 57.9535 74.316 55.686 73.6006 53.32C73.2364 52.1005 73.061 50.8325 73.0806 49.56C73.1017 48.9184 73.2093 48.2827 73.4006 47.67C73.6276 47.0502 73.9666 46.4773 74.4006 45.98C74.8438 45.5048 75.3732 45.1179 75.9606 44.84C76.55 44.5771 77.1723 44.3954 77.8106 44.3C79.0713 44.1396 80.3489 44.1699 81.6006 44.39C84.0335 44.8351 86.4016 45.5809 88.6506 46.61C90.8282 47.576 92.9395 48.6851 94.9706 49.93C96.9706 51.13 98.8606 52.41 100.651 53.74C104.047 56.2456 107.259 58.9927 110.261 61.96C112.893 64.5291 115.34 67.2827 117.581 70.2C119.437 72.5981 121.073 75.1584 122.471 77.85C123.558 79.8725 124.324 82.0519 124.741 84.31C124.88 85.139 124.914 85.9824 124.841 86.82C124.825 86.9916 124.799 87.1619 124.761 87.33C124.745 87.4899 124.711 87.6475 124.661 87.8L124.541 88.23C124.498 88.3531 124.448 88.4733 124.391 88.59C124.315 88.7951 124.215 88.99 124.091 89.17C124.055 89.251 124.012 89.3281 123.961 89.4L123.831 89.57L123.481 89.85Z" fill="#FF725E"/>
<path d="M132.55 67.93V67.55V67.34C132.55 67.26 132.55 67.18 132.5 67.08C132.466 66.8646 132.409 66.6535 132.33 66.45C132.33 66.34 132.25 66.21 132.2 66.09L132 65.69C131.936 65.545 131.855 65.4075 131.76 65.28C131.674 65.1299 131.577 64.9862 131.47 64.85C130.973 64.1815 130.387 63.5828 129.73 63.07C127.912 61.6735 125.888 60.567 123.73 59.79C120.896 58.7184 117.971 57.9051 114.99 57.36C111.362 56.6788 107.689 56.2577 104 56.1C99.7893 55.8948 95.5689 55.985 91.3704 56.37C89.1604 56.58 86.9004 56.89 84.6104 57.32C82.2711 57.7419 79.9626 58.3198 77.7004 59.05C75.349 59.7621 73.0977 60.7702 71.0004 62.05C69.9318 62.7055 68.9706 63.5218 68.1504 64.47C67.7447 64.9508 67.4081 65.486 67.1504 66.06C66.9034 66.6429 66.7677 67.267 66.7504 67.9C66.7701 68.5316 66.9022 69.1547 67.1404 69.74C67.4019 70.3119 67.7382 70.8466 68.1404 71.33C68.9665 72.2788 69.9306 73.098 71.0004 73.76C73.1007 75.0339 75.3513 76.0417 77.7004 76.76C79.9653 77.4808 82.2731 78.0586 84.6104 78.49C86.9004 78.92 89.1604 79.22 91.3704 79.43C95.5684 79.8229 99.7891 79.9164 104 79.71C107.69 79.5625 111.366 79.1615 115 78.51C117.981 77.9648 120.906 77.1515 123.74 76.08C125.894 75.2949 127.917 74.1891 129.74 72.8C130.395 72.2845 130.98 71.6861 131.48 71.02C131.587 70.8804 131.684 70.7333 131.77 70.58C131.865 70.4524 131.946 70.315 132.01 70.17L132.21 69.78C132.26 69.65 132.3 69.53 132.34 69.41C132.42 69.2068 132.477 68.9955 132.51 68.78C132.51 68.69 132.51 68.61 132.56 68.53V68.32V67.93C132.56 67.93 132.56 68.06 132.56 68.32V68.53C132.56 68.61 132.56 68.69 132.56 68.79C132.53 69.005 132.476 69.2162 132.4 69.42C132.4 69.54 132.32 69.66 132.27 69.79L132.08 70.19C132.01 70.3351 131.929 70.4753 131.84 70.61C131.752 70.7586 131.655 70.9021 131.55 71.04C131.053 71.715 130.468 72.3204 129.81 72.84C127.994 74.2481 125.97 75.3648 123.81 76.15C120.974 77.2335 118.046 78.0569 115.06 78.61C111.428 79.2934 107.753 79.7211 104.06 79.89C99.8463 80.1035 95.6223 80.0166 91.4204 79.63C89.2004 79.42 86.9304 79.12 84.6404 78.69C82.2968 78.2574 79.9823 77.6796 77.7104 76.96C75.3503 76.2459 73.0892 75.238 70.9804 73.96C69.8981 73.295 68.9236 72.4688 68.0904 71.51C67.6849 71.0144 67.3485 70.466 67.0904 69.88C66.8204 69.2829 66.6807 68.6352 66.6807 67.98C66.6807 67.3247 66.8204 66.677 67.0904 66.08C67.3523 65.4959 67.6884 64.948 68.0904 64.45C68.9323 63.4923 69.9133 62.6664 71.0004 62C73.1137 60.7237 75.3778 59.716 77.7404 59C80.0063 58.271 82.3181 57.693 84.6604 57.27C86.9604 56.84 89.2204 56.54 91.4404 56.33C95.6141 55.9239 99.8112 55.8137 104 56C107.693 56.1669 111.369 56.598 115 57.29C117.986 57.838 120.915 58.658 123.75 59.74C125.91 60.5251 127.934 61.6418 129.75 63.05C130.406 63.572 130.991 64.1771 131.49 64.85C131.597 64.9895 131.694 65.1366 131.78 65.29C131.872 65.4233 131.952 65.5637 132.02 65.71L132.21 66.1C132.26 66.23 132.3 66.36 132.34 66.47C132.416 66.6771 132.47 66.8916 132.5 67.11C132.5 67.2 132.5 67.29 132.5 67.36V67.58C132.55 67.8 132.55 67.93 132.55 67.93Z" fill="#FF725E"/>
<path d="M120.53 40.66L120.2 40.45L120.02 40.33C119.946 40.2875 119.869 40.2507 119.79 40.22C119.599 40.1158 119.398 40.0321 119.19 39.97C119.07 39.97 118.95 39.88 118.82 39.85L118.39 39.76C118.235 39.7261 118.078 39.7028 117.92 39.69C117.747 39.6797 117.573 39.6797 117.4 39.69C116.565 39.6794 115.732 39.7734 114.92 39.97C112.707 40.5575 110.596 41.478 108.66 42.7C106.076 44.2808 103.643 46.0951 101.39 48.12C98.6414 50.5555 96.0683 53.182 93.6899 55.98C90.9488 59.1808 88.4391 62.5727 86.1799 66.13C84.9999 68 83.8399 70 82.7799 72C81.6807 74.1078 80.722 76.2858 79.9099 78.52C79.0498 80.8245 78.4755 83.2257 78.1999 85.67C78.0663 86.918 78.1236 88.1792 78.3699 89.41C78.507 90.0262 78.7256 90.6214 79.0199 91.18C79.3295 91.7315 79.7399 92.22 80.2299 92.62C80.7393 92.9905 81.312 93.265 81.9199 93.43C82.5316 93.5782 83.1608 93.6421 83.7899 93.62C85.0451 93.5501 86.2824 93.2905 87.4599 92.85C89.7608 91.9772 91.9442 90.8217 93.9599 89.41C95.9203 88.0668 97.791 86.597 99.5599 85.01C101.3 83.46 102.93 81.86 104.45 80.24C107.327 77.1605 109.983 73.8824 112.4 70.43C114.519 67.4314 116.424 64.2869 118.1 61.02C119.497 58.3329 120.649 55.5247 121.54 52.63C122.24 50.4479 122.6 48.1714 122.61 45.88C122.607 45.0485 122.493 44.2211 122.27 43.42C122.27 43.24 122.16 43.08 122.11 42.92C122.06 42.76 122 42.62 121.93 42.48L121.74 42.09C121.67 41.97 121.59 41.86 121.53 41.76C121.416 41.5723 121.282 41.3978 121.13 41.24L120.97 41.04L120.81 40.9L120.53 40.64L120.82 40.89L120.98 41.03C121.041 41.0887 121.098 41.1523 121.15 41.22C121.301 41.3792 121.435 41.5535 121.55 41.74C121.62 41.85 121.7 41.95 121.77 42.07L121.96 42.47C122.037 42.6103 122.101 42.7576 122.15 42.91C122.2 43.07 122.27 43.23 122.31 43.41C122.541 44.2133 122.662 45.0442 122.67 45.88C122.674 48.1775 122.319 50.4615 121.62 52.65C120.732 55.5527 119.588 58.3706 118.2 61.07C116.524 64.3435 114.619 67.4947 112.5 70.5C110.089 73.9632 107.432 77.2484 104.55 80.33C103.03 81.96 101.4 83.57 99.6499 85.12C97.8771 86.7097 96.0032 88.1828 94.0399 89.53C92.0168 90.9524 89.8229 92.1148 87.5099 92.99C86.3194 93.4347 85.0687 93.6977 83.7999 93.77C83.1543 93.7916 82.5087 93.7277 81.8799 93.58C81.2535 93.4034 80.6642 93.1155 80.1399 92.73C79.6345 92.319 79.2106 91.817 78.8899 91.25C78.5874 90.679 78.3621 90.0703 78.2199 89.44C77.9772 88.1951 77.9233 86.9209 78.0599 85.66C78.3306 83.2009 78.9084 80.7854 79.7799 78.47C80.592 76.2326 81.5508 74.0512 82.6499 71.94C83.7199 69.86 84.8699 67.88 86.0599 66C88.3324 62.4442 90.8519 59.0525 93.5999 55.85C95.9826 53.0524 98.5625 50.4291 101.32 48C103.585 45.9774 106.028 44.1633 108.62 42.58C110.566 41.3633 112.687 40.4527 114.91 39.88C115.724 39.6786 116.561 39.5845 117.4 39.6C117.58 39.6 117.75 39.6 117.92 39.6C118.081 39.612 118.242 39.6354 118.4 39.67L118.83 39.76L119.2 39.89C119.409 39.9551 119.61 40.0423 119.8 40.15C119.879 40.1807 119.956 40.2175 120.03 40.26L120.21 40.39L120.53 40.66Z" fill="#FF725E"/>
<path d="M66.3506 81.52C66.5206 81.6909 66.6361 81.9083 66.6827 82.1447C66.7292 82.3812 66.7047 82.6262 66.6121 82.8487C66.5196 83.0713 66.3632 83.2614 66.1627 83.3952C65.9622 83.529 65.7266 83.6003 65.4856 83.6003C65.2446 83.6003 65.009 83.529 64.8085 83.3952C64.608 83.2614 64.4517 83.0713 64.3591 82.8487C64.2666 82.6262 64.242 82.3812 64.2886 82.1447C64.3351 81.9083 64.4507 81.6909 64.6206 81.52C64.734 81.406 64.8688 81.3156 65.0172 81.2538C65.1657 81.1921 65.3249 81.1603 65.4856 81.1603C65.6464 81.1603 65.8056 81.1921 65.954 81.2538C66.1025 81.3156 66.2373 81.406 66.3506 81.52V81.52Z" fill="#FF725E"/>
<path d="M135.34 43.63C135.342 43.8737 135.271 44.1125 135.137 44.3161C135.003 44.5196 134.812 44.6789 134.588 44.7735C134.363 44.8681 134.115 44.8939 133.876 44.8476C133.637 44.8013 133.417 44.6849 133.244 44.5133C133.071 44.3417 132.953 44.1225 132.904 43.8837C132.856 43.6448 132.88 43.397 132.973 43.1716C133.065 42.9463 133.223 42.7536 133.425 42.618C133.628 42.4824 133.866 42.41 134.11 42.41C134.271 42.4087 134.431 42.4393 134.58 42.5C134.729 42.5607 134.865 42.6504 134.979 42.7638C135.093 42.8772 135.184 43.0121 135.246 43.1608C135.308 43.3095 135.34 43.469 135.34 43.63V43.63Z" fill="#FF725E"/>
<path d="M74.0702 85.54C74.0702 85.6013 74.052 85.6612 74.018 85.7122C73.9839 85.7632 73.9355 85.8029 73.8788 85.8264C73.8222 85.8498 73.7598 85.856 73.6997 85.844C73.6396 85.8321 73.5843 85.8025 73.541 85.7592C73.4976 85.7158 73.4681 85.6606 73.4562 85.6005C73.4442 85.5403 73.4503 85.478 73.4738 85.4214C73.4973 85.3647 73.537 85.3163 73.588 85.2822C73.6389 85.2482 73.6989 85.23 73.7602 85.23C73.8424 85.23 73.9213 85.2626 73.9794 85.3208C74.0375 85.3789 74.0702 85.4578 74.0702 85.54Z" fill="#FF725E"/>
<path d="M80.7001 51.28C80.7001 51.3413 80.6819 51.4012 80.6478 51.4522C80.6138 51.5032 80.5653 51.5429 80.5087 51.5664C80.4521 51.5898 80.3897 51.596 80.3296 51.584C80.2695 51.5721 80.2142 51.5425 80.1709 51.4992C80.1275 51.4558 80.098 51.4006 80.086 51.3404C80.0741 51.2803 80.0802 51.218 80.1037 51.1613C80.1271 51.1047 80.1669 51.0563 80.2178 51.0222C80.2688 50.9882 80.3288 50.97 80.3901 50.97C80.4723 50.97 80.5511 51.0026 80.6093 51.0608C80.6674 51.1189 80.7001 51.1978 80.7001 51.28Z" fill="#FF725E"/>
<path d="M129.19 67.93C129.19 68.0122 129.158 68.0911 129.1 68.1492C129.041 68.2073 128.963 68.24 128.88 68.24C128.798 68.24 128.719 68.2073 128.661 68.1492C128.603 68.0911 128.57 68.0122 128.57 67.93C128.57 67.8478 128.603 67.7689 128.661 67.7108C128.719 67.6527 128.798 67.62 128.88 67.62C128.963 67.62 129.041 67.6527 129.1 67.7108C129.158 67.7689 129.19 67.8478 129.19 67.93V67.93Z" fill="#FF725E"/>
<path d="M133.511 53.45C133.511 53.5322 133.478 53.611 133.42 53.6692C133.362 53.7273 133.283 53.76 133.201 53.76C133.118 53.76 133.04 53.7273 132.981 53.6692C132.923 53.611 132.891 53.5322 132.891 53.45C132.891 53.3677 132.923 53.2889 132.981 53.2308C133.04 53.1726 133.118 53.14 133.201 53.14C133.283 53.14 133.362 53.1726 133.42 53.2308C133.478 53.2889 133.511 53.3677 133.511 53.45V53.45Z" fill="#FF725E"/>
<path d="M112.57 74.76H108.73V53.85C108.73 51.4816 107.789 49.2102 106.114 47.5355C104.44 45.8608 102.168 44.92 99.8 44.92C97.4316 44.92 95.1602 45.8608 93.4855 47.5355C91.8108 49.2102 90.87 51.4816 90.87 53.85V74.76H87V53.85C87 50.4631 88.3454 47.215 90.7402 44.8202C93.1351 42.4254 96.3832 41.08 99.77 41.08C103.157 41.08 106.405 42.4254 108.8 44.8202C111.195 47.215 112.54 50.4631 112.54 53.85L112.57 74.76Z" fill="#FF725E"/>
<g opacity="0.3">
<path opacity="0.3" d="M112.57 74.76H108.73V53.85C108.73 51.4816 107.789 49.2102 106.114 47.5355C104.44 45.8608 102.168 44.92 99.8 44.92C97.4316 44.92 95.1602 45.8608 93.4855 47.5355C91.8108 49.2102 90.87 51.4816 90.87 53.85V74.76H87V53.85C87 50.4631 88.3454 47.215 90.7402 44.8202C93.1351 42.4254 96.3832 41.08 99.77 41.08C103.157 41.08 106.405 42.4254 108.8 44.8202C111.195 47.215 112.54 50.4631 112.54 53.85L112.57 74.76Z" fill="black"/>
</g>
<path d="M114.76 65.46H84.8398C83.5972 65.46 82.5898 66.4673 82.5898 67.71V85.29C82.5898 86.5326 83.5972 87.54 84.8398 87.54H114.76C116.002 87.54 117.01 86.5326 117.01 85.29V67.71C117.01 66.4673 116.002 65.46 114.76 65.46Z" fill="#FF725E"/>
<g opacity="0.3">
<path opacity="0.3" d="M102.68 73.63C102.684 73.0931 102.538 72.5656 102.258 72.1073C101.979 71.649 101.576 71.2779 101.097 71.0362C100.617 70.7944 100.08 70.6914 99.545 70.739C99.0101 70.7865 98.4992 70.9826 98.0699 71.3052C97.6406 71.6277 97.3101 72.0639 97.1155 72.5644C96.921 73.0648 96.8703 73.6098 96.9691 74.1376C97.0679 74.6653 97.3123 75.155 97.6747 75.5513C98.037 75.9475 98.5029 76.2346 99.0198 76.38V80.68H100.58V76.38C101.182 76.214 101.714 75.8552 102.093 75.3586C102.472 74.862 102.678 74.2548 102.68 73.63V73.63Z" fill="black"/>
</g>
<path d="M84.4303 85.45C84.3503 85.45 84.2803 81.77 84.2803 77.23C84.2803 72.69 84.3503 69 84.4303 69C84.5103 69 84.5703 72.68 84.5703 77.23C84.5703 81.78 84.5003 85.45 84.4303 85.45Z" fill="#FAFAFA"/>
<path d="M97.5507 77.31C97.5507 77.31 97.4107 77.31 97.2107 77.12C96.9274 76.909 96.6779 76.6561 96.4707 76.37C96.1064 75.8986 95.852 75.3517 95.7261 74.7693C95.6002 74.187 95.6059 73.5838 95.743 73.004C95.8801 72.4242 96.1449 71.8823 96.5182 71.4179C96.8915 70.9535 97.3638 70.5784 97.9007 70.32C98.2138 70.1521 98.5512 70.034 98.9007 69.97C99.0296 69.9459 99.1618 69.9459 99.2907 69.97C98.8487 70.12 98.4177 70.3004 98.0007 70.51C97.5126 70.7793 97.0861 71.1476 96.7486 71.5914C96.4112 72.0351 96.1703 72.5445 96.0413 73.0869C95.9123 73.6292 95.8981 74.1926 95.9996 74.7407C96.1011 75.2889 96.3161 75.8098 96.6307 76.27C96.9089 76.6408 97.2166 76.9886 97.5507 77.31V77.31Z" fill="#FAFAFA"/>
<path d="M150.9 106.47H44.9303C39.783 106.47 35.6104 110.643 35.6104 115.79V116.93C35.6104 122.077 39.783 126.25 44.9303 126.25H150.9C156.048 126.25 160.22 122.077 160.22 116.93V115.79C160.22 110.643 156.048 106.47 150.9 106.47Z" fill="#F5F5F5"/>
<path d="M151.811 133.59H45.8405C40.6932 133.59 36.5205 137.763 36.5205 142.91V144.05C36.5205 149.197 40.6932 153.37 45.8405 153.37H151.811C156.958 153.37 161.131 149.197 161.131 144.05V142.91C161.131 137.763 156.958 133.59 151.811 133.59Z" fill="#F5F5F5"/>
<path d="M55.3008 116.2V113.34H56.4908V116.16C56.4908 117.16 56.9108 117.53 57.6308 117.53C58.3508 117.53 58.7708 117.13 58.7708 116.16V113.34H59.9408V116.2C59.9408 116.815 59.6963 117.405 59.2613 117.84C58.8262 118.276 58.2361 118.52 57.6208 118.52C57.0055 118.52 56.4154 118.276 55.9803 117.84C55.5452 117.405 55.3008 116.815 55.3008 116.2V116.2Z" fill="#263238"/>
<path d="M60.6504 118.09L61.0204 117.27C61.4349 117.517 61.908 117.648 62.3904 117.65C62.9204 117.65 63.1104 117.51 63.1104 117.29C63.1104 116.65 60.7404 117.29 60.7404 115.74C60.7404 114.99 61.4104 114.46 62.5604 114.46C63.0848 114.452 63.6032 114.572 64.0704 114.81L63.6904 115.62C63.3465 115.424 62.9562 115.324 62.5604 115.33C62.0504 115.33 61.8304 115.49 61.8304 115.69C61.8304 116.36 64.2004 115.69 64.2004 117.26C64.2004 117.99 63.5304 118.51 62.3504 118.51C61.7565 118.523 61.1698 118.378 60.6504 118.09V118.09Z" fill="#263238"/>
<path d="M68.7404 116.81H65.7404C65.8017 117.056 65.9499 117.271 66.1576 117.416C66.3653 117.562 66.6184 117.627 66.8704 117.6C67.0542 117.608 67.2377 117.579 67.4097 117.513C67.5816 117.448 67.7384 117.348 67.8704 117.22L68.4804 117.88C68.2718 118.096 68.019 118.264 67.7394 118.372C67.4597 118.481 67.1599 118.528 66.8604 118.51C66.5776 118.546 66.2904 118.52 66.0181 118.436C65.7458 118.352 65.4947 118.21 65.2816 118.02C65.0685 117.831 64.8984 117.598 64.7827 117.338C64.6669 117.077 64.6082 116.795 64.6104 116.51C64.6101 116.239 64.6649 115.97 64.7716 115.721C64.8783 115.471 65.0347 115.246 65.2311 115.059C65.4275 114.872 65.66 114.727 65.9143 114.633C66.1686 114.538 66.4395 114.496 66.7104 114.51C66.9772 114.503 67.2427 114.55 67.4911 114.648C67.7396 114.745 67.966 114.891 68.1571 115.078C68.3481 115.264 68.4999 115.487 68.6035 115.733C68.7072 115.979 68.7605 116.243 68.7604 116.51C68.7604 116.59 68.7404 116.71 68.7404 116.81ZM65.7404 116.14H67.6704C67.6129 115.928 67.4872 115.741 67.3128 115.608C67.1384 115.474 66.9249 115.402 66.7054 115.402C66.4859 115.402 66.2725 115.474 66.0981 115.608C65.9237 115.741 65.798 115.928 65.7404 116.14V116.14Z" fill="#263238"/>
<path d="M72.0006 114.46V115.52H71.7406C71.6004 115.519 71.4617 115.548 71.3333 115.604C71.205 115.661 71.0899 115.744 70.9956 115.847C70.9013 115.951 70.8299 116.073 70.7859 116.207C70.742 116.34 70.7266 116.481 70.7406 116.62V118.47H69.6006V114.54H70.6906V115C70.8513 114.814 71.0536 114.668 71.2812 114.574C71.5087 114.48 71.7552 114.441 72.0006 114.46V114.46Z" fill="#263238"/>
<path d="M76.6606 116.2V118.45H75.5206V116.38C75.5206 115.74 75.2306 115.45 74.7206 115.45C74.2106 115.45 73.7806 115.79 73.7806 116.51V118.45H72.6406V114.52H73.7306V115C73.8995 114.828 74.1022 114.693 74.326 114.603C74.5498 114.514 74.7897 114.472 75.0306 114.48C75.2563 114.465 75.4826 114.5 75.6932 114.583C75.9039 114.665 76.0937 114.793 76.2494 114.957C76.405 115.122 76.5225 115.318 76.5936 115.533C76.6646 115.748 76.6875 115.975 76.6606 116.2V116.2Z" fill="#263238"/>
<path d="M81.1707 116.21V118.45H80.1007V118C79.9687 118.191 79.7876 118.343 79.5764 118.44C79.3651 118.537 79.1317 118.575 78.9007 118.55C77.9807 118.55 77.4307 118.04 77.4307 117.36C77.4307 116.68 77.9207 116.18 79.1207 116.18H80.0007C80.0007 115.7 79.7107 115.41 79.0907 115.41C78.684 115.409 78.2877 115.538 77.9607 115.78L77.5507 114.98C78.0563 114.653 78.6487 114.486 79.2507 114.5C80.4707 114.46 81.1707 115 81.1707 116.21ZM80.0307 117.21V116.81H79.2507C78.7107 116.81 78.5507 117.01 78.5507 117.27C78.5507 117.53 78.7907 117.75 79.1907 117.75C79.365 117.755 79.5367 117.706 79.6819 117.609C79.827 117.513 79.9384 117.373 80.0007 117.21H80.0307Z" fill="#263238"/>
<path d="M88.8402 116.2V118.45H87.7002V116.38C87.7002 115.74 87.4202 115.45 86.9602 115.45C86.5002 115.45 86.0902 115.78 86.0902 116.45V118.45H85.0002V116.38C85.0002 115.74 84.7302 115.45 84.2502 115.45C83.7702 115.45 83.3902 115.78 83.3902 116.45V118.45H82.2002V114.52H83.2902V115C83.4448 114.829 83.635 114.694 83.8475 114.604C84.06 114.514 84.2896 114.472 84.5202 114.48C84.7743 114.468 85.0273 114.522 85.2548 114.636C85.4824 114.75 85.677 114.92 85.8202 115.13C85.9899 114.919 86.2066 114.75 86.4532 114.637C86.6997 114.524 86.9692 114.47 87.2402 114.48C87.4644 114.466 87.6889 114.502 87.8975 114.586C88.1061 114.669 88.2937 114.797 88.4467 114.962C88.5997 115.126 88.7144 115.323 88.7824 115.537C88.8504 115.751 88.8702 115.977 88.8402 116.2Z" fill="#263238"/>
<path d="M93.7406 116.81H90.7406C90.7916 117.059 90.9359 117.28 91.144 117.427C91.3521 117.574 91.6084 117.636 91.8606 117.6C92.0443 117.608 92.2277 117.578 92.3996 117.512C92.5714 117.447 92.7283 117.348 92.8606 117.22L93.4606 117.88C93.2528 118.097 93.0002 118.265 92.7203 118.374C92.4405 118.483 92.1403 118.529 91.8406 118.51C91.5586 118.544 91.2725 118.518 91.0014 118.433C90.7303 118.347 90.4805 118.206 90.2685 118.016C90.0566 117.827 89.8874 117.595 89.7722 117.335C89.6571 117.075 89.5986 116.794 89.6006 116.51C89.6003 116.239 89.6552 115.97 89.7619 115.721C89.8686 115.471 90.0249 115.246 90.2213 115.059C90.4178 114.872 90.6502 114.727 90.9045 114.633C91.1588 114.538 91.4297 114.496 91.7006 114.51C92.2311 114.51 92.7398 114.721 93.1149 115.096C93.4899 115.471 93.7006 115.98 93.7006 116.51C93.7606 116.59 93.7506 116.71 93.7406 116.81ZM90.7406 116.14H92.6806C92.6482 115.903 92.5267 115.687 92.341 115.537C92.1552 115.387 91.9191 115.312 91.6806 115.33C91.4528 115.326 91.2316 115.406 91.0598 115.556C90.888 115.706 90.7778 115.914 90.7506 116.14H90.7406Z" fill="#263238"/>
<path d="M101.28 116.45C101.28 117.76 100.68 118.51 99.7801 118.51C99.5669 118.524 99.3548 118.47 99.1748 118.354C98.9948 118.239 98.8565 118.069 98.7801 117.87C98.6473 118.078 98.4615 118.247 98.2418 118.359C98.0221 118.472 97.7765 118.524 97.5301 118.51C97.0726 118.462 96.649 118.247 96.341 117.905C96.0331 117.564 95.8627 117.12 95.8627 116.66C95.8627 116.2 96.0331 115.756 96.341 115.415C96.649 115.073 97.0726 114.858 97.5301 114.81C97.7418 114.8 97.953 114.839 98.1473 114.924C98.3415 115.009 98.5136 115.138 98.6501 115.3V114.87H99.6501V117.23C99.6501 117.58 99.8001 117.7 100 117.7C100.2 117.7 100.54 117.31 100.54 116.47C100.544 116.121 100.475 115.775 100.337 115.455C100.199 115.134 99.9954 114.846 99.7389 114.609C99.4824 114.373 99.1791 114.193 98.8485 114.081C98.5179 113.969 98.1676 113.928 97.8201 113.96C97.1172 113.96 96.4432 114.239 95.9462 114.736C95.4493 115.233 95.1701 115.907 95.1701 116.61C95.1701 117.313 95.4493 117.987 95.9462 118.484C96.4432 118.981 97.1172 119.26 97.8201 119.26C98.3176 119.259 98.8091 119.15 99.2601 118.94L99.4901 119.61C98.9664 119.849 98.3958 119.969 97.8201 119.96C97.3654 119.985 96.9105 119.917 96.483 119.76C96.0555 119.603 95.6645 119.361 95.3339 119.048C95.0032 118.735 94.7399 118.357 94.5599 117.939C94.3799 117.521 94.2871 117.07 94.2871 116.615C94.2871 116.16 94.3799 115.709 94.5599 115.291C94.7399 114.873 95.0032 114.495 95.3339 114.182C95.6645 113.869 96.0555 113.627 96.483 113.47C96.9105 113.313 97.3654 113.245 97.8201 113.27C98.26 113.234 98.7025 113.29 99.1199 113.433C99.5373 113.576 99.9205 113.805 100.245 114.103C100.57 114.402 100.83 114.765 101.008 115.168C101.186 115.572 101.279 116.009 101.28 116.45V116.45ZM98.6701 116.66C98.6844 116.532 98.6711 116.402 98.6311 116.28C98.5911 116.157 98.5252 116.045 98.438 115.95C98.3508 115.855 98.2442 115.78 98.1255 115.73C98.0069 115.68 97.8788 115.656 97.7501 115.66C97.4848 115.66 97.2305 115.765 97.043 115.953C96.8554 116.14 96.7501 116.395 96.7501 116.66C96.7501 116.925 96.8554 117.18 97.043 117.367C97.2305 117.555 97.4848 117.66 97.7501 117.66C97.8788 117.664 98.0069 117.64 98.1255 117.59C98.2442 117.539 98.3508 117.464 98.438 117.37C98.5252 117.275 98.5911 117.162 98.6311 117.04C98.6711 116.918 98.6844 116.788 98.6701 116.66V116.66Z" fill="#263238"/>
<path d="M108.73 116.2V118.45H107.59V116.38C107.59 115.74 107.31 115.45 106.85 115.45C106.39 115.45 105.98 115.78 105.98 116.45V118.45H104.84V116.38C104.84 115.74 104.57 115.45 104.09 115.45C103.61 115.45 103.23 115.78 103.23 116.45V118.45H102.09V114.52H103.18V115C103.334 114.829 103.525 114.693 103.737 114.604C103.95 114.514 104.179 114.472 104.41 114.48C104.664 114.468 104.917 114.522 105.144 114.636C105.372 114.75 105.567 114.92 105.71 115.13C105.878 114.919 106.093 114.751 106.338 114.638C106.583 114.525 106.85 114.471 107.12 114.48C107.345 114.465 107.57 114.499 107.78 114.582C107.99 114.665 108.179 114.793 108.333 114.958C108.487 115.122 108.603 115.319 108.672 115.534C108.74 115.749 108.76 115.976 108.73 116.2V116.2Z" fill="#263238"/>
<path d="M113.23 116.21V118.45H112.17V118C112.038 118.191 111.857 118.343 111.646 118.44C111.434 118.537 111.201 118.575 110.97 118.55C110.05 118.55 109.5 118.04 109.5 117.36C109.5 116.68 109.99 116.18 111.19 116.18H112.09C112.09 115.7 111.8 115.41 111.19 115.41C110.783 115.405 110.385 115.535 110.06 115.78L109.65 114.98C110.153 114.655 110.741 114.488 111.34 114.5C112.54 114.46 113.23 115 113.23 116.21ZM112.09 117.21V116.81H111.31C110.78 116.81 110.61 117.01 110.61 117.27C110.61 117.53 110.85 117.75 111.25 117.75C111.429 117.762 111.608 117.716 111.759 117.618C111.91 117.521 112.026 117.378 112.09 117.21V117.21Z" fill="#263238"/>
<path d="M114.13 113.34C114.131 113.25 114.15 113.162 114.187 113.08C114.224 112.998 114.278 112.925 114.345 112.864C114.411 112.804 114.49 112.759 114.575 112.73C114.66 112.702 114.75 112.692 114.84 112.7C114.963 112.713 115.079 112.762 115.174 112.84C115.27 112.918 115.341 113.022 115.379 113.14C115.417 113.257 115.42 113.383 115.388 113.502C115.356 113.621 115.29 113.729 115.198 113.812C115.107 113.894 114.993 113.949 114.871 113.968C114.749 113.988 114.624 113.971 114.511 113.922C114.399 113.872 114.302 113.79 114.235 113.687C114.167 113.584 114.131 113.463 114.13 113.34V113.34ZM114.27 114.52H115.4V118.45H114.27V114.52Z" fill="#263238"/>
<path d="M116.471 113H117.611V118.42H116.471V113Z" fill="#263238"/>
<path d="M118.391 117.8C118.391 117.612 118.465 117.431 118.599 117.298C118.732 117.165 118.912 117.09 119.101 117.09C119.289 117.09 119.47 117.165 119.603 117.298C119.736 117.431 119.811 117.612 119.811 117.8C119.811 117.988 119.736 118.169 119.603 118.302C119.47 118.435 119.289 118.51 119.101 118.51C118.912 118.51 118.732 118.435 118.599 118.302C118.465 118.169 118.391 117.988 118.391 117.8V117.8Z" fill="#263238"/>
<path d="M120.24 116.49C120.239 116.211 120.296 115.934 120.408 115.678C120.521 115.422 120.685 115.193 120.891 115.004C121.098 114.816 121.341 114.673 121.606 114.584C121.871 114.495 122.152 114.463 122.43 114.49C122.79 114.46 123.151 114.539 123.465 114.717C123.779 114.896 124.032 115.165 124.19 115.49L123.31 115.96C123.209 115.811 123.071 115.691 122.91 115.61C122.748 115.53 122.569 115.493 122.389 115.502C122.209 115.511 122.035 115.566 121.882 115.662C121.73 115.758 121.605 115.891 121.519 116.049C121.433 116.208 121.389 116.385 121.392 116.566C121.394 116.746 121.443 116.922 121.534 117.078C121.624 117.234 121.754 117.363 121.909 117.455C122.064 117.546 122.24 117.596 122.42 117.6C122.604 117.6 122.784 117.55 122.941 117.455C123.098 117.36 123.226 117.223 123.31 117.06L124.19 117.54C124.03 117.863 123.777 118.131 123.463 118.309C123.149 118.487 122.79 118.568 122.43 118.54C122.148 118.567 121.863 118.534 121.594 118.442C121.326 118.351 121.08 118.203 120.872 118.009C120.665 117.815 120.502 117.58 120.393 117.318C120.284 117.056 120.232 116.774 120.24 116.49V116.49Z" fill="#263238"/>
<path d="M124.51 116.49C124.478 116.057 124.577 115.625 124.794 115.25C125.011 114.874 125.336 114.572 125.726 114.384C126.117 114.196 126.556 114.13 126.985 114.194C127.413 114.258 127.813 114.45 128.131 114.745C128.45 115.04 128.672 115.423 128.769 115.846C128.866 116.269 128.834 116.711 128.676 117.115C128.518 117.519 128.243 117.867 127.885 118.112C127.527 118.357 127.104 118.489 126.67 118.49C126.394 118.512 126.117 118.477 125.855 118.386C125.594 118.296 125.354 118.152 125.151 117.964C124.948 117.776 124.786 117.548 124.676 117.294C124.565 117.04 124.509 116.767 124.51 116.49ZM127.67 116.49C127.652 116.297 127.579 116.113 127.459 115.961C127.339 115.809 127.178 115.695 126.994 115.633C126.811 115.571 126.613 115.563 126.425 115.611C126.238 115.66 126.068 115.761 125.937 115.904C125.806 116.047 125.719 116.225 125.687 116.416C125.656 116.607 125.68 116.803 125.758 116.981C125.835 117.158 125.963 117.309 126.125 117.416C126.287 117.522 126.476 117.579 126.67 117.58C126.809 117.581 126.947 117.552 127.075 117.496C127.202 117.44 127.317 117.359 127.411 117.256C127.505 117.153 127.577 117.032 127.621 116.9C127.666 116.768 127.682 116.629 127.67 116.49Z" fill="#263238"/>
<path d="M136.23 116.2V118.45H135.09V116.38C135.09 115.74 134.8 115.45 134.34 115.45C133.88 115.45 133.47 115.78 133.47 116.45V118.45H132.33V116.38C132.33 115.74 132.06 115.45 131.59 115.45C131.12 115.45 130.73 115.78 130.73 116.45V118.45H129.59V114.52H130.67V115C130.826 114.829 131.018 114.693 131.233 114.603C131.447 114.514 131.678 114.471 131.91 114.48C132.163 114.467 132.415 114.52 132.641 114.634C132.867 114.748 133.06 114.919 133.2 115.13C133.371 114.92 133.588 114.752 133.834 114.639C134.08 114.526 134.349 114.472 134.62 114.48C134.845 114.465 135.07 114.499 135.28 114.582C135.49 114.665 135.679 114.793 135.833 114.958C135.987 115.122 136.103 115.319 136.172 115.534C136.24 115.749 136.26 115.976 136.23 116.2V116.2Z" fill="#263238"/>
<path d="M70.5702 143.59L72.4202 144.59L71.5902 145.98L69.7202 144.88V146.94H68.1202V144.86L66.3102 146L65.4902 144.61L67.3502 143.61L65.4902 142.61L66.3102 141.22L68.1802 142.34V140.27H69.7802V142.34L71.6502 141.22L72.4802 142.61L70.5702 143.59Z" fill="#263238"/>
<path d="M78.2807 143.59L80.1307 144.59L79.3007 146L77.4307 144.9V146.96H75.8407V144.88L74.0007 146L73.1807 144.61L75.0307 143.61L73.1807 142.61L74.0007 141.22L75.8707 142.34V140.27H77.4607V142.34L79.3307 141.22L80.1607 142.61L78.2807 143.59Z" fill="#263238"/>
<path d="M86.0002 143.59L87.8502 144.59L87.0002 146L85.1402 144.9V146.96H83.5402V144.88L81.7202 146L80.9102 144.61L82.7602 143.61L80.9102 142.61L81.7202 141.22L83.5901 142.34V140.27H85.1902V142.34L87.0501 141.22L87.8902 142.61L86.0002 143.59Z" fill="#263238"/>
<path d="M93.6904 143.59L95.5404 144.59L94.7104 145.98L92.8404 144.88V146.94H91.2404V144.86L89.4304 146L88.6104 144.61L90.4704 143.61L88.6104 142.61L89.4304 141.22L91.3004 142.34V140.27H92.9004V142.34L94.7704 141.22L95.6004 142.61L93.6904 143.59Z" fill="#263238"/>
<path d="M101.4 143.59L103.25 144.59L102.42 145.98L100.55 144.88V146.94H99.0003V144.86L97.1403 146L96.3203 144.61L98.1703 143.61L96.3203 142.61L97.1403 141.22L99.0003 142.3V140.23H100.59V142.3L102.46 141.18L103.29 142.57L101.4 143.59Z" fill="#263238"/>
<path d="M109.11 143.59L110.96 144.59L110.13 145.98L108.26 144.88V146.94H106.66V144.86L104.84 146L104.03 144.61L105.88 143.61L104.03 142.61L104.84 141.22L106.71 142.34V140.27H108.31V142.34L110.18 141.22L111.01 142.61L109.11 143.59Z" fill="#263238"/>
<path d="M116.81 143.59L118.66 144.59L117.83 145.98L115.96 144.88V146.94H114.36V144.86L112.55 146L111.73 144.61L113.59 143.61L111.73 142.61L112.55 141.22L114.42 142.34V140.27H116V142.34L117.87 141.22L118.7 142.61L116.81 143.59Z" fill="#263238"/>
<path d="M124.52 143.59L126.37 144.59L125.54 145.98L123.67 144.88V146.94H122.08V144.86L120.26 146L119.44 144.61L121.29 143.61L119.44 142.61L120.26 141.22L122.13 142.34V140.27H123.72V142.34L125.59 141.22L126.42 142.61L124.52 143.59Z" fill="#263238"/>
</svg>
