<svg width="500" height="500" viewBox="0 0 500 500" fill="none" xmlns="http://www.w3.org/2000/svg">
<path d="M431.67 117.79C434.047 116.74 436.064 115.016 437.472 112.832C438.879 110.648 439.616 108.099 439.59 105.5C439.59 98.16 434.06 92.19 427.18 92.16C420.3 92.13 414.7 98.05 414.67 105.39C414.621 108.01 415.349 110.586 416.762 112.792C418.175 114.999 420.21 116.738 422.61 117.79C403.44 120.68 404.31 141.52 404.31 141.52L449.64 141.73C449.64 141.73 450.68 120.66 431.67 117.79Z" fill="#F5F5F5"/>
<path d="M163.82 39.92L134.19 29.44L104.85 39.78C101.11 41.52 97.8499 42.56 97.8499 46V63.11C97.8131 75.127 101.165 86.911 107.52 97.11C113.916 107.506 123.337 115.698 134.52 120.59C146.52 116.75 155.46 106.53 160.94 97.78C167.288 87.5782 170.635 75.7954 170.6 63.78V48.39C170.56 43.49 167.92 41.1 163.82 39.92Z" fill="#F5F5F5"/>
<path d="M144 67.54C144.007 66.0131 143.587 64.5145 142.789 63.2131C141.99 61.9117 140.844 60.8591 139.479 60.1739C138.115 59.4887 136.586 59.1981 135.065 59.3348C133.544 59.4716 132.092 60.0303 130.872 60.9479C129.651 61.8656 128.711 63.1058 128.158 64.5288C127.604 65.9518 127.459 67.5011 127.738 69.0023C128.017 70.5034 128.71 71.8968 129.739 73.0253C130.767 74.1539 132.091 74.9728 133.56 75.39V87.66H138.04V75.39C139.752 74.9088 141.261 73.8818 142.337 72.4649C143.412 71.0481 143.996 69.3189 144 67.54Z" fill="#EBEBEB"/>
<path d="M415.74 198.49L420.79 201.23L418.52 205.03L413.42 202.03L413.52 207.64H409.16V201.98L404.11 205L401.88 201.2L406.93 198.46L401.88 195.68L404.11 191.88L409.2 195V189.34H413.56L413.46 195L418.56 191.94L420.83 195.74L415.74 198.49Z" fill="#E0E0E0"/>
<path d="M436.78 198.49L441.83 201.23L439.56 205.03L434.46 202.03L434.56 207.64H430.2L430.25 201.98L425.15 205.04L422.92 201.24L427.97 198.5L422.92 195.72L425.15 191.92L430.25 194.98L430.2 189.32H434.56L434.46 194.98L439.56 191.92L441.83 195.72L436.78 198.49Z" fill="#E0E0E0"/>
<path d="M457.82 198.49L462.88 201.23L460.61 205.03L455.51 202.03L455.6 207.64H451.24L451.29 201.98L446.19 205.04L443.96 201.24L449.02 198.5L444 195.71L446.23 191.91L451.33 194.97L451.28 189.31H455.64L455.55 194.97L460.65 191.91L462.92 195.71L457.82 198.49Z" fill="#E0E0E0"/>
<path d="M243.74 437.86V468.92H289.16H339.26V437.86H243.74Z" fill="#F5F5F5"/>
<path d="M239.729 429.17V437.86H342.6V429.17H289.16H239.729Z" fill="#EBEBEB"/>
<path d="M291.16 468.92H339.26V437.86H342.6V429.17H289.16V437.05L291.16 468.92Z" fill="#EBEBEB"/>
<path d="M276.47 442.86H257.1V447.54H276.47V442.86Z" fill="#E0E0E0"/>
<path d="M279.48 453.39H254.6V463.26H279.48V453.39Z" fill="white"/>
<path d="M258.43 398.15V429.21H303.86H353.96V398.15H258.43Z" fill="#F5F5F5"/>
<path d="M254.42 389.46V398.15H357.3V389.46H303.86H254.42Z" fill="#EBEBEB"/>
<path d="M305.86 429.21H353.96V398.15H357.3V389.46H303.86V397.35L305.86 429.21Z" fill="#EBEBEB"/>
<path d="M291.16 403.16H271.79V407.84H291.16V403.16Z" fill="#E0E0E0"/>
<path d="M294.18 413.68H269.3V423.55H294.18V413.68Z" fill="white"/>
<path d="M464.07 469.16C464.07 469.3 368.22 469.42 250.01 469.42C131.8 469.42 35.9297 469.3 35.9297 469.16C35.9297 469.02 131.76 468.9 250.01 468.9C368.26 468.9 464.07 469 464.07 469.16Z" fill="#263238"/>
<path d="M70.6098 468.56H61.6598L58.3398 428.25H68.8798L70.6098 468.56Z" fill="#263238"/>
<path d="M148.21 468.56H157.16L160.48 428.25H149.94L148.21 468.56Z" fill="#263238"/>
<path d="M166.63 433.36L51.3896 436.06L47.8896 361.63C47.807 359.903 48.0759 358.178 48.6799 356.558C49.284 354.938 50.2106 353.458 51.4037 352.207C52.5967 350.956 54.0314 349.96 55.6207 349.28C57.21 348.6 58.9209 348.249 60.6496 348.25H158.84C160.592 348.25 162.326 348.61 163.933 349.309C165.54 350.007 166.987 351.029 168.183 352.31C169.378 353.591 170.298 355.104 170.884 356.756C171.47 358.407 171.71 360.162 171.59 361.91L166.63 433.36Z" fill="#FF725E"/>
<path d="M172.54 361.38H172.22H171.27L167.64 361.44H154.28C143 361.44 127.42 361.34 110.22 361.74C93.0097 362.31 77.4096 362.21 66.1396 362.04C60.4996 361.95 55.9296 361.84 52.7796 361.74L49.1497 361.62H48.2096C48.1034 361.634 47.9959 361.634 47.8896 361.62H48.2096H49.1497H52.7796L66.1396 361.75C77.4196 361.83 92.9996 361.87 110.21 361.29C127.42 360.9 143 361.08 154.28 361.16L167.64 361.27L171.27 361.32H172.22L172.54 361.38Z" fill="#263238"/>
<path d="M89.9195 349.41C87.3292 349.789 84.8089 350.547 82.4395 351.66C80.1451 352.922 78.0521 354.52 76.2295 356.4C76.5965 355.703 77.0801 355.074 77.6595 354.54C80.3176 351.806 83.8053 350.027 87.5795 349.48C88.3493 349.319 89.1414 349.295 89.9195 349.41Z" fill="#263238"/>
<path d="M137.319 214.08L151.399 239.81L171.999 228.27L181.999 231.58C181.999 231.58 156.759 259 152.649 260.43C148.539 261.86 140.759 262.09 136.319 256.52C132.319 251.45 120.479 224.85 120.479 224.85L137.319 214.08Z" fill="#FFBE9D"/>
<path d="M195.31 197.28C195.129 197.058 194.895 196.887 194.628 196.781C194.362 196.676 194.074 196.641 193.79 196.68L184 198C183.574 198.064 183.168 198.218 182.807 198.453C182.446 198.687 182.14 198.997 181.91 199.36L161.5 230.71L163.06 231.58L173.92 231.24L195.62 197.67L195.31 197.28Z" fill="#263238"/>
<path d="M188.359 201.35C188.438 201.474 188.553 201.57 188.689 201.625C188.825 201.68 188.975 201.691 189.118 201.656C189.26 201.622 189.388 201.543 189.484 201.431C189.579 201.32 189.637 201.181 189.649 201.035C189.661 200.888 189.627 200.742 189.551 200.616C189.476 200.49 189.363 200.391 189.228 200.333C189.093 200.275 188.943 200.261 188.8 200.293C188.657 200.325 188.527 200.401 188.429 200.51C188.314 200.615 188.243 200.761 188.23 200.916C188.217 201.072 188.263 201.227 188.359 201.35Z" fill="white"/>
<path d="M195.62 197.67C194.998 197.844 194.362 197.968 193.72 198.04L188.52 198.85L184.93 199.37C184.625 199.397 184.331 199.492 184.068 199.648C183.805 199.804 183.58 200.016 183.41 200.27L182.25 202.07C180.64 204.54 178.89 207.25 177.05 210.07C173.34 215.75 169.96 220.88 167.48 224.58L164.53 229C164.187 229.549 163.802 230.07 163.38 230.56C163.661 229.971 163.996 229.409 164.38 228.88L167.18 224.42C169.57 220.66 172.89 215.5 176.6 209.82C178.46 206.99 180.23 204.29 181.84 201.82C182.25 201.21 182.65 200.61 183.03 200.02C183.243 199.714 183.521 199.458 183.844 199.271C184.168 199.085 184.528 198.972 184.9 198.94L188.51 198.48L193.74 197.86C194.361 197.747 194.989 197.684 195.62 197.67Z" fill="#455A64"/>
<path d="M184.73 208.86C184.73 208.86 183.86 208.71 183.38 211.1C182.9 213.49 181.38 220.35 181.38 220.35L176.8 217.92L171.06 218.67C171.06 218.67 169.81 219.82 170.73 220.45C171.65 221.08 175.27 221.72 175.27 221.72L177.94 225.57L170.27 221.87C170.27 221.87 167.71 222.54 168.46 224.1C169.21 225.66 174.38 230.55 174.38 230.55L170.54 230.26L166 227.48C166 227.48 164.6 227.55 165.12 228.74C165.64 229.93 170.4 234.25 170.4 234.25L176.16 237.05C176.16 237.05 179.31 236.8 179.61 235.87C179.813 235.138 179.941 234.388 179.99 233.63C179.99 233.63 181.66 233.18 181.99 232.37C182.173 231.689 182.211 230.977 182.1 230.28C182.1 230.28 184.72 230.74 185.05 229.28C185.279 227.46 185.205 225.615 184.83 223.82C184.57 222.69 185.95 212.24 185.83 211.93C185.71 211.62 186.38 208.17 184.73 208.86Z" fill="#FFBE9D"/>
<path d="M179.76 235.89C179.304 236.163 178.79 236.321 178.26 236.35C175.704 236.721 173.104 236.102 170.99 234.62C170.2 234.05 169.81 233.62 169.86 233.53C169.91 233.44 171.79 234.96 174.59 235.61C177.39 236.26 179.73 235.71 179.76 235.89Z" fill="#EB996E"/>
<path d="M178.4 233.82C178.31 233.95 177.28 233.42 176.19 232.52C175.1 231.62 174.38 230.73 174.49 230.62C174.6 230.51 175.49 231.19 176.57 232.07C177.65 232.95 178.49 233.68 178.4 233.82Z" fill="#EB996E"/>
<path d="M181.429 228.85C181.339 228.98 180.319 228.46 179.299 227.51C178.279 226.56 177.679 225.6 177.799 225.51C177.919 225.42 178.719 226.18 179.699 227.09C180.679 228 181.519 228.71 181.429 228.85Z" fill="#EB996E"/>
<path d="M184.619 224.84C184.459 224.91 183.879 223.84 182.969 222.65C182.059 221.46 181.169 220.65 181.269 220.49C181.369 220.33 182.469 221.03 183.429 222.29C184.087 222.992 184.504 223.885 184.619 224.84Z" fill="#EB996E"/>
<path d="M188.509 410.3C188.586 409.988 188.586 409.662 188.509 409.35C188.347 408.486 188.007 407.665 187.509 406.94C187.347 406.689 187.156 406.457 186.939 406.25C186.798 406.116 186.623 406.023 186.433 405.981C186.242 405.939 186.044 405.949 185.859 406.01C185.751 406.048 185.652 406.11 185.57 406.191C185.489 406.272 185.427 406.371 185.389 406.48C185.319 406.688 185.319 406.912 185.389 407.12C185.526 407.468 185.693 407.802 185.889 408.12C186.259 408.75 186.57 409.37 187.05 410.12C187.189 410.321 187.382 410.481 187.605 410.581C187.829 410.682 188.076 410.719 188.32 410.69C188.767 410.61 189.188 410.425 189.549 410.15C190.212 409.664 190.816 409.104 191.35 408.48C191.607 408.184 191.847 407.873 192.07 407.55C192.313 407.234 192.493 406.874 192.6 406.49C192.659 406.264 192.638 406.024 192.539 405.812C192.441 405.6 192.271 405.43 192.059 405.33C191.862 405.272 191.652 405.265 191.451 405.31C191.249 405.356 191.063 405.452 190.91 405.59C190.452 405.989 190.049 406.447 189.71 406.95C189.206 407.657 188.806 408.431 188.52 409.25C188.388 409.539 188.32 409.853 188.32 410.17C188.793 409.118 189.366 408.114 190.029 407.17C190.368 406.72 190.758 406.311 191.189 405.95C191.419 405.79 191.699 405.68 191.869 405.77C191.968 405.828 192.044 405.919 192.084 406.026C192.124 406.133 192.126 406.251 192.089 406.36C191.986 406.673 191.827 406.964 191.619 407.22C191.409 407.52 191.179 407.81 190.939 408.1C190.422 408.681 189.846 409.208 189.219 409.67C188.927 409.896 188.584 410.047 188.219 410.11C188.07 410.128 187.919 410.104 187.783 410.041C187.647 409.977 187.531 409.876 187.449 409.75C187.059 409.18 186.679 408.47 186.309 407.88C186.139 407.57 185.929 407.27 185.829 407.02C185.729 406.77 185.829 406.57 185.979 406.49C186.409 406.32 186.84 406.81 187.13 407.22C187.78 408.15 188.248 409.196 188.509 410.3Z" fill="#263238"/>
<path d="M163.94 411.14L151.74 437.59L132.05 428.49L144.67 395.76L163.94 411.14Z" fill="#FFBE9D"/>
<path d="M154 435.82L146.87 449.42C146.87 449.42 165.12 468.29 163.41 472.51L120.51 451.94L132.29 424.67L154 435.82Z" fill="#455A64"/>
<path d="M134.54 441.2C134.068 441.14 133.591 441.25 133.193 441.511C132.796 441.771 132.504 442.164 132.37 442.62C132.279 443.09 132.373 443.576 132.632 443.978C132.891 444.381 133.295 444.668 133.76 444.78C134.26 444.856 134.771 444.743 135.194 444.464C135.617 444.186 135.922 443.76 136.05 443.27C136.092 442.769 135.939 442.272 135.621 441.882C135.304 441.492 134.848 441.24 134.35 441.18" fill="#E0E0E0"/>
<g opacity="0.6">
<path opacity="0.6" d="M120.55 451.94L122.33 448.52L162.8 469.52C162.8 469.52 164.31 471.26 163.45 472.52L120.55 451.94Z" fill="white"/>
</g>
<path d="M147.709 449.53C147.609 449.74 146.509 449.33 145.159 449.53C143.809 449.73 142.829 450.33 142.679 450.15C142.529 449.97 143.419 448.92 145.059 448.73C146.699 448.54 147.849 449.36 147.709 449.53Z" fill="#263238"/>
<path d="M151.319 453.55C151.319 453.78 150.189 453.7 149.059 454.24C147.929 454.78 147.269 455.63 147.059 455.52C146.849 455.41 147.289 454.16 148.719 453.52C150.149 452.88 151.409 453.35 151.319 453.55Z" fill="#263238"/>
<path d="M151.29 460.16C151.08 460.16 151.29 458.93 152.38 458.04C153.47 457.15 154.67 457.16 154.67 457.38C154.67 457.6 153.78 457.92 152.89 458.66C152 459.4 151.51 460.24 151.29 460.16Z" fill="#263238"/>
<path d="M149.76 444.3C149.58 444.45 148.76 443.7 147.54 443.21C146.32 442.72 145.21 442.65 145.19 442.42C145.17 442.19 146.41 441.87 147.84 442.42C149.27 442.97 149.94 444.18 149.76 444.3Z" fill="#263238"/>
<path d="M158.06 432.29L190.23 351.8C190.23 351.8 189.5 338.06 186.97 333.73C184.44 329.4 107.82 304.09 107.82 304.09C107.82 304.09 88.3099 299.39 75.2899 304.09C62.2699 308.79 52.5199 325.09 54.2899 334.09C56.0599 343.09 63.7199 349.76 63.7199 349.76L120.07 351.44L150.78 362.64L130.1 421.91L158.06 432.29Z" fill="#263238"/>
<path d="M186.67 377.29L187.4 406.4L165.71 406.94L162.59 372L186.67 377.29Z" fill="#FFBE9D"/>
<path d="M188.69 403.8L188.29 419.15C188.29 419.15 212.99 428.02 213.29 432.57L165.72 433.05L164.25 403.38L188.69 403.8Z" fill="#455A64"/>
<path d="M173.56 417.24C173.103 417.384 172.716 417.691 172.473 418.102C172.229 418.514 172.146 419.001 172.24 419.47C172.367 419.931 172.666 420.326 173.075 420.573C173.484 420.82 173.972 420.902 174.44 420.8C174.922 420.645 175.329 420.317 175.584 419.88C175.839 419.442 175.923 418.926 175.82 418.43C175.64 417.961 175.284 417.581 174.829 417.37C174.373 417.159 173.853 417.134 173.38 417.3" fill="#E0E0E0"/>
<g opacity="0.6">
<path opacity="0.6" d="M165.75 433.05L165.84 429.19L211.42 430.19C211.42 430.19 213.54 431.09 213.32 432.59L165.75 433.05Z" fill="white"/>
</g>
<path d="M189.06 418.9C189.06 419.13 187.89 419.25 186.76 420.01C185.63 420.77 185.02 421.75 184.81 421.66C184.6 421.57 184.93 420.22 186.32 419.33C187.71 418.44 189.11 418.69 189.06 418.9Z" fill="#263238"/>
<path d="M194.069 420.91C194.129 421.14 193.119 421.54 192.339 422.53C191.559 423.52 191.339 424.53 191.119 424.53C190.899 424.53 190.719 423.21 191.719 421.99C192.719 420.77 194.059 420.69 194.069 420.91Z" fill="#263238"/>
<path d="M197 426.86C196.79 426.91 196.46 425.75 197 424.47C197.54 423.19 198.67 422.68 198.77 422.87C198.87 423.06 198.2 423.75 197.77 424.8C197.34 425.85 197.19 426.83 197 426.86Z" fill="#263238"/>
<path d="M188.579 413.3C188.489 413.51 187.419 413.2 186.109 413.3C184.799 413.4 183.779 413.83 183.649 413.63C183.519 413.43 184.499 412.63 186.049 412.5C187.599 412.37 188.699 413.11 188.579 413.3Z" fill="#263238"/>
<path d="M173.999 296.45C173.999 296.45 186.999 295.45 188.439 309.51C189.879 323.57 191.299 389.39 191.299 389.39L160.999 391.92L156.299 324.69L107.869 304.09C107.869 304.09 165.329 294.65 173.999 296.45Z" fill="#263238"/>
<path d="M120.459 277.43C120.459 277.43 128.339 299.54 126.839 302C125.339 304.46 105.069 314.6 105.069 314.6L54.3291 334.09C54.3291 334.09 49.1191 325.8 49.1191 313.09C49.1191 300.38 66.7691 277.45 66.7691 277.45L120.459 277.43Z" fill="#263238"/>
<path d="M105.42 303C105.495 303.052 105.576 303.095 105.66 303.13L106.38 303.46L109.19 304.71L119.74 309.31L156.15 324.98L155.98 324.75C156.44 331.39 156.98 338.56 157.45 345.98C158.69 363.33 159.83 379.32 160.73 391.98V392.21H160.96L183.08 390.27L189.17 389.7L190.76 389.54L191.3 389.46C191.117 389.445 190.933 389.445 190.75 389.46L189.16 389.56L183.06 390.01L160.92 391.75L161.17 391.96C160.3 379.31 159.17 363.31 158.01 345.96C157.49 338.54 157.01 331.37 156.51 324.73V324.57L156.36 324.5L119.87 309L109.26 304.56L106.42 303.39L105.68 303.1C105.596 303.06 105.509 303.027 105.42 303Z" fill="#455A64"/>
<path d="M65.0693 305.17C65.5581 305.094 66.0374 304.967 66.4993 304.79L70.3193 303.55C74.4885 302.141 78.7616 301.061 83.0993 300.32C87.4391 299.612 91.8694 299.669 96.1893 300.49C99.4893 301.18 101.389 302.12 101.429 302.01C101.019 301.732 100.576 301.507 100.109 301.34C98.8702 300.819 97.5889 300.404 96.2793 300.1C91.9139 299.149 87.4077 299.033 82.9993 299.76C78.6267 300.499 74.3317 301.64 70.1693 303.17C68.5693 303.74 67.2893 304.23 66.3993 304.58C65.9405 304.74 65.4957 304.937 65.0693 305.17Z" fill="#455A64"/>
<path d="M72.2393 293.52C73.7179 293.43 75.2006 293.43 76.6793 293.52C78.0493 293.61 79.6793 293.82 81.4793 294.03C83.2793 294.24 85.2693 294.49 87.3293 294.88C90.8539 295.441 94.2324 296.695 97.2693 298.57C98.4811 299.414 99.6338 300.339 100.719 301.34C100.52 300.989 100.271 300.669 99.9793 300.39C99.2294 299.582 98.3946 298.858 97.4893 298.23C94.4535 296.224 91.0232 294.89 87.4293 294.32C85.3493 293.93 83.3493 293.7 81.5393 293.51C79.7293 293.32 78.0893 293.16 76.6993 293.12C75.6039 293.072 74.5065 293.118 73.4193 293.26C73.0155 293.29 72.6181 293.377 72.2393 293.52Z" fill="#455A64"/>
<path d="M94.6494 115.88C88.8194 114.88 83.6494 117.13 78.7594 120.42C73.7546 123.938 69.9406 128.897 67.8254 134.637C65.7101 140.377 65.3941 146.626 66.9194 152.55C67.7639 155.561 69.2094 158.369 71.1686 160.806C73.1279 163.243 75.5603 165.258 78.3194 166.73C85.9094 170.58 95.6194 169.24 102.419 164.1C109.219 158.96 113.089 150.47 113.419 141.96C113.734 136.058 112.188 130.206 108.999 125.23C107.383 122.772 105.277 120.673 102.813 119.064C100.349 117.455 97.5805 116.371 94.6794 115.88" fill="#263238"/>
<path d="M78.0497 135.73C78.9097 133.49 78.5697 131 78.9097 128.63C79.6597 123.42 83.9097 119.24 88.7097 117.21C93.2297 115.32 98.7097 115.73 104.19 117.49C107.97 118.636 111.345 120.835 113.92 123.83C115.558 125.862 116.686 128.257 117.208 130.815C117.73 133.373 117.631 136.018 116.92 138.53L90.2597 134.65C87.7597 136.71 85.1997 138.82 82.1697 139.97C81.2963 140.353 80.3388 140.505 79.3897 140.41C78.9169 140.354 78.4704 140.163 78.1033 139.859C77.7362 139.556 77.4642 139.154 77.3197 138.7C77.0797 137.69 77.6797 136.7 78.0497 135.73Z" fill="#263238"/>
<path d="M104.76 124.85L81.4799 129.79C80.401 129.862 79.3874 130.333 78.6368 131.111C77.8862 131.889 77.4523 132.919 77.4199 134L77.6999 184.39C77.7235 187.83 78.8758 191.168 80.9799 193.89L83.1999 196.75C88.2699 203.28 98.5199 202.62 102.39 195.32C102.627 194.905 102.808 194.462 102.93 194C103 193.55 103.12 193.25 103.14 192.87L103.59 187.95C103.81 183.47 103.85 178.95 103.85 178.95C103.85 178.95 113.38 177.75 115.85 165.47C117.06 159.37 117.14 149.28 116.94 141.03C116.73 133.64 112.18 124.36 104.76 124.85Z" fill="#FFBE9D"/>
<path d="M113.369 150.53C113.356 150.942 113.183 151.333 112.886 151.619C112.588 151.904 112.191 152.063 111.779 152.06C111.577 152.069 111.375 152.038 111.185 151.968C110.994 151.897 110.821 151.789 110.673 151.65C110.526 151.511 110.408 151.344 110.326 151.158C110.245 150.973 110.202 150.773 110.199 150.57C110.215 150.158 110.389 149.768 110.685 149.481C110.981 149.194 111.377 149.032 111.789 149.03C111.992 149.022 112.195 149.055 112.385 149.126C112.575 149.198 112.749 149.307 112.896 149.446C113.043 149.586 113.161 149.754 113.242 149.94C113.324 150.126 113.367 150.327 113.369 150.53Z" fill="#263238"/>
<path d="M114.53 146.22C114.32 146.42 113.16 145.49 111.45 145.43C109.74 145.37 108.45 146.17 108.29 145.95C108.13 145.73 108.41 145.49 108.97 145.12C109.728 144.633 110.62 144.395 111.52 144.44C112.404 144.47 113.255 144.782 113.95 145.33C114.46 145.76 114.63 146.14 114.53 146.22Z" fill="#263238"/>
<path d="M98.0897 150.14C98.0792 150.554 97.9068 150.947 97.6094 151.235C97.3121 151.523 96.9136 151.683 96.4997 151.68C96.2981 151.688 96.0969 151.656 95.908 151.585C95.7192 151.514 95.5465 151.405 95.4001 151.266C95.2538 151.128 95.1367 150.961 95.0559 150.776C94.9751 150.591 94.9322 150.392 94.9297 150.19C94.9401 149.778 95.1112 149.386 95.4064 149.099C95.7015 148.811 96.0975 148.65 96.5097 148.65C96.7118 148.642 96.9135 148.674 97.1029 148.745C97.2923 148.816 97.4657 148.924 97.6128 149.063C97.76 149.202 97.8779 149.368 97.9598 149.553C98.0417 149.738 98.0859 149.938 98.0897 150.14Z" fill="#263238"/>
<path d="M98.3393 145.81C98.1293 146.01 96.9693 145.07 95.2593 145.01C93.5493 144.95 92.2593 145.75 92.0993 145.54C91.9393 145.33 92.2193 145.08 92.7893 144.7C93.5471 144.22 94.4332 143.983 95.3293 144.02C96.2171 144.056 97.071 144.371 97.7693 144.92C98.2693 145.34 98.4393 145.72 98.3393 145.81Z" fill="#263238"/>
<path d="M103.45 158.77C104.362 158.535 105.298 158.404 106.24 158.38C106.68 158.38 107.09 158.28 107.18 157.99C107.231 157.542 107.148 157.09 106.94 156.69C106.57 155.62 106.18 154.5 105.78 153.32C104.17 148.53 103.03 144.6 103.22 144.54C103.41 144.48 104.88 148.31 106.48 153.1C106.86 154.28 107.23 155.4 107.58 156.48C107.837 157.016 107.894 157.626 107.74 158.2C107.669 158.35 107.566 158.483 107.438 158.588C107.311 158.694 107.161 158.769 107 158.81C106.757 158.86 106.508 158.884 106.26 158.88C105.322 158.968 104.378 158.931 103.45 158.77Z" fill="#263238"/>
<path d="M103.849 179C98.0301 178.867 92.3624 177.119 87.4795 173.95C87.4795 173.95 91.2995 182.66 103.709 181.95L103.849 179Z" fill="#EB996E"/>
<path d="M102.569 162.85C102.261 162.429 101.85 162.095 101.375 161.878C100.901 161.661 100.379 161.569 99.8591 161.61C99.4749 161.63 99.099 161.73 98.7549 161.902C98.4108 162.074 98.1059 162.315 97.8591 162.61C97.625 162.882 97.4786 163.219 97.4394 163.576C97.4001 163.933 97.4697 164.293 97.6391 164.61C97.9016 164.925 98.2518 165.155 98.6453 165.271C99.0388 165.387 99.4578 165.383 99.8491 165.26C100.667 165.008 101.426 164.593 102.079 164.04C102.279 163.915 102.452 163.752 102.589 163.56C102.652 163.465 102.685 163.354 102.685 163.24C102.685 163.126 102.652 163.015 102.589 162.92" fill="#EB996E"/>
<path d="M98.3894 159.76C98.6694 159.76 98.5994 161.6 100.129 162.98C101.659 164.36 103.639 164.23 103.649 164.49C103.649 164.6 103.189 164.83 102.359 164.82C101.273 164.792 100.232 164.381 99.4194 163.66C98.647 162.979 98.167 162.026 98.0794 161C97.9994 160.19 98.2594 159.74 98.3894 159.76Z" fill="#263238"/>
<path d="M98.2393 140.75C98.0593 141.21 96.3593 140.92 94.3493 141.08C92.3393 141.24 90.7093 141.73 90.4593 141.3C90.3493 141.1 90.6393 140.67 91.3093 140.25C92.1975 139.724 93.1988 139.419 94.2293 139.36C95.2525 139.273 96.2817 139.434 97.2293 139.83C97.9993 140.15 98.3193 140.53 98.2393 140.75Z" fill="#263238"/>
<path d="M114.319 138.75C114.009 139.13 112.849 138.68 111.439 138.6C110.029 138.52 108.819 138.76 108.559 138.35C108.439 138.15 108.649 137.77 109.179 137.42C109.897 136.996 110.729 136.808 111.559 136.88C112.387 136.925 113.18 137.225 113.829 137.74C114.309 138.16 114.459 138.57 114.319 138.75Z" fill="#263238"/>
<path d="M73.7793 132.13C76.1993 125.04 86.7793 115.38 94.1993 116.05L105.999 123.44C105.57 125.469 104.6 127.345 103.191 128.867C101.783 130.39 99.9889 131.504 97.9993 132.09C95.8693 132.69 93.3293 132.82 91.9993 134.61C90.6693 136.4 91.3793 139.15 90.1493 141.03C88.4393 143.65 83.9293 143.43 82.6293 146.27C82.0693 147.51 82.3193 149.01 81.7293 150.27C80.9493 151.91 76.7293 153.92 74.9993 153.34C73.2693 152.76 73.3293 149.81 72.7993 148.25C72.1172 146.495 72.0677 144.557 72.6593 142.77C73.5193 139.26 72.6293 135.51 73.7793 132.13Z" fill="#263238"/>
<path d="M80.1198 154.87C80.1198 153.95 79.1198 151.74 78.2698 151.56C75.8598 151.09 71.4798 151.12 71.1998 157.28C70.8198 165.7 79.3498 164.34 79.3798 164.1C79.4098 163.86 79.9998 158.05 80.1198 154.87Z" fill="#FFBE9D"/>
<path d="M76.9999 160.8C76.9999 160.8 76.8499 160.89 76.5899 160.99C76.2402 161.131 75.8496 161.131 75.4999 160.99C74.6199 160.62 73.9399 159.17 73.9599 157.66C73.9762 156.935 74.1502 156.221 74.4699 155.57C74.5623 155.311 74.7162 155.079 74.9182 154.892C75.1202 154.706 75.3644 154.571 75.6299 154.5C75.7994 154.461 75.9771 154.484 76.1311 154.565C76.285 154.646 76.4052 154.779 76.4699 154.94C76.5699 155.18 76.4699 155.35 76.5599 155.36C76.6499 155.37 76.7399 155.23 76.6899 154.88C76.6584 154.67 76.5519 154.478 76.3899 154.34C76.2789 154.245 76.1501 154.173 76.011 154.129C75.872 154.084 75.7254 154.067 75.5799 154.08C75.2315 154.135 74.9027 154.278 74.6246 154.494C74.3464 154.711 74.128 154.995 73.9899 155.32C73.6013 156.032 73.3919 156.829 73.3799 157.64C73.3799 159.34 74.1499 160.97 75.3799 161.38C75.6027 161.455 75.8394 161.479 76.0728 161.452C76.3063 161.424 76.5307 161.345 76.7299 161.22C76.9199 161 76.9999 160.81 76.9999 160.8Z" fill="#EB996E"/>
<path d="M72 130C72 127.36 68.74 125.64 66.17 125C63.5479 124.55 60.8514 125.065 58.58 126.45C57.23 127.19 55.87 128.25 55.58 129.76C55.29 131.27 56.73 133.07 58.17 132.53C57.4662 132.76 56.8224 133.144 56.285 133.653C55.7476 134.163 55.33 134.785 55.0624 135.475C54.7949 136.166 54.684 136.907 54.7378 137.646C54.7917 138.384 55.0088 139.102 55.3737 139.746C55.7385 140.39 56.2419 140.945 56.8475 141.371C57.4531 141.798 58.1458 142.084 58.8755 142.21C59.6052 142.335 60.3537 142.297 61.067 142.099C61.7803 141.9 62.4405 141.545 63 141.06C62.2695 143.502 60.7234 145.62 58.62 147.06C60.7959 147.372 63.0156 147.106 65.0557 146.287C67.0958 145.469 68.8842 144.127 70.2407 142.397C71.5973 140.667 72.4741 138.611 72.783 136.435C73.0918 134.258 72.8218 132.039 72 130Z" fill="#263238"/>
<path d="M66.1391 143.34C65.8888 142.521 65.7806 141.665 65.8191 140.81C65.7856 136.65 67.1522 132.599 69.6991 129.31C70.18 128.603 70.7827 127.987 71.4791 127.49C69.7204 129.736 68.3174 132.238 67.3191 134.91C65.7691 139.41 66.3291 143.35 66.1391 143.34Z" fill="#FF725E"/>
<path d="M103.54 120.9C104.31 124.33 109.54 128.72 111.81 131.39C116.17 136.48 117.03 138.17 116.99 149.56C119.05 145.63 120.63 141.77 120.47 137.34C120.373 132.853 118.637 128.556 115.59 125.26C114.065 123.652 112.187 122.421 110.104 121.664C108.022 120.907 105.791 120.646 103.59 120.9" fill="#263238"/>
<path d="M139.25 214.58C139.25 214.58 130.17 199.45 127.65 196.39C125.626 194.025 123.083 192.16 120.22 190.94C119.089 190.452 117.904 190.099 116.69 189.89L103.63 187C103.63 187 103.63 195.91 94.2796 196.46C84.9296 197.01 77.0896 184 77.0896 184C77.0896 184 61.9996 186.34 58.3996 188.2C54.7996 190.06 49.1196 192.41 45.9996 208L43.8096 223.28L69.8096 225.68L72.2996 264.32L85.1896 273.32C85.1896 273.32 120.94 282.61 123.19 283.22C125.44 283.83 126.19 225.7 126.19 225.7C126.19 225.7 135.45 219.79 139.25 214.58Z" fill="#263238"/>
<path d="M122.13 208.08C122.341 208.433 122.512 208.809 122.64 209.2C122.93 209.93 123.31 211 123.73 212.34C125.916 219.361 126.817 226.719 126.39 234.06C126.31 235.46 126.2 236.59 126.08 237.37C126.053 237.776 125.983 238.179 125.87 238.57C125.822 238.165 125.822 237.755 125.87 237.35C125.92 236.57 125.98 235.44 126.01 234.04C126.107 230.399 125.94 226.756 125.51 223.14C125.059 219.529 124.344 215.956 123.37 212.45C123 211.1 122.67 210.01 122.43 209.27C122.288 208.885 122.188 208.486 122.13 208.08Z" fill="#455A64"/>
<path d="M121 271.37L71.9997 260.71L69.7397 225.71L47.9697 223.71C47.9697 223.71 48.7797 247.63 49.6097 254.71C50.8197 264.94 56.8597 278.9 60.3997 281.71C63.9397 284.52 123.15 283.24 123.15 283.24L121 271.37Z" fill="#FFBE9D"/>
<path d="M148.81 277.71C148.647 278.048 148.387 278.33 148.062 278.519C147.738 278.708 147.364 278.795 146.99 278.77C146.83 278.759 146.672 278.729 146.52 278.68C145.43 278.33 145.52 276.12 145.52 276.12L140.34 275.28C140.34 275.28 133.59 279.63 131.19 282.51C128.79 285.39 122.67 283.06 122.67 283.06L120.55 272L130.1 263.37C130.1 263.37 129.52 263.88 130.18 262.27C130.84 260.66 133.83 261.27 133.83 261.27C134.3 260.47 136.26 260.19 136.26 260.19L144.64 261.19C145.491 261.289 146.31 261.577 147.035 262.034C147.76 262.491 148.373 263.105 148.83 263.83L152.38 269.44C152.38 269.44 154.25 273.44 153.95 274.44C153.816 274.842 153.536 275.178 153.165 275.382C152.795 275.586 152.36 275.642 151.95 275.54C151.95 275.54 151.54 278.2 150.84 278.29C150.125 278.253 149.423 278.083 148.77 277.79L148.81 277.71Z" fill="#FFBE9D"/>
<path d="M131 269.77C131 269.86 132.12 269.77 133.91 269.83C136.234 269.942 138.533 270.373 140.74 271.11C141.955 271.518 143.136 272.023 144.27 272.62C145.27 273.19 146.33 273.62 146.66 274.39C146.734 274.55 146.765 274.727 146.75 274.902C146.734 275.078 146.672 275.246 146.57 275.39C146.418 275.626 146.199 275.811 145.94 275.92C145.702 276.003 145.451 276.04 145.2 276.03C145.2 276.03 145.46 276.26 146 276.12C146.326 276.031 146.612 275.834 146.81 275.56C146.954 275.378 147.048 275.161 147.083 274.931C147.118 274.702 147.093 274.467 147.01 274.25C146.797 273.769 146.45 273.359 146.01 273.07C145.55 272.78 145.07 272.47 144.54 272.18C143.392 271.55 142.19 271.021 140.95 270.6C138.695 269.838 136.33 269.449 133.95 269.45C132.956 269.401 131.96 269.509 131 269.77Z" fill="#EB996E"/>
<path d="M130.399 275.11C130.399 275.27 133.819 275.11 138.009 275.37C142.199 275.63 145.559 276.13 145.589 275.97C144.89 275.695 144.157 275.517 143.409 275.44C141.632 275.139 139.839 274.938 138.039 274.84C136.237 274.74 134.431 274.74 132.629 274.84C131.877 274.827 131.127 274.918 130.399 275.11Z" fill="#EB996E"/>
<path d="M148.76 277.5C148.833 277.209 148.87 276.91 148.87 276.61C148.921 275.791 148.921 274.969 148.87 274.15C148.841 273.578 148.764 273.009 148.64 272.45C148.489 271.795 148.21 271.177 147.82 270.63C146.994 269.364 145.927 268.273 144.68 267.42C143.448 266.567 142.101 265.893 140.68 265.42C139.501 265.087 138.285 264.902 137.06 264.87C136.06 264.87 135.2 264.87 134.62 264.87C134.317 264.85 134.013 264.88 133.72 264.96C134.82 265.117 135.929 265.211 137.04 265.24C138.227 265.319 139.401 265.534 140.54 265.88C141.904 266.378 143.198 267.05 144.39 267.88C145.569 268.707 146.586 269.744 147.39 270.94C148.047 271.912 148.425 273.047 148.48 274.22C148.7 276.21 148.65 277.5 148.76 277.5Z" fill="#EB996E"/>
<path d="M136.67 262.3C136.67 262.38 137.92 262.42 139.92 262.65C141.92 262.88 144.92 263.08 146.69 265.74C148.393 267.725 149.813 269.936 150.91 272.31C151.273 273.33 151.541 274.381 151.71 275.45C151.769 275.156 151.769 274.854 151.71 274.56C151.659 273.748 151.494 272.946 151.22 272.18C150.206 269.712 148.798 267.426 147.05 265.41C146.583 264.793 146.039 264.238 145.43 263.76C144.83 263.326 144.15 263.013 143.43 262.84C142.269 262.529 141.08 262.338 139.88 262.27C138.813 262.153 137.735 262.163 136.67 262.3Z" fill="#EB996E"/>
<path d="M133 280.73C133.177 280.618 133.344 280.491 133.5 280.35L134.9 279.22C136.661 277.851 138.501 276.585 140.41 275.43H140.29L145.47 276.31L145.29 276.09C145.273 276.516 145.307 276.942 145.39 277.36C145.458 277.826 145.663 278.261 145.98 278.61C146.17 278.782 146.406 278.893 146.66 278.93C146.901 278.975 147.148 278.975 147.39 278.93C147.893 278.856 148.352 278.6 148.68 278.21C148.767 278.119 148.844 278.018 148.91 277.91L148.96 277.82L148.66 277.93L148.82 277.99C149.04 278.08 149.26 278.16 149.49 278.23C149.72 278.3 149.95 278.36 150.2 278.41C150.329 278.421 150.46 278.421 150.59 278.41C150.755 278.42 150.92 278.389 151.07 278.32C151.297 278.141 151.47 277.902 151.57 277.63C151.675 277.401 151.762 277.163 151.83 276.92C151.97 276.437 152.081 275.946 152.16 275.45L151.86 275.66C152.211 275.733 152.576 275.711 152.915 275.595C153.255 275.478 153.557 275.273 153.79 275C154.021 274.718 154.148 274.365 154.15 274C154.122 273.662 154.061 273.327 153.97 273C153.577 271.726 153.099 270.48 152.54 269.27L150.65 266.27L149.45 264.38C149.085 263.718 148.646 263.101 148.14 262.54C147.604 262.001 146.964 261.575 146.26 261.29C145.573 261.035 144.851 260.887 144.12 260.85L136.23 259.96H136.17C135.695 260.036 135.229 260.16 134.78 260.33C134.3 260.474 133.879 260.768 133.58 261.17L133.87 261.08C133.443 260.883 132.975 260.794 132.506 260.82C132.037 260.846 131.582 260.987 131.18 261.23C130.48 261.739 130.004 262.498 129.85 263.35L129.91 263.24L123.33 269.16L121.56 270.79C121.342 270.968 121.144 271.169 120.97 271.39C121.204 271.236 121.425 271.062 121.63 270.87L123.48 269.32L130.17 263.54H130.22V263.47C130.363 262.728 130.781 262.067 131.39 261.62C131.734 261.425 132.119 261.315 132.514 261.3C132.909 261.284 133.302 261.363 133.66 261.53L133.84 261.6L133.95 261.44C134.211 261.13 134.559 260.907 134.95 260.8C135.368 260.648 135.8 260.537 136.24 260.47H136.17L144.06 261.4C144.744 261.44 145.418 261.582 146.06 261.82C146.698 262.076 147.277 262.46 147.76 262.95C148.237 263.485 148.653 264.072 149 264.7L150.2 266.6C150.85 267.6 151.49 268.6 152.09 269.6C152.646 270.778 153.117 271.995 153.5 273.24C153.588 273.53 153.645 273.828 153.67 274.13C153.675 274.389 153.586 274.641 153.42 274.84C153.25 275.039 153.028 275.188 152.78 275.271C152.532 275.354 152.265 275.367 152.01 275.31H151.74V275.56C151.663 276.036 151.56 276.506 151.43 276.97C151.345 277.382 151.159 277.767 150.89 278.09C150.82 278.101 150.749 278.101 150.68 278.09H150.36C150.15 278.09 149.93 277.99 149.71 277.93L149.07 277.71L148.92 277.65L148.61 277.76V277.82C148.561 277.906 148.504 277.986 148.44 278.06C148.186 278.364 147.831 278.566 147.44 278.63C147.252 278.67 147.058 278.67 146.87 278.63C146.693 278.613 146.526 278.544 146.39 278.43C145.951 277.796 145.752 277.027 145.83 276.26V276.07H145.65L140.45 275.26H140.39H140.34C138.437 276.451 136.617 277.767 134.89 279.2C134.29 279.71 133.84 280.12 133.54 280.4C133.348 280.49 133.167 280.601 133 280.73Z" fill="#EB996E"/>
<path d="M212.32 245.54L147.85 246.07C145.75 246.07 143.76 247.07 143.44 249.14L136.44 296.14H103.18C102.691 296.175 102.233 296.394 101.899 296.753C101.565 297.112 101.379 297.585 101.379 298.075C101.379 298.565 101.565 299.038 101.899 299.397C102.233 299.756 102.691 299.975 103.18 300.01H209.26L216.51 250.41C216.6 249.807 216.56 249.192 216.391 248.606C216.222 248.02 215.929 247.477 215.531 247.015C215.133 246.552 214.64 246.181 214.086 245.927C213.532 245.672 212.93 245.54 212.32 245.54Z" fill="#E0E0E0"/>
<path d="M212.319 245.54C212.656 245.526 212.993 245.56 213.319 245.64C214.177 245.843 214.951 246.307 215.535 246.968C216.119 247.629 216.483 248.454 216.579 249.33C216.604 250.22 216.523 251.109 216.339 251.98L215.409 258.53C213.989 268.38 211.949 282.58 209.409 300.04V300.21H209.239L106.329 300.27H103.559C103.056 300.318 102.549 300.221 102.099 299.99C101.755 299.801 101.468 299.523 101.268 299.186C101.068 298.848 100.963 298.463 100.963 298.07C100.963 297.678 101.068 297.292 101.268 296.954C101.468 296.617 101.755 296.339 102.099 296.15C102.551 295.924 103.057 295.831 103.559 295.88H136.399L136.149 296.1C138.679 279.27 141.049 263.57 143.149 249.48C143.219 248.539 143.649 247.662 144.349 247.03C145.049 246.44 145.902 246.062 146.809 245.94C147.673 245.856 148.542 245.826 149.409 245.85H151.939L161.649 245.79L178.899 245.68L203.459 245.55H212.299C212.299 245.55 212.109 245.55 211.729 245.55H210.029L203.459 245.64L178.899 245.91L161.649 246.09L151.939 246.18H149.409C148.565 246.164 147.721 246.194 146.879 246.27C146.049 246.38 145.268 246.727 144.629 247.27C144.318 247.55 144.065 247.888 143.885 248.265C143.705 248.643 143.601 249.052 143.579 249.47C141.479 263.56 139.139 279.26 136.579 296.09V296.31H103.579C103.169 296.258 102.751 296.328 102.379 296.51C102.041 296.704 101.78 297.009 101.64 297.373C101.499 297.738 101.489 298.139 101.609 298.51C101.752 298.886 102.021 299.2 102.369 299.4C102.745 299.582 103.164 299.655 103.579 299.61H106.349L209.259 299.67L209.059 299.84C211.649 282.39 213.749 268.2 215.209 258.35C215.579 255.9 215.909 253.71 216.209 251.82C216.395 250.963 216.486 250.087 216.479 249.21C216.396 248.354 216.05 247.544 215.49 246.891C214.93 246.238 214.183 245.774 213.349 245.56C213.007 245.536 212.663 245.529 212.319 245.54Z" fill="#263238"/>
<path d="M177.35 276.22C179.581 276.22 181.39 274.411 181.39 272.18C181.39 269.949 179.581 268.14 177.35 268.14C175.118 268.14 173.31 269.949 173.31 272.18C173.31 274.411 175.118 276.22 177.35 276.22Z" fill="white"/>
<path d="M139 299.57C139.09 299.57 141.14 287.62 143.58 272.85C146.02 258.08 147.93 246.08 147.84 246.07C147.75 246.06 145.69 258.02 143.25 272.79C140.81 287.56 138.92 299.56 139 299.57Z" fill="#263238"/>
</svg>
