<svg width="110" height="193" viewBox="0 0 110 193" fill="none" xmlns="http://www.w3.org/2000/svg">
<path d="M99.9099 1.39C99.9099 1.39 89.6999 -3.61 81.0799 20.39C72.4599 44.39 69.7599 57.91 69.7599 57.91C69.7599 57.91 67.3299 63.01 63.6899 60.34C60.0499 57.67 54.5099 49.48 49.1999 51.75C43.6899 54.11 42.6199 60.75 44.8999 69.96C47.1799 79.17 51.4299 99.6 51.8099 101.45C52.1899 103.3 51.4699 106.09 48.6999 104.67C45.9299 103.25 29.2299 88.8 22.8499 97.14C16.4699 105.48 27.0399 130.14 28.1499 132.87C29.2599 135.6 28.8499 136.87 27.5999 137.73C26.3499 138.59 21.1999 133.21 16.2799 129.3C11.3599 125.39 4.95989 121.71 1.68989 126.83C-1.58011 131.95 -0.390131 151.32 21.8599 180.21L32.9999 192.87L49.7299 189.8C85.1199 181.04 98.1199 166.63 98.7299 160.58C99.3399 154.53 92.0599 153.43 85.7799 153.43C79.4999 153.43 72.0999 154.43 71.6599 152.98C71.2199 151.53 71.7099 150.28 74.2599 148.84C76.8099 147.4 100.46 134.67 100.66 124.17C100.86 113.67 78.7899 114.58 75.7399 113.97C72.6899 113.36 73.8899 110.71 75.3099 109.52C76.7299 108.33 92.7899 94.98 100.31 89.17C107.83 83.36 111.12 77.52 108.31 72.25C105.57 67.16 96.1299 70.11 91.6299 69.94C87.1299 69.77 88.3899 64.26 88.3899 64.26C88.3899 64.26 94.7099 51.99 102.89 27.85C111.07 3.71001 99.6599 1.3 99.6599 1.3" fill="#E0E0E0"/>
</svg>
