<svg width="256" height="321" viewBox="0 0 256 321" fill="none" xmlns="http://www.w3.org/2000/svg">
<path d="M255.75 0.519997H0.959961V320.16H255.75V0.519997Z" fill="#F5F5F5"/>
<path d="M0.999725 0.519997L255.79 0.300003H256V0.519997C256 91.82 256 201.8 256 320.12V320.41H255.74H0.949722H0.719727V320.18C0.859727 130.24 0.949722 2.59 0.949722 0.550003C0.949722 2.55 1.04973 130.24 1.18973 320.18L0.949722 319.95H255.74L255.48 320.21C255.48 201.89 255.48 91.91 255.48 0.610001L255.7 0.82L0.999725 0.519997Z" fill="#263238"/>
<path d="M99.1201 25.86H101.68V37.47H108.88V39.63H99.1201V25.86Z" fill="black"/>
<path d="M109.699 34.38C109.657 33.264 109.95 32.161 110.54 31.2126C111.13 30.2643 111.99 29.5139 113.009 29.058C114.028 28.602 115.161 28.4613 116.261 28.6539C117.361 28.8465 118.378 29.3636 119.182 30.1387C119.986 30.9139 120.54 31.9118 120.773 33.0041C121.005 34.0964 120.906 35.2332 120.487 36.2686C120.069 37.304 119.35 38.1906 118.424 38.8146C117.498 39.4385 116.406 39.7712 115.289 39.77C114.561 39.8115 113.833 39.702 113.149 39.4485C112.465 39.195 111.841 38.8028 111.316 38.2967C110.791 37.7905 110.377 37.1813 110.098 36.5073C109.82 35.8333 109.684 35.109 109.699 34.38ZM118.419 34.38C118.386 33.7717 118.176 33.1864 117.814 32.6964C117.452 32.2063 116.954 31.833 116.382 31.6224C115.811 31.4118 115.19 31.3732 114.597 31.5113C114.003 31.6493 113.463 31.9581 113.043 32.3995C112.624 32.8409 112.342 33.3955 112.234 33.995C112.125 34.5945 112.195 35.2126 112.434 35.7731C112.672 36.3335 113.07 36.8118 113.578 37.1489C114.085 37.486 114.68 37.6671 115.289 37.67C115.717 37.6826 116.144 37.6048 116.54 37.4417C116.936 37.2787 117.293 37.034 117.589 36.7236C117.884 36.4132 118.11 36.0441 118.254 35.6403C118.397 35.2365 118.453 34.8071 118.419 34.38Z" fill="black"/>
<path d="M133.68 29.13V38C133.68 41.81 131.68 43.55 128.01 43.55C126.189 43.6197 124.394 43.093 122.9 42.05L124 40.2C125.119 41.036 126.483 41.4789 127.88 41.46C130.2 41.46 131.22 40.4 131.22 38.27V37.72C130.765 38.1889 130.217 38.556 129.61 38.7974C129.003 39.0387 128.352 39.1486 127.7 39.12C127.014 39.1504 126.33 39.0417 125.688 38.8004C125.045 38.5591 124.459 38.1902 123.963 37.7159C123.467 37.2417 123.073 36.6719 122.803 36.041C122.534 35.4101 122.395 34.7311 122.395 34.045C122.395 33.3589 122.534 32.6799 122.803 32.049C123.073 31.4181 123.467 30.8483 123.963 30.3741C124.459 29.8998 125.045 29.5309 125.688 29.2896C126.33 29.0483 127.014 28.9396 127.7 28.97C128.382 28.9333 129.063 29.0508 129.694 29.314C130.324 29.5772 130.887 29.9792 131.34 30.49V29.09L133.68 29.13ZM131.26 34.07C131.3 33.4297 131.147 32.7921 130.82 32.24C130.493 31.6879 130.008 31.2467 129.427 30.9739C128.846 30.701 128.197 30.609 127.564 30.7097C126.93 30.8105 126.341 31.0994 125.874 31.5389C125.406 31.9784 125.082 32.5483 124.943 33.1746C124.803 33.8008 124.855 34.4545 125.092 35.0508C125.329 35.6471 125.739 36.1585 126.27 36.5186C126.801 36.8786 127.428 37.0708 128.07 37.07C128.48 37.096 128.89 37.0377 129.276 36.8986C129.663 36.7595 130.016 36.5426 130.315 36.2614C130.614 35.9802 130.852 35.6406 131.015 35.2637C131.177 34.8868 131.261 34.4805 131.26 34.07Z" fill="black"/>
<path d="M136.569 25.92C136.573 25.7195 136.617 25.5218 136.699 25.3386C136.78 25.1554 136.897 24.9904 137.044 24.8534C137.19 24.7163 137.363 24.61 137.551 24.5408C137.739 24.4715 137.939 24.4406 138.139 24.45C138.336 24.4351 138.535 24.46 138.722 24.5235C138.909 24.5869 139.082 24.6874 139.229 24.819C139.377 24.9507 139.496 25.1107 139.58 25.2896C139.665 25.4684 139.712 25.6624 139.719 25.86C139.696 26.2573 139.524 26.6311 139.237 26.907C138.95 27.1828 138.57 27.3402 138.172 27.3478C137.774 27.3553 137.388 27.2125 137.091 26.9478C136.794 26.6831 136.608 26.3161 136.569 25.92ZM136.899 29.13H139.359V39.63H136.899V29.13Z" fill="black"/>
<path d="M152.93 33.61V39.61H150.47V33.91C150.47 32.04 149.55 31.14 147.98 31.14C146.23 31.14 145.04 32.2 145.04 34.3V39.61H142.59V29.13H144.93V30.49C145.383 29.9867 145.944 29.5917 146.571 29.3338C147.197 29.0759 147.873 28.9619 148.55 29C151.06 29 152.93 30.45 152.93 33.61Z" fill="black"/>
<path d="M170.779 18.77C171.105 19.3781 171.306 20.0455 171.37 20.7325C171.433 21.4196 171.358 22.1124 171.149 22.77C170.715 24.0999 169.979 25.3114 168.999 26.31C166.995 28.2458 164.52 29.6246 161.819 30.31C161.159 27.41 162.759 24.31 163.669 22.85C165.099 20.48 169.139 17.07 170.769 18.77" fill="#FF725E"/>
<path d="M161.339 35.39C161.667 34.6786 162.18 34.0679 162.823 33.6212C163.467 33.1746 164.218 32.9083 164.999 32.85C165.772 32.8007 166.547 32.9043 167.28 33.1548C168.012 33.4054 168.688 33.7979 169.269 34.31C169.555 34.5209 169.792 34.7908 169.965 35.1013C170.137 35.4119 170.241 35.7559 170.269 36.11C170.238 36.4434 170.12 36.7627 169.927 37.0364C169.734 37.31 169.473 37.5285 169.169 37.67C168.538 37.9363 167.85 38.0361 167.169 37.96C164.879 37.79 162.699 37.22 161.319 35.39" fill="#FF725E"/>
<path d="M155.569 38.79C155.946 38.3343 156.372 37.9218 156.839 37.56C157.332 37.1443 157.873 36.7885 158.449 36.5C159.142 36.1178 159.861 35.7837 160.599 35.5C161.954 34.9891 163.414 34.8208 164.849 35.01C165.28 35.0728 165.703 35.1835 166.109 35.34C166.264 35.3882 166.41 35.4626 166.539 35.56C166.539 35.56 165.889 35.34 164.819 35.22C163.421 35.0998 162.014 35.2911 160.699 35.78C159.976 36.054 159.268 36.3679 158.579 36.72C158.008 36.9942 157.468 37.3295 156.969 37.72C156.528 38.1082 156.06 38.4657 155.569 38.79Z" fill="#263238"/>
<path d="M167.94 21.64C167.807 21.9116 167.654 22.1724 167.48 22.42C167.17 22.9 166.72 23.6 166.15 24.42C165.01 26.13 163.4 28.47 161.57 31.02C159.74 33.57 158 35.83 156.72 37.44C156.08 38.25 155.55 38.89 155.18 39.33C154.998 39.5655 154.797 39.7862 154.58 39.99C154.725 39.7301 154.896 39.4855 155.09 39.26L156.55 37.26C157.79 35.62 159.49 33.35 161.32 30.8L166 24.34L167.42 22.34C167.573 22.0921 167.747 21.8579 167.94 21.64Z" fill="#263238"/>
<path d="M158 34.22C158.524 32.6714 158.672 31.0206 158.432 29.4035C158.192 27.7865 157.571 26.2497 156.62 24.92C156.13 24.25 155.38 23.58 154.62 23.78C153.86 23.98 153.46 24.93 153.36 25.78C153.176 27.5067 153.508 29.2492 154.315 30.7871C155.121 32.325 156.365 33.5892 157.89 34.42" fill="#FF725E"/>
<path d="M156 27.26C156 27.26 156.11 27.39 156.27 27.65C156.43 27.91 156.63 28.29 156.87 28.78C157.492 30.0562 157.875 31.4357 158 32.85C158.052 33.6367 157.978 34.4267 157.78 35.19C157.611 35.8285 157.348 36.4384 157 37C156.777 37.3553 156.523 37.6899 156.24 38C156.143 38.1225 156.033 38.2333 155.91 38.33C155.86 38.33 156.3 37.78 156.82 36.85C157.113 36.3063 157.338 35.7286 157.49 35.13C157.667 34.394 157.731 33.6353 157.68 32.88C157.541 31.4989 157.183 30.1487 156.62 28.88C156.387 28.3507 156.18 27.81 156 27.26Z" fill="#263238"/>
<path d="M27.2593 72V72.73H21.5693V64.68H27.0893V65.42H22.4193V68.28H26.5793V69H22.4193V72H27.2593Z" fill="#263238"/>
<path d="M39.0694 69.2V72.71H38.2594V69.28C38.2594 68.01 37.6094 67.35 36.5194 67.35C36.24 67.3487 35.9634 67.406 35.7075 67.5182C35.4516 67.6304 35.222 67.795 35.0336 68.0013C34.8451 68.2076 34.702 68.4511 34.6135 68.7162C34.5249 68.9812 34.4929 69.2618 34.5194 69.54V72.71H33.7094V69.28C33.7094 68.01 33.0594 67.35 31.9594 67.35C31.68 67.3487 31.4034 67.406 31.1475 67.5182C30.8916 67.6304 30.662 67.795 30.4735 68.0013C30.2851 68.2076 30.142 68.4511 30.0535 68.7162C29.9649 68.9812 29.9329 69.2618 29.9594 69.54V72.71H29.1494V66.66H29.9294V67.77C30.1605 67.3952 30.4892 67.0901 30.8802 66.8876C31.2712 66.685 31.7099 66.5925 32.1494 66.62C32.5949 66.5845 33.0406 66.6875 33.4254 66.9148C33.8102 67.1421 34.1155 67.4827 34.2994 67.89C34.5461 67.4823 34.8985 67.149 35.3193 66.9254C35.7401 66.7018 36.2135 66.5963 36.6894 66.62C37.0241 66.6023 37.3586 66.6587 37.669 66.785C37.9795 66.9113 38.2583 67.1045 38.4855 67.3509C38.7128 67.5972 38.8829 67.8907 38.9838 68.2103C39.0848 68.5299 39.114 68.8678 39.0694 69.2Z" fill="#263238"/>
<path d="M45.8593 69V72.75H45.0693V71.81C44.8437 72.1474 44.5317 72.4182 44.1659 72.5941C43.8 72.7699 43.3937 72.8445 42.9893 72.81C41.6193 72.81 40.7793 72.1 40.7793 71.05C40.7793 70 41.3793 69.34 43.1193 69.34H44.9993V68.97C44.9993 67.97 44.4093 67.37 43.2793 67.37C42.5503 67.3665 41.8429 67.6176 41.2793 68.08L40.9093 67.47C41.6127 66.9269 42.4808 66.6411 43.3693 66.66C43.6954 66.606 44.0296 66.6279 44.3459 66.7241C44.6621 66.8202 44.9519 66.988 45.1928 67.2144C45.4337 67.4408 45.6192 67.7196 45.7347 68.0293C45.8503 68.339 45.8929 68.6712 45.8593 69ZM44.9993 70.9V69.9H43.0993C41.9293 69.9 41.5493 70.36 41.5493 70.98C41.5493 71.6 42.1093 72.12 43.0793 72.12C43.487 72.1447 43.8921 72.04 44.2369 71.8209C44.5816 71.6019 44.8484 71.2796 44.9993 70.9Z" fill="#263238"/>
<path d="M47.8896 64.75C47.8909 64.673 47.9075 64.597 47.9385 64.5264C47.9695 64.4559 48.0142 64.3922 48.0701 64.3392C48.126 64.2861 48.1918 64.2447 48.2639 64.2174C48.3359 64.19 48.4127 64.1773 48.4897 64.18C48.5653 64.1773 48.6408 64.1898 48.7116 64.2166C48.7824 64.2434 48.8472 64.2841 48.9021 64.3362C48.9571 64.3884 49.001 64.4509 49.0315 64.5203C49.062 64.5896 49.0784 64.6643 49.0797 64.74C49.081 64.8183 49.0667 64.8961 49.0376 64.9689C49.0086 65.0416 48.9653 65.1078 48.9104 65.1637C48.8555 65.2195 48.79 65.2639 48.7178 65.2942C48.6455 65.3244 48.568 65.34 48.4897 65.34C48.4113 65.3413 48.3335 65.327 48.2608 65.298C48.188 65.2689 48.1218 65.2257 48.066 65.1708C48.0101 65.1158 47.9658 65.0504 47.9355 64.9781C47.9052 64.9059 47.8896 64.8283 47.8896 64.75ZM48.0697 66.66H48.8896V72.71H48.0697V66.66Z" fill="#263238"/>
<path d="M51.1699 64.18H51.9999V72.71H51.1899L51.1699 64.18Z" fill="#263238"/>
<path d="M61.8395 69V72.75H61.0595V71.81C60.8323 72.1482 60.5186 72.4194 60.151 72.5953C59.7835 72.7711 59.3755 72.8453 58.9695 72.81C57.6095 72.81 56.7695 72.1 56.7695 71.05C56.7695 70 57.3595 69.34 59.0995 69.34H60.9995V68.97C60.9995 67.97 60.4195 67.37 59.2895 67.37C58.5602 67.3648 57.8523 67.6162 57.2895 68.08L56.9195 67.47C57.6222 66.9255 58.4908 66.6395 59.3795 66.66C59.7034 66.6112 60.0342 66.6369 60.3465 66.7354C60.6589 66.8339 60.9447 67.0024 61.182 67.2282C61.4193 67.4539 61.6019 67.7309 61.7159 68.038C61.8298 68.345 61.8721 68.6741 61.8395 69ZM60.9995 70.9V69.9H59.0995C57.9295 69.9 57.5495 70.36 57.5495 70.98C57.5495 71.6 58.1095 72.12 59.0795 72.12C59.4872 72.1447 59.8924 72.04 60.2371 71.8209C60.5819 71.6019 60.8487 71.2796 60.9995 70.9Z" fill="#263238"/>
<path d="M69.5998 64.18V72.71H68.8198V71.52C68.5763 71.9178 68.231 72.2433 67.8197 72.4631C67.4083 72.6828 66.9458 72.7888 66.4798 72.77C65.6945 72.7252 64.9562 72.3817 64.4162 71.81C63.8761 71.2382 63.5752 70.4815 63.5752 69.695C63.5752 68.9085 63.8761 68.1518 64.4162 67.58C64.9562 67.0083 65.6945 66.6648 66.4798 66.62C66.9344 66.6043 67.3855 66.7054 67.79 66.9137C68.1944 67.1221 68.5386 67.4307 68.7898 67.81V64.18H69.5998ZM68.7998 69.69C68.7783 69.2503 68.6282 68.8266 68.3683 68.4713C68.1083 68.1161 67.7499 67.8449 67.3373 67.6913C66.9248 67.5378 66.4762 67.5086 66.0473 67.6075C65.6183 67.7063 65.2277 67.9288 64.924 68.2474C64.6202 68.566 64.4166 68.9667 64.3383 69.3999C64.26 69.8331 64.3106 70.2798 64.4836 70.6845C64.6567 71.0893 64.9447 71.4344 65.3119 71.6771C65.6792 71.9198 66.1096 72.0495 66.5498 72.05C66.856 72.0548 67.1599 71.9961 67.4423 71.8777C67.7248 71.7593 67.9797 71.5838 68.191 71.3622C68.4023 71.1405 68.5655 70.8775 68.6703 70.5897C68.775 70.302 68.8191 69.9956 68.7998 69.69Z" fill="#263238"/>
<path d="M77.3996 64.18V72.71H76.6196V71.52C76.3738 71.9156 76.0281 72.2395 75.6172 72.4589C75.2064 72.6784 74.7451 72.7857 74.2796 72.77C73.4944 72.7252 72.756 72.3817 72.2159 71.81C71.6759 71.2382 71.375 70.4815 71.375 69.695C71.375 68.9085 71.6759 68.1518 72.2159 67.58C72.756 67.0083 73.4944 66.6648 74.2796 66.62C74.733 66.6031 75.1832 66.7038 75.5862 66.9123C75.9892 67.1208 76.3314 67.4301 76.5796 67.81V64.18H77.3996ZM76.5896 69.69C76.568 69.2499 76.4177 68.8258 76.1573 68.4703C75.8969 68.1149 75.5379 67.8437 75.1248 67.6905C74.7116 67.5372 74.2626 67.5087 73.8334 67.6083C73.4042 67.708 73.0137 67.9315 72.7103 68.2511C72.407 68.5706 72.2042 68.9723 72.127 69.4061C72.0499 69.8399 72.1018 70.2869 72.2764 70.6914C72.451 71.096 72.7405 71.4404 73.109 71.6819C73.4776 71.9235 73.9089 72.0514 74.3496 72.05C74.6554 72.0549 74.9589 71.9962 75.2408 71.8777C75.5228 71.7592 75.7771 71.5835 75.9876 71.3617C76.1982 71.1399 76.3604 70.8768 76.464 70.589C76.5676 70.3013 76.6104 69.9951 76.5896 69.69Z" fill="#263238"/>
<path d="M82.72 66.62V67.41H82.53C82.2468 67.4081 81.9665 67.4664 81.7075 67.581C81.4485 67.6955 81.2168 67.8638 81.0278 68.0746C80.8387 68.2854 80.6966 68.534 80.6107 68.8038C80.5249 69.0737 80.4974 69.3587 80.53 69.64V72.72H79.71V66.67H80.5V67.86C80.7039 67.4553 81.0244 67.121 81.42 66.9C81.8157 66.679 82.2684 66.5815 82.72 66.62Z" fill="#263238"/>
<path d="M89.3994 69.94H84.3394C84.356 70.2352 84.4308 70.5242 84.5596 70.7904C84.6884 71.0566 84.8687 71.2946 85.0899 71.4907C85.3112 71.6869 85.5691 71.8373 85.8488 71.9333C86.1284 72.0293 86.4243 72.0689 86.7194 72.05C87.069 72.0602 87.4166 71.9939 87.7379 71.8557C88.0592 71.7176 88.3464 71.5108 88.5794 71.25L89.0394 71.78C88.6049 72.2342 88.0463 72.5504 87.4333 72.6891C86.8202 72.8278 86.1799 72.7829 85.5922 72.56C85.0045 72.337 84.4955 71.946 84.1286 71.4356C83.7618 70.9252 83.5534 70.3181 83.5294 69.69C83.506 69.2888 83.5649 68.8871 83.7023 68.5095C83.8397 68.1318 84.0528 67.7863 84.3286 67.494C84.6044 67.2016 84.937 66.9688 85.3059 66.8096C85.6749 66.6504 86.0726 66.5683 86.4744 66.5683C86.8763 66.5683 87.2739 66.6504 87.6429 66.8096C88.0119 66.9688 88.3445 67.2016 88.6202 67.494C88.896 67.7863 89.1091 68.1318 89.2465 68.5095C89.384 68.8871 89.4428 69.2888 89.4194 69.69C89.4194 69.76 89.3994 69.85 89.3994 69.94ZM84.3394 69.33H88.6294C88.5923 68.7864 88.3502 68.2772 87.952 67.9053C87.5538 67.5334 87.0293 67.3265 86.4844 67.3265C85.9396 67.3265 85.415 67.5334 85.0169 67.9053C84.6187 68.2772 84.3765 68.7864 84.3394 69.33Z" fill="#263238"/>
<path d="M90.2393 72L90.6093 71.36C91.2359 71.8085 91.9887 72.0466 92.7592 72.04C93.9092 72.04 94.3793 71.65 94.3793 71.04C94.3793 69.46 90.4593 70.7 90.4593 68.31C90.4593 67.31 91.3093 66.59 92.8493 66.59C93.6011 66.5718 94.3427 66.7659 94.9893 67.15L94.6393 67.81C94.1095 67.4583 93.485 67.2769 92.8493 67.29C91.7593 67.29 91.2793 67.71 91.2793 68.29C91.2793 69.92 95.1992 68.69 95.1992 71.02C95.1992 72.02 94.2792 72.74 92.6992 72.74C91.8202 72.7705 90.9556 72.5104 90.2393 72Z" fill="#263238"/>
<path d="M95.8594 72L96.2294 71.36C96.8569 71.8067 97.6091 72.0446 98.3794 72.04C99.5294 72.04 100.009 71.65 100.009 71.04C100.009 69.46 96.0794 70.7 96.0794 68.31C96.0794 67.31 96.9294 66.59 98.4794 66.59C99.2307 66.5755 99.9714 66.7693 100.619 67.15L100.259 67.81C99.7335 67.4579 99.112 67.2763 98.4794 67.29C97.3794 67.29 96.8994 67.71 96.8994 68.29C96.8994 69.92 100.819 68.69 100.819 71.02C100.819 72.02 99.8994 72.74 98.3294 72.74C97.4474 72.769 96.5801 72.5092 95.8594 72Z" fill="#263238"/>
<path d="M36.5397 94.26H31.4797C31.4975 94.5544 31.5733 94.8423 31.7027 95.1073C31.8321 95.3723 32.0125 95.6092 32.2336 95.8043C32.4547 95.9994 32.7122 96.1489 32.9913 96.2443C33.2703 96.3396 33.5654 96.379 33.8597 96.36C34.2072 96.3721 34.553 96.3075 34.8727 96.171C35.1924 96.0345 35.4782 95.8293 35.7097 95.57L36.1697 96.1C35.7352 96.5542 35.1766 96.8704 34.5636 97.0091C33.9505 97.1478 33.3102 97.1029 32.7225 96.8799C32.1348 96.657 31.6258 96.266 31.259 95.7556C30.8921 95.2452 30.6837 94.6381 30.6597 94.01C30.6374 93.6065 30.6991 93.2027 30.8409 92.8242C30.9827 92.4458 31.2015 92.1009 31.4835 91.8114C31.7655 91.5219 32.1045 91.294 32.4791 91.1423C32.8537 90.9906 33.2557 90.9183 33.6597 90.93C34.0591 90.9236 34.4555 91.0001 34.8239 91.1546C35.1922 91.3091 35.5246 91.5383 35.7999 91.8277C36.0752 92.1171 36.2875 92.4605 36.4235 92.8361C36.5594 93.2117 36.616 93.6114 36.5897 94.01C36.5497 94.08 36.5397 94.17 36.5397 94.26ZM31.4797 93.65H35.7697C35.7326 93.1064 35.4905 92.5972 35.0923 92.2253C34.6941 91.8534 34.1696 91.6465 33.6247 91.6465C33.0799 91.6465 32.5553 91.8534 32.1572 92.2253C31.759 92.5972 31.5169 93.1064 31.4797 93.65Z" fill="#E0E0E0"/>
<path d="M41.8999 97L39.9999 94.5L38.0499 97H37.1299L39.5199 93.9L37.2399 90.9H38.1599L39.9799 93.27L41.7999 91H42.6899L40.4199 94L42.8299 97.1L41.8999 97Z" fill="#E0E0E0"/>
<path d="M48.6393 93.28V97H47.8593V96.06C47.6314 96.3975 47.3175 96.668 46.9501 96.8438C46.5828 97.0196 46.1752 97.0942 45.7693 97.06C44.3993 97.06 43.5693 96.35 43.5693 95.3C43.5693 94.25 44.1593 93.59 45.8993 93.59H47.8193V93.22C47.8193 92.22 47.2293 91.62 46.1093 91.62C45.3799 91.614 44.6717 91.8654 44.1093 92.33L43.7493 91.72C44.4486 91.1682 45.3188 90.8781 46.2093 90.9C46.5343 90.857 46.8647 90.8886 47.1756 90.9922C47.4865 91.0958 47.7698 91.2689 48.004 91.4982C48.2381 91.7275 48.417 92.0071 48.5271 92.3158C48.6372 92.6245 48.6755 92.9543 48.6393 93.28ZM47.8193 95.21V94.21H45.9193C44.7493 94.21 44.3693 94.67 44.3693 95.3C44.3693 95.93 44.9293 96.44 45.8993 96.44C46.3085 96.4655 46.7152 96.36 47.0604 96.1389C47.4056 95.9177 47.6714 95.5924 47.8193 95.21Z" fill="#E0E0E0"/>
<path d="M60.8396 93.52V97H59.9996V93.6C59.9996 92.33 59.3496 91.67 58.2596 91.67C57.9802 91.6687 57.7036 91.726 57.4477 91.8382C57.1918 91.9504 56.9622 92.1149 56.7738 92.3213C56.5853 92.5276 56.4422 92.7711 56.3537 93.0362C56.2651 93.3012 56.2331 93.5818 56.2596 93.86V97H55.4496V93.6C55.4496 92.33 54.7996 91.67 53.6996 91.67C53.4202 91.6687 53.1436 91.726 52.8877 91.8382C52.6318 91.9504 52.4022 92.1149 52.2138 92.3213C52.0253 92.5276 51.8822 92.7711 51.7937 93.0362C51.7051 93.3012 51.6731 93.5818 51.6996 93.86V97H50.8896V91H51.6696V92.1C51.9024 91.7267 52.2313 91.4229 52.6219 91.2205C53.0125 91.0182 53.4504 90.9247 53.8896 90.95C54.3361 90.9168 54.7819 91.0218 55.1666 91.2508C55.5512 91.4798 55.8561 91.8217 56.0396 92.23C56.285 91.8205 56.6369 91.4852 57.0578 91.2598C57.4787 91.0344 57.9528 90.9273 58.4296 90.95C58.7654 90.9298 59.1014 90.9838 59.4139 91.1081C59.7264 91.2324 60.0077 91.4241 60.2378 91.6694C60.4678 91.9148 60.641 92.2078 60.7451 92.5276C60.8491 92.8474 60.8814 93.1863 60.8396 93.52Z" fill="#E0E0E0"/>
<path d="M69.1901 94C69.2109 94.4032 69.1481 94.8063 69.0058 95.1841C68.8634 95.5618 68.6446 95.9061 68.3629 96.1953C68.0812 96.4845 67.7428 96.7124 67.3689 96.8646C66.995 97.0168 66.5937 97.0902 66.1901 97.08C65.7358 97.0949 65.2854 96.9922 64.8825 96.782C64.4796 96.5718 64.1377 96.2611 63.8901 95.88V99.25H63.0801V91H63.8601V92.2C64.1027 91.8037 64.4464 91.4792 64.8558 91.2595C65.2653 91.0398 65.7258 90.933 66.1901 90.95C66.5906 90.9415 66.9887 91.015 67.3598 91.166C67.7309 91.3169 68.0672 91.5421 68.3482 91.8277C68.6291 92.1133 68.8487 92.4533 68.9935 92.8269C69.1382 93.2005 69.2052 93.5996 69.1901 94ZM68.3701 94C68.3524 93.5568 68.2048 93.1287 67.9455 92.7689C67.6862 92.409 67.3268 92.1334 66.912 91.9764C66.4973 91.8194 66.0455 91.7879 65.6129 91.8858C65.1804 91.9837 64.7862 92.2067 64.4794 92.5271C64.1727 92.8474 63.9671 93.2509 63.888 93.6873C63.809 94.1237 63.8601 94.5737 64.035 94.9813C64.2099 95.3888 64.5009 95.7359 64.8717 95.9793C65.2424 96.2227 65.6766 96.3516 66.1201 96.35C66.425 96.3532 66.7273 96.2938 67.0083 96.1755C67.2894 96.0572 67.5432 95.8826 67.7541 95.6623C67.9649 95.4421 68.1284 95.1809 68.2344 94.895C68.3403 94.6091 68.3865 94.3045 68.3701 94Z" fill="#E0E0E0"/>
<path d="M70.8496 88.5H71.6696V97H70.8496V88.5Z" fill="#E0E0E0"/>
<path d="M79.22 94.26H74.15C74.1885 94.8554 74.4619 95.4111 74.9101 95.8049C75.3583 96.1987 75.9446 96.3984 76.54 96.36C76.8873 96.3714 77.2329 96.3065 77.5525 96.1701C77.8721 96.0336 78.158 95.8288 78.39 95.57L78.85 96.1C78.4155 96.5542 77.8568 96.8704 77.2438 97.0091C76.6308 97.1478 75.9904 97.1029 75.4027 96.8799C74.815 96.657 74.306 96.266 73.9392 95.7556C73.5723 95.2452 73.3639 94.6381 73.34 94.01C73.3166 93.6088 73.3754 93.2071 73.5128 92.8295C73.6503 92.4518 73.8634 92.1063 74.1392 91.814C74.4149 91.5217 74.7475 91.2888 75.1165 91.1296C75.4855 90.9704 75.8831 90.8883 76.285 90.8883C76.6868 90.8883 77.0844 90.9704 77.4534 91.1296C77.8224 91.2888 78.155 91.5217 78.4308 91.814C78.7065 92.1063 78.9197 92.4518 79.0571 92.8295C79.1945 93.2071 79.2533 93.6088 79.23 94.01C79.23 94.08 79.22 94.17 79.22 94.26ZM74.15 93.65H78.45C78.45 93.0798 78.2234 92.5329 77.8202 92.1297C77.417 91.7265 76.8702 91.5 76.3 91.5C75.7298 91.5 75.1829 91.7265 74.7797 92.1297C74.3765 92.5329 74.15 93.0798 74.15 93.65Z" fill="#E0E0E0"/>
<path d="M91.0495 94C91.0495 96 90.3295 97.11 89.1395 97.11C88.9705 97.1197 88.8013 97.0943 88.6425 97.0356C88.4838 96.9768 88.3388 96.886 88.2168 96.7686C88.0948 96.6513 87.9983 96.51 87.9334 96.3537C87.8684 96.1973 87.8365 96.0293 87.8395 95.86C87.6041 96.256 87.2662 96.5812 86.8614 96.8012C86.4566 97.0212 85.9999 97.1279 85.5395 97.11C84.8244 97.0081 84.1701 96.6516 83.6967 96.106C83.2233 95.5604 82.9627 94.8623 82.9627 94.14C82.9627 93.4177 83.2233 92.7196 83.6967 92.174C84.1701 91.6284 84.8244 91.2719 85.5395 91.17C85.9923 91.1537 86.4415 91.257 86.8417 91.4694C87.242 91.6818 87.5792 91.9959 87.8195 92.38V91.2H88.5695V95.56C88.5695 96.2 88.8895 96.43 89.2795 96.43C89.9895 96.43 90.4495 95.55 90.4495 93.99C90.4668 93.3759 90.3547 92.765 90.1205 92.197C89.8863 91.629 89.5352 91.1166 89.0901 90.6932C88.645 90.2697 88.1157 89.9447 87.5367 89.7391C86.9578 89.5335 86.342 89.4521 85.7295 89.5C85.1041 89.4709 84.4792 89.569 83.8927 89.7883C83.3063 90.0076 82.7704 90.3436 82.3175 90.7759C81.8645 91.2082 81.504 91.7279 81.2577 92.3036C81.0114 92.8792 80.8844 93.4989 80.8844 94.125C80.8844 94.7511 81.0114 95.3708 81.2577 95.9464C81.504 96.5221 81.8645 97.0418 82.3175 97.4741C82.7704 97.9064 83.3063 98.2424 83.8927 98.4617C84.4792 98.681 85.1041 98.7791 85.7295 98.75C86.4955 98.7515 87.2517 98.5771 87.9395 98.24L88.1295 98.8C87.3794 99.1545 86.5592 99.3356 85.7295 99.33C85.0453 99.33 84.3679 99.1952 83.7357 98.9334C83.1036 98.6716 82.5293 98.2878 82.0455 97.804C81.5617 97.3202 81.1779 96.7459 80.9161 96.1138C80.6543 95.4817 80.5195 94.8042 80.5195 94.12C80.5195 93.4358 80.6543 92.7583 80.9161 92.1262C81.1779 91.4941 81.5617 90.9198 82.0455 90.436C82.5293 89.9522 83.1036 89.5684 83.7357 89.3066C84.3679 89.0448 85.0453 88.91 85.7295 88.91C86.4202 88.8656 87.1126 88.965 87.7628 89.202C88.4131 89.439 89.007 89.8085 89.5071 90.2869C90.0072 90.7654 90.4025 91.3424 90.668 91.9816C90.9335 92.6207 91.0634 93.308 91.0495 94ZM87.8295 94.13C87.8061 93.7028 87.658 93.2917 87.4035 92.9477C87.1491 92.6037 86.7994 92.3418 86.3978 92.1942C85.9961 92.0467 85.56 92.0201 85.1434 92.1177C84.7268 92.2153 84.3479 92.4328 84.0535 92.7433C83.7591 93.0538 83.5622 93.4438 83.4869 93.865C83.4117 94.2862 83.4615 94.7202 83.6302 95.1135C83.7989 95.5067 84.0791 95.8419 84.4362 96.0776C84.7933 96.3134 85.2116 96.4394 85.6395 96.44C85.9415 96.4483 86.2417 96.3925 86.5206 96.2764C86.7994 96.1603 87.0505 95.9865 87.2574 95.7664C87.4642 95.5463 87.6222 95.285 87.7208 94.9995C87.8194 94.714 87.8565 94.4108 87.8295 94.11V94.13Z" fill="#E0E0E0"/>
<path d="M98.3796 91V96.32C98.3796 98.4 97.3796 99.32 95.3796 99.32C94.3579 99.3619 93.3558 99.0314 92.5596 98.39L92.9696 97.77C93.64 98.3259 94.4889 98.6207 95.3596 98.6C96.8896 98.6 97.5896 97.89 97.5896 96.4V95.63C97.3268 96.0083 96.9726 96.3139 96.56 96.5185C96.1474 96.723 95.6897 96.8199 95.2296 96.8C94.8297 96.8233 94.4293 96.7647 94.0529 96.6278C93.6766 96.4909 93.3321 96.2785 93.0408 96.0036C92.7494 95.7288 92.5173 95.3973 92.3587 95.0296C92.2 94.6618 92.1182 94.2655 92.1182 93.865C92.1182 93.4645 92.2 93.0682 92.3587 92.7004C92.5173 92.3327 92.7494 92.0012 93.0408 91.7264C93.3321 91.4515 93.6766 91.2391 94.0529 91.1022C94.4293 90.9652 94.8297 90.9066 95.2296 90.93C95.6983 90.9093 96.1645 91.0097 96.5832 91.2217C97.0018 91.4336 97.3588 91.7499 97.6196 92.14V91H98.3796ZM97.5796 93.88C97.5955 93.422 97.4743 92.9697 97.2314 92.5811C96.9886 92.1925 96.6352 91.8853 96.2166 91.6989C95.798 91.5125 95.3332 91.4554 94.8819 91.5349C94.4306 91.6144 94.0134 91.8269 93.6836 92.1451C93.3539 92.4634 93.1268 92.8728 93.0314 93.321C92.9359 93.7692 92.9766 94.2357 93.1481 94.6607C93.3195 95.0856 93.614 95.4497 93.9938 95.7061C94.3736 95.9626 94.8213 96.0997 95.2796 96.1C95.5816 96.1199 95.8845 96.076 96.1685 95.9712C96.4525 95.8665 96.7114 95.7033 96.9283 95.492C97.1451 95.2808 97.3152 95.0264 97.4274 94.7452C97.5396 94.4641 97.5914 94.1625 97.5796 93.86V93.88Z" fill="#E0E0E0"/>
<path d="M110.65 93.52V97H109.83V93.6C109.83 92.33 109.19 91.67 108.09 91.67C107.811 91.6687 107.534 91.726 107.278 91.8382C107.022 91.9504 106.793 92.1149 106.604 92.3213C106.416 92.5276 106.273 92.7711 106.184 93.0362C106.096 93.3012 106.064 93.5818 106.09 93.86V97H105.27V93.6C105.27 92.33 104.63 91.67 103.52 91.67C103.241 91.6687 102.964 91.726 102.708 91.8382C102.452 91.9504 102.223 92.1149 102.034 92.3213C101.846 92.5276 101.703 92.7711 101.614 93.0362C101.526 93.3012 101.494 93.5818 101.52 93.86V97H100.7V91H101.48V92.1C101.714 91.7274 102.043 91.4242 102.433 91.2219C102.824 91.0197 103.261 90.9258 103.7 90.95C104.148 90.9161 104.595 91.0208 104.982 91.2497C105.368 91.4787 105.675 91.8209 105.86 92.23C106.105 91.8197 106.456 91.4838 106.878 91.2583C107.299 91.0328 107.773 90.9262 108.25 90.95C108.585 90.9313 108.92 90.9864 109.231 91.1114C109.543 91.2364 109.823 91.4283 110.051 91.6735C110.28 91.9186 110.453 92.2111 110.556 92.5302C110.66 92.8492 110.692 93.1872 110.65 93.52Z" fill="#E0E0E0"/>
<path d="M117.429 93.28V97H116.649V96.06C116.424 96.3974 116.112 96.6682 115.746 96.844C115.38 97.0199 114.974 97.0945 114.569 97.06C113.199 97.06 112.359 96.35 112.359 95.3C112.359 94.25 112.949 93.59 114.689 93.59H116.609V93.22C116.609 92.22 116.029 91.62 114.899 91.62C114.169 91.6096 113.46 91.8615 112.899 92.33L112.529 91.72C113.229 91.1682 114.099 90.8781 114.989 90.9C115.315 90.8553 115.647 90.8856 115.959 90.9885C116.271 91.0914 116.556 91.2642 116.791 91.4937C117.026 91.7233 117.206 92.0035 117.317 92.313C117.427 92.6226 117.466 92.9533 117.429 93.28ZM116.609 95.21V94.21H114.709C113.539 94.21 113.159 94.67 113.159 95.3C113.159 95.93 113.729 96.44 114.689 96.44C115.099 96.4655 115.505 96.36 115.85 96.1388C116.196 95.9177 116.461 95.5924 116.609 95.21Z" fill="#E0E0E0"/>
<path d="M119.46 89.07C119.465 88.9153 119.531 88.7688 119.643 88.6622C119.756 88.5555 119.905 88.4973 120.06 88.5C120.136 88.4973 120.212 88.5097 120.284 88.5364C120.355 88.5631 120.42 88.6036 120.476 88.6556C120.532 88.7076 120.577 88.7701 120.608 88.8395C120.64 88.9089 120.657 88.9838 120.66 89.06C120.661 89.1392 120.647 89.2178 120.617 89.2912C120.587 89.3646 120.543 89.4313 120.487 89.4873C120.431 89.5433 120.365 89.5874 120.291 89.6171C120.218 89.6468 120.139 89.6614 120.06 89.66C119.903 89.66 119.751 89.5982 119.639 89.4878C119.527 89.3774 119.463 89.2274 119.46 89.07ZM119.65 90.98H120.46V97H119.65V90.98Z" fill="#E0E0E0"/>
<path d="M122.739 88.5H123.559V97H122.739V88.5Z" fill="#E0E0E0"/>
<path d="M125.3 96.46C125.299 96.3791 125.313 96.2987 125.343 96.2235C125.373 96.1483 125.418 96.0799 125.475 96.0222C125.532 95.9645 125.599 95.9187 125.674 95.8874C125.749 95.8561 125.829 95.84 125.91 95.84C125.992 95.8387 126.074 95.8537 126.15 95.8843C126.227 95.9149 126.296 95.9603 126.355 96.018C126.413 96.0757 126.46 96.1445 126.492 96.2204C126.524 96.2963 126.54 96.3777 126.54 96.46C126.54 96.6271 126.474 96.7873 126.355 96.9055C126.237 97.0236 126.077 97.09 125.91 97.09C125.828 97.0887 125.748 97.0714 125.673 97.039C125.599 97.0066 125.531 96.9599 125.474 96.9014C125.418 96.8429 125.373 96.7738 125.343 96.698C125.313 96.6223 125.299 96.5414 125.3 96.46Z" fill="#E0E0E0"/>
<path d="M127.489 94C127.478 93.5891 127.551 93.1802 127.705 92.7987C127.858 92.4173 128.088 92.0714 128.381 91.7826C128.673 91.4938 129.022 91.2682 129.405 91.1198C129.789 90.9714 130.199 90.9034 130.609 90.92C131.075 90.8958 131.538 90.9938 131.954 91.2043C132.37 91.4149 132.723 91.7305 132.979 92.12L132.369 92.54C132.174 92.2551 131.911 92.0235 131.604 91.8663C131.296 91.7091 130.955 91.6313 130.609 91.64C130.011 91.679 129.451 91.9441 129.041 92.3814C128.631 92.8188 128.403 93.3957 128.403 93.995C128.403 94.5943 128.631 95.1712 129.041 95.6086C129.451 96.0459 130.011 96.311 130.609 96.35C130.954 96.3675 131.297 96.2956 131.605 96.1414C131.914 95.9872 132.177 95.7559 132.369 95.47L132.979 95.88C132.723 96.2695 132.37 96.5852 131.954 96.7957C131.538 97.0062 131.075 97.1042 130.609 97.08C130.199 97.0966 129.789 97.0286 129.405 96.8802C129.022 96.7318 128.673 96.5062 128.381 96.2174C128.088 95.9286 127.858 95.5827 127.705 95.2013C127.551 94.8198 127.478 94.411 127.489 94Z" fill="#E0E0E0"/>
<path d="M133.859 94C133.859 93.3908 134.04 92.7953 134.379 92.2888C134.717 91.7823 135.198 91.3876 135.761 91.1544C136.324 90.9213 136.943 90.8603 137.54 90.9792C138.138 91.098 138.687 91.3914 139.117 91.8221C139.548 92.2529 139.841 92.8017 139.96 93.3991C140.079 93.9966 140.018 94.6159 139.785 95.1787C139.552 95.7415 139.157 96.2225 138.651 96.5609C138.144 96.8994 137.549 97.08 136.94 97.08C136.532 97.091 136.127 97.0189 135.748 96.868C135.369 96.7171 135.025 96.4906 134.737 96.2024C134.449 95.9142 134.222 95.5702 134.072 95.1916C133.921 94.8129 133.848 94.4075 133.859 94ZM139.19 94C139.17 93.5598 139.021 93.135 138.763 92.7784C138.504 92.4218 138.146 92.149 137.734 91.9939C137.321 91.8388 136.872 91.8083 136.442 91.9061C136.013 92.0039 135.621 92.2257 135.317 92.544C135.012 92.8622 134.807 93.263 134.728 93.6965C134.649 94.13 134.699 94.5772 134.872 94.9826C135.045 95.3879 135.333 95.7336 135.7 95.9766C136.068 96.2197 136.499 96.3496 136.94 96.35C137.245 96.3562 137.549 96.2988 137.831 96.1815C138.114 96.0643 138.369 95.8897 138.58 95.6688C138.792 95.4479 138.955 95.1856 139.06 94.8983C139.165 94.6111 139.209 94.3052 139.19 94Z" fill="#E0E0E0"/>
<path d="M151.67 93.52V97H150.85V93.6C150.85 92.33 150.21 91.67 149.11 91.67C148.83 91.6687 148.554 91.726 148.298 91.8382C148.042 91.9504 147.812 92.1149 147.624 92.3213C147.435 92.5276 147.292 92.7711 147.204 93.0362C147.115 93.3012 147.083 93.5818 147.11 93.86V97H146.29V93.6C146.29 92.33 145.65 91.67 144.54 91.67C144.26 91.6687 143.984 91.726 143.728 91.8382C143.472 91.9504 143.242 92.1149 143.054 92.3213C142.865 92.5276 142.722 92.7711 142.634 93.0362C142.545 93.3012 142.513 93.5818 142.54 93.86V97H141.72V91H142.5V92.1C142.733 91.7274 143.062 91.4242 143.453 91.2219C143.843 91.0197 144.281 90.9258 144.72 90.95C145.166 90.9153 145.613 91.0197 145.998 91.2489C146.383 91.4781 146.687 91.8208 146.87 92.23C147.118 91.8204 147.471 91.4853 147.894 91.26C148.316 91.0348 148.792 90.9276 149.27 90.95C149.605 90.9313 149.94 90.9864 150.251 91.1114C150.562 91.2364 150.842 91.4283 151.071 91.6735C151.3 91.9186 151.472 92.2111 151.576 92.5302C151.679 92.8492 151.711 93.1872 151.67 93.52Z" fill="#E0E0E0"/>
<path d="M234.82 107.39C235.233 107.368 235.626 107.202 235.93 106.92C236.66 106.35 236.35 105 236.41 103.42C236.41 100.2 236.41 95.42 236.36 89.36C236.36 87.83 236.36 86.22 236.36 84.52V83.24C236.384 82.8117 236.358 82.3819 236.28 81.96C236.213 81.7628 236.107 81.5812 235.967 81.4265C235.828 81.2717 235.659 81.147 235.47 81.06C235.049 80.9145 234.601 80.8666 234.16 80.92H222.07H192.6L21.9196 80.99C21.6997 80.9896 21.4829 81.041 21.2865 81.14C21.0902 81.239 20.92 81.3829 20.7896 81.56C20.54 81.9591 20.4441 82.4354 20.5196 82.9V104.47C20.5196 104.95 20.5196 105.53 20.5196 105.94C20.5545 106.154 20.6399 106.356 20.7686 106.53C20.8973 106.703 21.0656 106.844 21.2596 106.94C21.4478 107.039 21.6571 107.09 21.8696 107.09H42.0496H87.3696L164.1 107.15L215.83 107.23L229.89 107.28H233.55H234.8H233.55H229.89L215.83 107.33L164.1 107.41L87.3696 107.47H21.8696C21.4263 107.468 20.9977 107.311 20.658 107.026C20.3183 106.741 20.089 106.346 20.0096 105.91C19.9396 105.32 20.0096 104.91 20.0096 104.35V83C19.9957 82.7268 19.9957 82.4532 20.0096 82.18C20.0527 81.8826 20.1696 81.6007 20.3496 81.36C20.527 81.115 20.76 80.9156 21.0295 80.7783C21.2989 80.6409 21.5972 80.5696 21.8996 80.57L192.58 80.65H222.05H234.14C234.616 80.5979 235.099 80.6561 235.55 80.82C235.764 80.9158 235.956 81.0538 236.116 81.2255C236.276 81.3973 236.4 81.5995 236.48 81.82C236.568 82.2642 236.598 82.718 236.57 83.17C236.57 83.6 236.57 84.03 236.57 84.45C236.57 86.15 236.57 87.76 236.57 89.29C236.57 95.39 236.57 100.13 236.52 103.35C236.52 104.16 236.52 104.86 236.52 105.48C236.562 105.757 236.537 106.039 236.447 106.304C236.356 106.569 236.203 106.808 236 107C235.842 107.144 235.655 107.254 235.451 107.321C235.248 107.388 235.033 107.412 234.82 107.39Z" fill="#E0E0E0"/>
<path d="M27.8693 127.84C27.8693 129.55 26.6293 130.59 24.5793 130.59H22.4193V133.13H21.5693V125.13H24.5693C26.6293 125.08 27.8693 126.11 27.8693 127.84ZM27.0193 127.84C27.0193 126.55 26.1693 125.84 24.5593 125.84H22.4193V129.84H24.5593C26.1693 129.84 26.9993 129.1 26.9993 127.84H27.0193Z" fill="#263238"/>
<path d="M34.0497 129.38V133.13H33.2597V132.19C33.0341 132.527 32.7221 132.798 32.3563 132.974C31.9905 133.15 31.5842 133.225 31.1797 133.19C29.8097 133.19 28.9697 132.47 28.9697 131.43C28.9697 130.39 29.5697 129.71 31.3097 129.71H33.2297V129.34C33.2297 128.34 32.6397 127.75 31.5097 127.75C30.7798 127.741 30.0708 127.993 29.5097 128.46L29.1397 127.85C29.8398 127.3 30.7095 127.01 31.5997 127.03C31.9238 126.983 32.2544 127.01 32.5663 127.11C32.8782 127.209 33.1632 127.379 33.3996 127.606C33.6359 127.832 33.8174 128.11 33.93 128.418C34.0427 128.725 34.0837 129.054 34.0497 129.38ZM33.2297 131.31V130.31H31.3297C30.1597 130.31 29.7797 130.77 29.7797 131.39C29.7797 132.01 30.3397 132.53 31.3097 132.53C31.718 132.558 32.1245 132.454 32.4698 132.235C32.8152 132.015 33.0815 131.691 33.2297 131.31Z" fill="#263238"/>
<path d="M35.4199 132.44L35.7899 131.8C36.4199 132.241 37.1712 132.475 37.9399 132.47C39.0899 132.47 39.5599 132.08 39.5599 131.47C39.5599 129.9 35.6399 131.14 35.6399 128.75C35.6399 127.75 36.4899 127.02 38.0299 127.02C38.7827 127.005 39.5245 127.202 40.1699 127.59L39.8199 128.24C39.291 127.887 38.6659 127.705 38.0299 127.72C36.9399 127.72 36.4599 128.15 36.4599 128.72C36.4599 130.36 40.3799 129.13 40.3799 131.45C40.3799 132.45 39.4599 133.18 37.8799 133.18C37.0009 133.211 36.1363 132.95 35.4199 132.44Z" fill="#263238"/>
<path d="M41.0498 132.44L41.4098 131.8C42.0437 132.24 42.798 132.474 43.5698 132.47C44.7198 132.47 45.1898 132.08 45.1898 131.47C45.1898 129.9 41.2598 131.14 41.2598 128.75C41.2598 127.75 42.1198 127.02 43.6598 127.02C44.4121 127.009 45.1529 127.206 45.7998 127.59L45.4398 128.24C44.914 127.888 44.2925 127.706 43.6598 127.72C42.5598 127.72 42.0798 128.15 42.0798 128.72C42.0798 130.36 45.9998 129.13 45.9998 131.45C45.9998 132.45 45.0798 133.18 43.5098 133.18C42.6307 133.211 41.7661 132.95 41.0498 132.44Z" fill="#263238"/>
<path d="M56.2796 127.08L53.9896 133.08H53.2196L51.3096 128.08L49.3996 133.08H48.6296L46.3496 127.08H47.1296L49.0296 132.22L50.9696 127.08H51.6696L53.6096 132.22L55.5296 127.08H56.2796Z" fill="#263238"/>
<path d="M56.7201 130.1C56.7221 129.491 56.9044 128.897 57.2441 128.392C57.5837 127.886 58.0654 127.493 58.6284 127.262C59.1914 127.03 59.8103 126.97 60.4071 127.09C61.0039 127.21 61.5518 127.504 61.9815 127.936C62.4113 128.367 62.7036 128.916 62.8217 129.513C62.9397 130.11 62.8781 130.729 62.6447 131.291C62.4113 131.853 62.0165 132.334 61.5102 132.672C61.004 133.01 60.4089 133.19 59.8001 133.19C59.3918 133.201 58.9855 133.129 58.6062 132.977C58.2268 132.826 57.8824 132.598 57.594 132.309C57.3056 132.02 57.0794 131.675 56.9291 131.295C56.7788 130.915 56.7077 130.508 56.7201 130.1ZM62.0501 130.1C62.0286 129.66 61.8786 129.237 61.6186 128.881C61.3587 128.526 61.0002 128.255 60.5877 128.101C60.1751 127.948 59.7266 127.919 59.2976 128.017C58.8687 128.116 58.4781 128.339 58.1743 128.657C57.8706 128.976 57.667 129.377 57.5887 129.81C57.5104 130.243 57.5609 130.69 57.734 131.095C57.907 131.499 58.195 131.844 58.5623 132.087C58.9295 132.33 59.3599 132.459 59.8001 132.46C60.1068 132.466 60.4113 132.409 60.6945 132.291C60.9776 132.173 61.2332 131.997 61.4448 131.775C61.6564 131.553 61.8195 131.29 61.9238 131.001C62.028 130.713 62.071 130.406 62.0501 130.1Z" fill="#263238"/>
<path d="M67.5893 127V127.8H67.3893C67.1052 127.798 66.8239 127.856 66.5642 127.972C66.3044 128.087 66.0722 128.256 65.883 128.468C65.6938 128.68 65.5519 128.93 65.4667 129.201C65.3816 129.472 65.3552 129.758 65.3893 130.04V133.12H64.5693V127.12H65.3493V128.3C65.5479 127.883 65.8681 127.535 66.2679 127.303C66.6677 127.071 67.1284 126.965 67.5893 127Z" fill="#263238"/>
<path d="M74.5201 124.59V133.13H73.7401V131.93C73.4995 132.329 73.1565 132.656 72.7468 132.878C72.3371 133.099 71.8756 133.207 71.4101 133.19C70.5932 133.19 69.8098 132.865 69.2322 132.288C68.6546 131.71 68.3301 130.927 68.3301 130.11C68.3301 129.293 68.6546 128.51 69.2322 127.932C69.8098 127.355 70.5932 127.03 71.4101 127.03C71.864 127.017 72.3137 127.121 72.7163 127.331C73.1189 127.541 73.461 127.85 73.7101 128.23V124.59H74.5201ZM73.7201 130.1C73.6985 129.66 73.5482 129.236 73.2878 128.88C73.0274 128.525 72.6684 128.254 72.2553 128.1C71.8421 127.947 71.3931 127.919 70.9639 128.018C70.5347 128.118 70.1442 128.341 69.8408 128.661C69.5375 128.981 69.3347 129.382 69.2575 129.816C69.1804 130.25 69.2323 130.697 69.4069 131.101C69.5815 131.506 69.871 131.85 70.2395 132.092C70.6081 132.333 71.0394 132.461 71.4801 132.46C71.7859 132.465 72.0893 132.406 72.3713 132.288C72.6533 132.169 72.9076 131.994 73.1181 131.772C73.3287 131.55 73.4909 131.287 73.5945 130.999C73.6981 130.711 73.7409 130.405 73.7201 130.1Z" fill="#263238"/>
<path d="M37.1395 157.47V158.21H31.4395V150.15H36.9995V150.89H32.2995V153.76H36.4595V154.48H32.2995V157.48L37.1395 157.47Z" fill="#E0E0E0"/>
<path d="M44.53 154.7V158.21H43.72V154.78C43.7572 154.527 43.7368 154.27 43.6602 154.026C43.5835 153.783 43.4527 153.56 43.2776 153.374C43.1025 153.188 42.8875 153.045 42.6489 152.954C42.4103 152.863 42.1543 152.828 41.9 152.85C41.6116 152.831 41.3226 152.876 41.0529 152.979C40.7832 153.083 40.5392 153.244 40.3377 153.452C40.1362 153.659 39.982 153.907 39.8857 154.18C39.7895 154.452 39.7534 154.742 39.78 155.03V158.21H39V152.16H39.78V153.27C40.0251 152.889 40.3676 152.581 40.772 152.377C41.1764 152.173 41.628 152.081 42.08 152.11C42.42 152.087 42.7609 152.139 43.0782 152.263C43.3956 152.387 43.6817 152.58 43.9158 152.827C44.15 153.075 44.3265 153.371 44.4327 153.695C44.5389 154.019 44.5721 154.362 44.53 154.7Z" fill="#E0E0E0"/>
<path d="M49.9396 157.84C49.5782 158.132 49.124 158.285 48.6596 158.27C48.4215 158.297 48.1804 158.27 47.9542 158.191C47.7279 158.112 47.5223 157.984 47.3524 157.815C47.1825 157.646 47.0527 157.441 46.9726 157.215C46.8925 156.989 46.8641 156.748 46.8896 156.51V152.85H45.8096V152.16H46.8896V150.83H47.7096V152.16H49.5496V152.85H47.7096V156.46C47.6956 156.599 47.711 156.74 47.755 156.873C47.7989 157.007 47.8703 157.129 47.9646 157.233C48.0589 157.336 48.174 157.419 48.3023 157.476C48.4306 157.532 48.5694 157.561 48.7096 157.56C49.0376 157.571 49.3581 157.461 49.6096 157.25L49.9396 157.84Z" fill="#E0E0E0"/>
<path d="M56.4695 155.43H51.4095C51.426 155.725 51.5008 156.014 51.6297 156.28C51.7585 156.547 51.9387 156.785 52.1599 156.981C52.3812 157.177 52.6391 157.327 52.9188 157.423C53.1985 157.519 53.4944 157.559 53.7894 157.54C54.1369 157.552 54.4827 157.488 54.8024 157.351C55.1221 157.214 55.4079 157.009 55.6395 156.75L56.0995 157.28C55.6644 157.735 55.1048 158.051 54.4909 158.189C53.877 158.328 53.2359 158.282 52.6478 158.058C52.0598 157.834 51.5509 157.441 51.1847 156.929C50.8186 156.417 50.6116 155.809 50.5894 155.18C50.567 154.777 50.6287 154.374 50.7706 153.996C50.9125 153.618 51.1315 153.273 51.4137 152.985C51.6959 152.696 52.035 152.469 52.4096 152.318C52.7842 152.168 53.186 152.097 53.5894 152.11C53.9884 152.102 54.3846 152.177 54.7529 152.331C55.1213 152.484 55.4537 152.712 55.7292 153.001C56.0047 153.29 56.2172 153.632 56.3532 154.008C56.4892 154.383 56.5459 154.782 56.5195 155.18C56.4795 155.25 56.4695 155.34 56.4695 155.43ZM51.4095 154.83H55.6994C55.6623 154.286 55.4202 153.777 55.022 153.405C54.6238 153.033 54.0993 152.827 53.5544 152.827C53.0096 152.827 52.4851 153.033 52.0869 153.405C51.6887 153.777 51.4466 154.286 51.4095 154.83Z" fill="#E0E0E0"/>
<path d="M61.1994 152.11V152.9H60.9995C60.7163 152.898 60.4359 152.956 60.177 153.071C59.918 153.186 59.6863 153.354 59.4973 153.565C59.3082 153.775 59.166 154.024 59.0802 154.294C58.9944 154.564 58.9669 154.849 58.9995 155.13V158.22H58.1895V152.17H58.9695V153.35C59.1762 152.945 59.4986 152.611 59.8958 152.391C60.2929 152.17 60.7467 152.072 61.1994 152.11Z" fill="#E0E0E0"/>
<path d="M71.8993 155.18C71.92 155.584 71.8573 155.987 71.715 156.365C71.5728 156.744 71.3541 157.089 71.0726 157.379C70.791 157.669 70.4527 157.897 70.0788 158.051C69.7049 158.204 69.3034 158.279 68.8993 158.27C68.4451 158.285 67.9947 158.182 67.5917 157.972C67.1888 157.762 66.847 157.451 66.5993 157.07V160.44H65.7793V152.16H66.5593V153.35C66.8071 152.957 67.1535 152.636 67.564 152.418C67.9746 152.201 68.4349 152.094 68.8993 152.11C69.302 152.1 69.7024 152.173 70.0756 152.325C70.4488 152.476 70.7867 152.703 71.0683 152.991C71.3498 153.279 71.5689 153.622 71.7119 153.999C71.8549 154.376 71.9187 154.778 71.8993 155.18ZM71.0893 155.18C71.1099 154.871 71.0668 154.562 70.9628 154.27C70.8588 153.979 70.696 153.712 70.4846 153.486C70.2732 153.26 70.0176 153.08 69.7338 152.956C69.4499 152.833 69.1437 152.77 68.8343 152.77C68.5249 152.77 68.2187 152.833 67.9348 152.956C67.6509 153.08 67.3954 153.26 67.184 153.486C66.9726 153.712 66.8098 153.979 66.7058 154.27C66.6018 154.562 66.5587 154.871 66.5793 155.18C66.5587 155.489 66.6018 155.798 66.7058 156.09C66.8098 156.381 66.9726 156.648 67.184 156.874C67.3954 157.1 67.6509 157.28 67.9348 157.404C68.2187 157.527 68.5249 157.59 68.8343 157.59C69.1437 157.59 69.4499 157.527 69.7338 157.404C70.0176 157.28 70.2732 157.1 70.4846 156.874C70.696 156.648 70.8588 156.381 70.9628 156.09C71.0668 155.798 71.1099 155.489 71.0893 155.18Z" fill="#E0E0E0"/>
<path d="M78.0993 154.46V158.21H77.3193V157.21C77.0944 157.548 76.7826 157.82 76.4166 157.996C76.0505 158.172 75.6439 158.246 75.2393 158.21C73.8693 158.21 73.0293 157.49 73.0293 156.45C73.0293 155.41 73.6293 154.73 75.3593 154.73H77.2793V154.36C77.2793 153.36 76.6993 152.76 75.5693 152.76C74.838 152.753 74.1285 153.009 73.5693 153.48L73.1993 152.87C73.8986 152.318 74.7688 152.028 75.6593 152.05C75.9882 152.002 76.3236 152.031 76.6393 152.135C76.955 152.239 77.2423 152.415 77.4788 152.648C77.7152 152.882 77.8943 153.167 78.0019 153.481C78.1096 153.796 78.1429 154.131 78.0993 154.46ZM77.2793 156.39V155.39H75.3893C74.2093 155.39 73.8293 155.85 73.8293 156.47C73.8293 157.09 74.3993 157.61 75.3593 157.61C75.767 157.635 76.1721 157.53 76.5169 157.311C76.8616 157.092 77.1284 156.77 77.2793 156.39Z" fill="#E0E0E0"/>
<path d="M79.4795 157.52L79.8495 156.87C80.4761 157.319 81.2289 157.557 81.9995 157.55C83.1495 157.55 83.6195 157.16 83.6195 156.55C83.6195 154.98 79.6995 156.22 79.6995 153.83C79.6995 152.83 80.5495 152.1 82.0895 152.1C82.8402 152.091 83.5796 152.284 84.2295 152.66L83.8695 153.32C83.3437 152.968 82.7222 152.786 82.0895 152.8C80.9995 152.8 80.5095 153.23 80.5095 153.8C80.5095 155.44 84.4395 154.21 84.4395 156.53C84.4395 157.58 83.5195 158.26 81.9395 158.26C81.0611 158.285 80.1981 158.026 79.4795 157.52Z" fill="#E0E0E0"/>
<path d="M85.0996 157.52L85.4696 156.87C86.0962 157.319 86.849 157.557 87.6196 157.55C88.7696 157.55 89.2396 157.16 89.2396 156.55C89.2396 154.98 85.3196 156.22 85.3196 153.83C85.3196 152.83 86.1696 152.1 87.7096 152.1C88.4607 152.088 89.2009 152.281 89.8496 152.66L89.4996 153.32C88.9699 152.968 88.3453 152.787 87.7096 152.8C86.6196 152.8 86.1396 153.23 86.1396 153.8C86.1396 155.44 90.0596 154.21 90.0596 156.53C90.0596 157.58 89.1396 158.26 87.5596 158.26C86.6814 158.284 85.8189 158.024 85.0996 157.52Z" fill="#E0E0E0"/>
<path d="M100.329 152.16L97.9994 158.21H97.2294L95.3194 153.21L93.4094 158.21H92.6394L90.3594 152.16H91.1494L93.0394 157.3L94.9894 152.16H95.6894L97.6194 157.3L99.5394 152.16H100.329Z" fill="#E0E0E0"/>
<path d="M100.78 155.18C100.782 154.571 100.964 153.977 101.304 153.472C101.643 152.966 102.125 152.573 102.688 152.342C103.251 152.11 103.87 152.05 104.467 152.17C105.063 152.29 105.611 152.584 106.041 153.016C106.471 153.447 106.763 153.996 106.881 154.593C106.999 155.19 106.938 155.809 106.704 156.371C106.471 156.933 106.076 157.414 105.57 157.752C105.064 158.09 104.468 158.27 103.86 158.27C103.451 158.281 103.045 158.209 102.666 158.057C102.286 157.906 101.942 157.678 101.654 157.389C101.365 157.1 101.139 156.755 100.989 156.375C100.838 155.995 100.767 155.588 100.78 155.18ZM106.1 155.18C106.078 154.74 105.928 154.316 105.667 153.96C105.407 153.605 105.048 153.334 104.635 153.18C104.222 153.027 103.773 152.999 103.344 153.098C102.914 153.198 102.524 153.421 102.22 153.741C101.917 154.061 101.714 154.462 101.637 154.896C101.56 155.33 101.612 155.777 101.787 156.181C101.961 156.586 102.251 156.93 102.619 157.172C102.988 157.413 103.419 157.541 103.86 157.54C104.166 157.545 104.469 157.486 104.751 157.368C105.033 157.249 105.287 157.074 105.498 156.852C105.708 156.63 105.871 156.367 105.974 156.079C106.078 155.791 106.121 155.485 106.1 155.18Z" fill="#E0E0E0"/>
<path d="M111.65 152.11V152.9H111.45C111.166 152.898 110.886 152.956 110.627 153.071C110.368 153.186 110.137 153.354 109.947 153.565C109.758 153.775 109.616 154.024 109.53 154.294C109.445 154.564 109.417 154.849 109.45 155.13V158.22H108.64V152.17H109.42V153.35C109.626 152.945 109.949 152.611 110.346 152.391C110.743 152.17 111.197 152.072 111.65 152.11Z" fill="#E0E0E0"/>
<path d="M118.58 149.67V158.21H117.8V157C117.557 157.399 117.212 157.726 116.801 157.947C116.389 158.169 115.927 158.277 115.46 158.26C114.643 158.26 113.86 157.936 113.282 157.358C112.704 156.78 112.38 155.997 112.38 155.18C112.38 154.363 112.704 153.58 113.282 153.002C113.86 152.424 114.643 152.1 115.46 152.1C115.914 152.083 116.366 152.185 116.769 152.395C117.172 152.606 117.514 152.918 117.76 153.3V149.66L118.58 149.67ZM117.78 155.18C117.758 154.74 117.608 154.317 117.348 153.961C117.088 153.606 116.73 153.335 116.317 153.181C115.905 153.028 115.456 152.999 115.027 153.097C114.598 153.196 114.208 153.419 113.904 153.737C113.6 154.056 113.397 154.457 113.318 154.89C113.24 155.323 113.291 155.77 113.464 156.175C113.637 156.579 113.925 156.924 114.292 157.167C114.659 157.41 115.09 157.539 115.53 157.54C115.836 157.545 116.14 157.486 116.422 157.368C116.705 157.249 116.96 157.074 117.171 156.852C117.382 156.631 117.546 156.368 117.65 156.08C117.755 155.792 117.799 155.486 117.78 155.18Z" fill="#E0E0E0"/>
<path d="M186 150.89V154.05H190.16V154.79H186V158.21H185.14V150.15H190.67V150.89H186Z" fill="#FF725E"/>
<path d="M191.45 155.18C191.452 154.572 191.634 153.978 191.973 153.473C192.312 152.968 192.793 152.574 193.356 152.343C193.918 152.111 194.536 152.051 195.133 152.17C195.729 152.289 196.277 152.582 196.708 153.012C197.138 153.442 197.431 153.99 197.55 154.587C197.669 155.183 197.609 155.802 197.377 156.364C197.145 156.926 196.752 157.408 196.247 157.747C195.742 158.086 195.148 158.268 194.54 158.27C194.13 158.282 193.723 158.211 193.343 158.06C192.962 157.909 192.616 157.682 192.327 157.393C192.037 157.103 191.81 156.758 191.659 156.377C191.509 155.997 191.437 155.589 191.45 155.18ZM196.78 155.18C196.758 154.74 196.608 154.316 196.347 153.96C196.087 153.605 195.728 153.334 195.315 153.18C194.902 153.027 194.453 152.999 194.023 153.098C193.594 153.198 193.204 153.421 192.9 153.741C192.597 154.061 192.394 154.462 192.317 154.896C192.24 155.33 192.292 155.777 192.466 156.181C192.641 156.586 192.931 156.93 193.299 157.172C193.668 157.413 194.099 157.541 194.54 157.54C194.845 157.545 195.149 157.486 195.431 157.368C195.713 157.249 195.967 157.074 196.178 156.852C196.388 156.63 196.55 156.367 196.654 156.079C196.758 155.791 196.8 155.485 196.78 155.18Z" fill="#FF725E"/>
<path d="M202.32 152.11V152.9H202.13C201.846 152.898 201.566 152.956 201.307 153.071C201.048 153.186 200.816 153.354 200.627 153.565C200.438 153.775 200.296 154.024 200.21 154.294C200.125 154.564 200.097 154.849 200.13 155.13V158.22H199.31V152.17H200.1V153.35C200.306 152.947 200.627 152.614 201.022 152.394C201.417 152.173 201.868 152.074 202.32 152.11Z" fill="#FF725E"/>
<path d="M209.34 152.16V157.47C209.34 159.55 208.34 160.47 206.34 160.47C205.319 160.506 204.319 160.176 203.52 159.54L203.94 158.91C204.606 159.466 205.452 159.761 206.32 159.74C207.85 159.74 208.549 159.04 208.549 157.55V156.77C208.29 157.152 207.937 157.461 207.523 157.668C207.11 157.875 206.651 157.972 206.19 157.95C205.79 157.973 205.389 157.915 205.013 157.778C204.637 157.641 204.292 157.428 204.001 157.154C203.709 156.879 203.477 156.547 203.319 156.18C203.16 155.812 203.078 155.416 203.078 155.015C203.078 154.614 203.16 154.218 203.319 153.85C203.477 153.483 203.709 153.151 204.001 152.876C204.292 152.602 204.637 152.389 205.013 152.252C205.389 152.115 205.79 152.057 206.19 152.08C206.66 152.058 207.128 152.157 207.549 152.369C207.969 152.581 208.328 152.898 208.59 153.29V152.13L209.34 152.16ZM208.549 155.03C208.565 154.572 208.444 154.121 208.202 153.732C207.96 153.344 207.607 153.037 207.189 152.85C206.771 152.663 206.307 152.606 205.856 152.684C205.405 152.763 204.987 152.974 204.657 153.292C204.327 153.609 204.099 154.017 204.003 154.465C203.906 154.912 203.945 155.379 204.115 155.804C204.285 156.229 204.578 156.594 204.957 156.851C205.335 157.109 205.782 157.248 206.24 157.25C206.543 157.27 206.847 157.226 207.132 157.12C207.418 157.015 207.677 156.851 207.895 156.639C208.113 156.427 208.284 156.171 208.397 155.889C208.509 155.607 208.561 155.304 208.549 155V155.03Z" fill="#FF725E"/>
<path d="M210.999 155.18C211.001 154.571 211.184 153.977 211.523 153.472C211.863 152.966 212.345 152.573 212.908 152.342C213.471 152.11 214.09 152.05 214.686 152.17C215.283 152.29 215.831 152.584 216.261 153.016C216.691 153.447 216.983 153.996 217.101 154.593C217.219 155.19 217.157 155.809 216.924 156.371C216.691 156.933 216.296 157.414 215.79 157.752C215.283 158.09 214.688 158.27 214.079 158.27C213.671 158.281 213.265 158.209 212.885 158.057C212.506 157.906 212.162 157.678 211.873 157.389C211.585 157.1 211.359 156.755 211.208 156.375C211.058 155.995 210.987 155.588 210.999 155.18ZM216.319 155.18C216.298 154.74 216.148 154.316 215.887 153.96C215.627 153.605 215.268 153.334 214.855 153.18C214.441 153.027 213.992 152.999 213.563 153.098C213.134 153.198 212.744 153.421 212.44 153.741C212.137 154.061 211.934 154.462 211.857 154.896C211.78 155.33 211.832 155.777 212.006 156.181C212.181 156.586 212.47 156.93 212.839 157.172C213.207 157.413 213.639 157.541 214.079 157.54C214.387 157.548 214.693 157.491 214.977 157.374C215.261 157.257 215.518 157.081 215.731 156.859C215.943 156.637 216.107 156.373 216.212 156.084C216.317 155.795 216.36 155.487 216.339 155.18H216.319Z" fill="#FF725E"/>
<path d="M222 157.84C221.64 158.134 221.185 158.286 220.72 158.27C220.482 158.295 220.242 158.267 220.017 158.187C219.791 158.108 219.587 157.979 219.417 157.81C219.248 157.642 219.118 157.438 219.037 157.213C218.956 156.988 218.927 156.748 218.95 156.51V152.85H217.87V152.16H219V150.83H219.82V152.16H221.66V152.85H219.82V156.46C219.806 156.599 219.822 156.74 219.866 156.873C219.909 157.007 219.981 157.129 220.075 157.233C220.169 157.336 220.285 157.419 220.413 157.476C220.541 157.532 220.68 157.561 220.82 157.56C221.145 157.57 221.462 157.459 221.71 157.25L222 157.84Z" fill="#FF725E"/>
<path d="M227 152.21C227 151.39 226.32 150.81 225.14 150.81C224.728 150.784 224.315 150.855 223.935 151.017C223.555 151.178 223.218 151.426 222.95 151.74L222.34 151.28C222.693 150.875 223.135 150.558 223.631 150.351C224.127 150.145 224.664 150.056 225.2 150.09C226.81 150.09 227.85 150.86 227.85 152.09C227.85 154.09 225.74 154.15 225.74 155.79H224.89C224.86 153.89 227 153.72 227 152.21ZM224.72 157.67C224.718 157.591 224.733 157.513 224.763 157.44C224.793 157.367 224.837 157.301 224.893 157.246C224.949 157.191 225.016 157.148 225.089 157.119C225.163 157.091 225.241 157.077 225.32 157.08C225.399 157.077 225.478 157.091 225.552 157.119C225.626 157.147 225.693 157.191 225.75 157.246C225.807 157.301 225.852 157.367 225.883 157.44C225.914 157.512 225.93 157.591 225.93 157.67C225.927 157.83 225.862 157.983 225.748 158.095C225.634 158.207 225.48 158.27 225.32 158.27C225.239 158.274 225.157 158.262 225.081 158.233C225.005 158.205 224.935 158.161 224.876 158.105C224.817 158.049 224.77 157.982 224.738 157.907C224.706 157.832 224.69 157.751 224.69 157.67H224.72Z" fill="#FF725E"/>
<path d="M234.82 168.57C235.235 168.546 235.628 168.376 235.93 168.09C236.66 167.53 236.35 166.17 236.41 164.6C236.41 161.37 236.41 156.6 236.36 150.53C236.36 149.01 236.36 147.39 236.36 145.7V144.41C236.384 143.985 236.358 143.559 236.28 143.14C236.212 142.942 236.105 142.76 235.966 142.604C235.827 142.448 235.658 142.321 235.47 142.23C235.048 142.089 234.601 142.042 234.16 142.09H222.07H192.6L21.9196 142.17C21.6993 142.167 21.4816 142.217 21.2849 142.317C21.0882 142.416 20.9183 142.561 20.7896 142.74C20.5392 143.139 20.4431 143.615 20.5196 144.08V165.7C20.5196 166.19 20.5196 166.77 20.5196 167.18C20.5568 167.393 20.6431 167.594 20.7715 167.767C20.9 167.941 21.0671 168.082 21.2596 168.18C21.4494 168.274 21.6577 168.326 21.8696 168.33H42.0496H87.3696H164.1L215.83 168.41H229.89H233.55H234.8H233.55H229.89H215.83L164.1 168.49L87.3696 168.55H21.8696C21.4277 168.548 21.0002 168.393 20.6608 168.11C20.3213 167.827 20.091 167.434 20.0096 167C19.9396 166.4 20.0096 166 20.0096 165.43V144.14C19.9956 143.867 19.9956 143.593 20.0096 143.32C20.0524 143.019 20.1692 142.734 20.3496 142.49C20.5275 142.246 20.7609 142.048 21.0304 141.913C21.2999 141.777 21.5979 141.708 21.8996 141.71L192.58 141.78H222.05H234.14C234.616 141.733 235.098 141.791 235.55 141.95C235.769 142.054 235.965 142.201 236.125 142.383C236.285 142.566 236.406 142.779 236.48 143.01C236.568 143.451 236.598 143.901 236.57 144.35C236.57 144.79 236.57 145.21 236.57 145.64C236.57 147.33 236.57 148.95 236.57 150.47C236.57 156.57 236.57 161.31 236.52 164.54C236.52 165.34 236.52 166.05 236.52 166.66C236.543 166.921 236.506 167.183 236.413 167.427C236.319 167.672 236.171 167.892 235.98 168.07C235.832 168.23 235.652 168.357 235.453 168.443C235.253 168.529 235.037 168.572 234.82 168.57Z" fill="#E0E0E0"/>
<path d="M106.689 265L107.029 264.34C107.757 264.993 108.702 265.35 109.679 265.34C111.189 265.34 111.849 264.71 111.849 263.92C111.849 261.71 106.849 263.06 106.849 260.08C106.849 258.9 107.769 257.88 109.849 257.88C110.731 257.868 111.597 258.114 112.339 258.59L112.059 259.27C111.4 258.844 110.634 258.611 109.849 258.6C108.369 258.6 107.719 259.26 107.719 260.06C107.719 262.27 112.719 260.94 112.719 263.87C112.719 265.05 111.769 266.07 109.719 266.07C108.611 266.109 107.528 265.727 106.689 265Z" fill="#263238"/>
<path d="M114.18 258C114.181 257.923 114.198 257.846 114.228 257.775C114.259 257.704 114.304 257.64 114.36 257.586C114.415 257.532 114.481 257.49 114.553 257.461C114.625 257.433 114.702 257.419 114.78 257.42C114.893 257.424 115.004 257.461 115.096 257.527C115.189 257.593 115.26 257.685 115.301 257.792C115.342 257.898 115.351 258.014 115.326 258.125C115.301 258.236 115.245 258.338 115.163 258.417C115.081 258.496 114.978 258.549 114.866 258.57C114.754 258.591 114.638 258.578 114.533 258.534C114.429 258.489 114.339 258.415 114.276 258.32C114.213 258.225 114.18 258.114 114.18 258ZM114.36 259.91H115.18V265.91H114.36V259.91Z" fill="#263238"/>
<path d="M130.46 262.45V266H129.64V262.57C129.679 262.318 129.66 262.06 129.584 261.817C129.509 261.573 129.379 261.35 129.205 261.164C129.03 260.978 128.816 260.834 128.578 260.743C128.339 260.653 128.084 260.617 127.83 260.64C127.541 260.621 127.252 260.666 126.983 260.769C126.713 260.873 126.469 261.034 126.267 261.242C126.066 261.449 125.912 261.697 125.815 261.97C125.719 262.242 125.683 262.532 125.71 262.82V266H124.89V260H125.67V261C125.918 260.62 126.262 260.312 126.668 260.108C127.074 259.905 127.526 259.812 127.98 259.84C128.324 259.811 128.67 259.861 128.993 259.984C129.316 260.107 129.607 260.3 129.845 260.551C130.083 260.801 130.262 261.102 130.368 261.431C130.474 261.759 130.506 262.108 130.46 262.45Z" fill="#263238"/>
<path d="M123.049 259.91V265.22C123.049 267.3 122.049 268.22 120.049 268.22C119.028 268.259 118.027 267.929 117.229 267.29L117.639 266.66C118.307 267.214 119.152 267.509 120.019 267.49C121.549 267.49 122.249 266.79 122.249 265.3V264.53C121.99 264.909 121.637 265.215 121.226 265.42C120.815 265.625 120.358 265.721 119.899 265.7C119.5 265.723 119.099 265.665 118.723 265.528C118.346 265.391 118.002 265.178 117.711 264.904C117.419 264.629 117.187 264.297 117.029 263.93C116.87 263.562 116.788 263.166 116.788 262.765C116.788 262.364 116.87 261.968 117.029 261.6C117.187 261.233 117.419 260.901 117.711 260.626C118.002 260.352 118.346 260.139 118.723 260.002C119.099 259.865 119.5 259.807 119.899 259.83C120.368 259.808 120.835 259.908 121.254 260.12C121.673 260.332 122.029 260.649 122.289 261.04V259.88L123.049 259.91ZM122.259 262.78C122.275 262.32 122.153 261.866 121.909 261.477C121.664 261.087 121.308 260.78 120.887 260.595C120.466 260.41 119.999 260.355 119.547 260.438C119.094 260.521 118.677 260.737 118.349 261.059C118.021 261.382 117.797 261.795 117.706 262.246C117.615 262.697 117.662 263.165 117.839 263.589C118.017 264.013 118.318 264.374 118.703 264.626C119.088 264.877 119.54 265.008 119.999 265C120.296 265.012 120.592 264.964 120.869 264.857C121.147 264.75 121.399 264.588 121.611 264.38C121.823 264.172 121.989 263.922 122.101 263.647C122.213 263.372 122.267 263.077 122.259 262.78Z" fill="#263238"/>
<path d="M141.62 259.91V265.91H140.84V264.8C140.616 265.173 140.295 265.479 139.911 265.685C139.527 265.891 139.095 265.989 138.66 265.97C138.313 266.002 137.963 265.956 137.636 265.836C137.309 265.716 137.012 265.524 136.768 265.275C136.524 265.026 136.338 264.726 136.224 264.397C136.111 264.067 136.072 263.717 136.11 263.37V259.86H136.93V263.29C136.93 264.57 137.59 265.23 138.74 265.23C139.025 265.24 139.31 265.189 139.574 265.08C139.837 264.971 140.075 264.807 140.27 264.598C140.465 264.39 140.614 264.142 140.705 263.872C140.796 263.601 140.829 263.314 140.8 263.03V259.86L141.62 259.91Z" fill="#263238"/>
<path d="M150 262.93C150.021 263.334 149.958 263.737 149.816 264.115C149.673 264.494 149.455 264.839 149.173 265.129C148.892 265.419 148.553 265.647 148.179 265.801C147.805 265.954 147.404 266.029 147 266.02C146.546 266.033 146.096 265.929 145.694 265.719C145.291 265.509 144.949 265.2 144.7 264.82V268.19H143.88V259.91H144.67V261.1C144.915 260.706 145.259 260.384 145.668 260.167C146.077 259.949 146.537 259.843 147 259.86C147.403 259.85 147.803 259.923 148.176 260.075C148.549 260.226 148.887 260.453 149.169 260.741C149.45 261.029 149.669 261.372 149.812 261.749C149.955 262.126 150.019 262.528 150 262.93ZM149.18 262.93C149.16 262.487 149.011 262.06 148.751 261.702C148.49 261.343 148.13 261.069 147.715 260.914C147.3 260.758 146.849 260.728 146.417 260.827C145.985 260.926 145.592 261.15 145.286 261.471C144.981 261.791 144.776 262.195 144.698 262.631C144.619 263.067 144.671 263.516 144.846 263.923C145.021 264.33 145.312 264.677 145.683 264.92C146.053 265.163 146.487 265.292 146.93 265.29C147.239 265.299 147.547 265.243 147.833 265.127C148.12 265.011 148.379 264.836 148.594 264.614C148.809 264.392 148.976 264.128 149.084 263.838C149.192 263.548 149.238 263.239 149.22 262.93H149.18Z" fill="#263238"/>
<path d="M234.82 275.88C235.234 275.858 235.627 275.692 235.93 275.41C236.66 274.84 236.35 273.48 236.41 271.91C236.41 268.68 236.41 263.91 236.36 257.84C236.36 256.32 236.36 254.7 236.36 253.01V251.72C236.385 251.295 236.358 250.869 236.28 250.45C236.212 250.252 236.105 250.07 235.966 249.914C235.827 249.758 235.659 249.631 235.47 249.54C235.049 249.399 234.602 249.352 234.16 249.4H222.07H192.6L21.9201 249.48C21.7003 249.48 21.4834 249.531 21.287 249.63C21.0907 249.729 20.9205 249.873 20.7901 250.05C20.5397 250.449 20.4437 250.925 20.5201 251.39V273C20.5201 273.49 20.5201 274.07 20.5201 274.48C20.5558 274.693 20.6415 274.895 20.7701 275.069C20.8987 275.243 21.0666 275.384 21.2601 275.48C21.4483 275.579 21.6576 275.63 21.8701 275.63H42.0501H87.3701L164.1 275.68L215.83 275.77H229.89H233.55H234.8H233.55H229.89L215.83 275.82L164.1 275.9L87.3701 275.96H21.8701C21.5782 275.952 21.2914 275.88 21.0301 275.75C20.7692 275.619 20.5428 275.429 20.369 275.194C20.1953 274.96 20.0792 274.688 20.0301 274.4C19.9601 273.8 20.0301 273.4 20.0301 272.83V251.45C20.0161 251.177 20.0161 250.903 20.0301 250.63C20.0729 250.329 20.1897 250.044 20.3701 249.8C20.548 249.556 20.7813 249.358 21.0509 249.223C21.3204 249.087 21.6184 249.018 21.9201 249.02L192.6 249.09H222.07H234.16C234.637 249.043 235.118 249.101 235.57 249.26C235.79 249.364 235.985 249.511 236.145 249.693C236.305 249.876 236.426 250.089 236.5 250.32C236.589 250.761 236.619 251.211 236.59 251.66C236.59 252.1 236.59 252.53 236.59 252.95C236.59 254.64 236.59 256.26 236.59 257.78C236.59 263.88 236.59 268.62 236.54 271.85C236.54 272.65 236.54 273.36 236.54 273.97C236.564 274.231 236.528 274.493 236.434 274.738C236.341 274.982 236.192 275.202 236 275.38C235.85 275.542 235.667 275.671 235.464 275.757C235.26 275.843 235.041 275.885 234.82 275.88Z" fill="#263238"/>
<path d="M225.39 199.72H31.32C25.2062 199.72 20.25 204.676 20.25 210.79V215.25C20.25 221.364 25.2062 226.32 31.32 226.32H225.39C231.504 226.32 236.46 221.364 236.46 215.25V210.79C236.46 204.676 231.504 199.72 225.39 199.72Z" fill="#FF725E"/>
<path d="M111.83 208.29H112.68V215.61H117.19V216.35H111.83V208.29Z" fill="white"/>
<path d="M117.73 213.32C117.73 212.711 117.91 212.116 118.248 211.61C118.586 211.104 119.066 210.709 119.629 210.475C120.191 210.242 120.81 210.18 121.407 210.298C122.004 210.417 122.553 210.709 122.984 211.139C123.415 211.568 123.709 212.116 123.829 212.713C123.949 213.31 123.89 213.929 123.658 214.492C123.426 215.055 123.033 215.536 122.528 215.876C122.023 216.216 121.428 216.398 120.82 216.4C120.411 216.412 120.005 216.341 119.625 216.191C119.245 216.041 118.9 215.815 118.611 215.526C118.321 215.238 118.094 214.893 117.942 214.514C117.791 214.135 117.719 213.728 117.73 213.32ZM123.06 213.32C123.038 212.88 122.888 212.456 122.627 212.1C122.367 211.745 122.008 211.474 121.595 211.32C121.182 211.167 120.733 211.139 120.303 211.238C119.874 211.338 119.484 211.561 119.18 211.881C118.877 212.201 118.674 212.602 118.597 213.036C118.52 213.47 118.572 213.917 118.746 214.321C118.921 214.726 119.211 215.07 119.579 215.312C119.948 215.553 120.379 215.681 120.82 215.68C121.125 215.685 121.429 215.626 121.711 215.508C121.993 215.389 122.247 215.214 122.458 214.992C122.668 214.77 122.83 214.507 122.934 214.219C123.038 213.931 123.08 213.625 123.06 213.32Z" fill="white"/>
<path d="M131.16 210.29V215.61C131.16 217.69 130.16 218.61 128.16 218.61C127.138 218.652 126.136 218.321 125.34 217.68L125.76 217.06C126.426 217.618 127.272 217.913 128.14 217.89C129.67 217.89 130.37 217.19 130.37 215.69V214.92C130.107 215.298 129.753 215.604 129.341 215.808C128.928 216.013 128.47 216.11 128.01 216.09C127.233 216.09 126.488 215.781 125.938 215.232C125.389 214.682 125.08 213.937 125.08 213.16C125.08 212.383 125.389 211.638 125.938 211.088C126.488 210.539 127.233 210.23 128.01 210.23C128.479 210.207 128.946 210.307 129.365 210.519C129.784 210.731 130.141 211.049 130.4 211.44V210.27L131.16 210.29ZM130.36 213.17C130.376 212.712 130.255 212.26 130.012 211.871C129.769 211.483 129.416 211.175 128.997 210.989C128.578 210.802 128.114 210.745 127.662 210.825C127.211 210.904 126.794 211.117 126.464 211.435C126.134 211.753 125.907 212.163 125.812 212.611C125.716 213.059 125.757 213.526 125.929 213.951C126.1 214.376 126.395 214.74 126.774 214.996C127.154 215.253 127.602 215.39 128.06 215.39C128.36 215.41 128.662 215.366 128.944 215.263C129.227 215.159 129.485 214.998 129.701 214.789C129.918 214.58 130.088 214.328 130.202 214.049C130.315 213.77 130.369 213.471 130.36 213.17Z" fill="white"/>
<path d="M136.27 208.38C136.27 208.221 136.333 208.068 136.445 207.956C136.558 207.843 136.71 207.78 136.87 207.78C137.029 207.78 137.181 207.843 137.294 207.956C137.406 208.068 137.47 208.221 137.47 208.38C137.47 208.539 137.406 208.692 137.294 208.804C137.181 208.917 137.029 208.98 136.87 208.98C136.71 208.98 136.558 208.917 136.445 208.804C136.333 208.692 136.27 208.539 136.27 208.38ZM136.45 210.29H137.27V216.35H136.45V210.29Z" fill="white"/>
<path d="M145.12 212.84V216.35H144.3V212.92C144.337 212.667 144.316 212.409 144.24 212.165C144.163 211.921 144.032 211.698 143.857 211.511C143.683 211.325 143.468 211.18 143.229 211.088C142.991 210.996 142.735 210.959 142.48 210.98C142.19 210.961 141.901 211.006 141.63 211.11C141.36 211.214 141.115 211.376 140.913 211.585C140.712 211.793 140.558 212.043 140.462 212.316C140.367 212.59 140.332 212.881 140.36 213.17V216.35H139.55V210.29H140.33V211.41C140.574 211.028 140.917 210.719 141.321 210.515C141.726 210.311 142.178 210.22 142.63 210.25C142.973 210.222 143.317 210.271 143.639 210.393C143.96 210.515 144.251 210.707 144.489 210.955C144.727 211.202 144.907 211.5 145.017 211.826C145.126 212.152 145.161 212.499 145.12 212.84Z" fill="white"/>
</svg>
