<svg width="115" height="175" viewBox="0 0 115 175" fill="none" xmlns="http://www.w3.org/2000/svg">
<path d="M72.3994 123.52C85.4894 117.96 100.649 107.03 107.399 93.62C92.8733 99.6491 80.6235 110.114 72.3994 123.52Z" fill="#263238"/>
<path d="M75.1895 102.71C88.2795 97.16 103.439 86.23 110.189 72.82C95.6608 78.84 83.4094 89.3027 75.1895 102.71Z" fill="#263238"/>
<path d="M79 82.48C92.1 76.92 107.25 65.99 114 52.59C99.4724 58.6118 87.2215 69.074 79 82.48Z" fill="#263238"/>
<path d="M83.7197 61.3C96.0697 54 109.84 41 115 26.82C101.276 34.8153 90.361 46.8588 83.7497 61.3" fill="#263238"/>
<path d="M88.7998 45.09C97.7998 33.32 106.19 15.8 106.08 0.619995C96.0763 13.4239 90.0661 28.891 88.7998 45.09Z" fill="#263238"/>
<path d="M86.2798 52.8C84.4598 36.88 78.2798 16.87 67.7598 4.92999C69.5358 22.257 75.9318 38.7893 86.2798 52.8Z" fill="#263238"/>
<path d="M82.0496 70.21C78.8496 53.8 70.7496 33.5 58.8096 21.99C62.0784 39.8609 70.1071 56.5193 82.0496 70.21Z" fill="#263238"/>
<path d="M77.19 91.44C74 75 65.88 54.73 54 43.22C57.2689 61.0909 65.2975 77.7493 77.24 91.44" fill="#263238"/>
<path d="M73.2898 117.51C70.0798 101.1 61.9798 80.8 50.0498 69.29C53.3187 87.161 61.3473 103.819 73.2898 117.51Z" fill="#263238"/>
<path d="M89.4092 42C89.3605 42.0763 89.3265 42.1611 89.3092 42.25C89.2392 42.44 89.1592 42.68 89.0592 42.98C88.8392 43.67 88.5292 44.62 88.1492 45.82C87.3592 48.29 86.2992 51.88 85.0492 56.34C83.7992 60.8 82.4192 66.13 80.9992 72.08C79.5792 78.03 78.1792 84.62 76.8592 91.56C75.5392 98.5 74.5092 105.16 73.6392 111.22C72.7692 117.28 72.1492 122.76 71.6992 127.36C71.2492 131.96 70.9292 135.7 70.7692 138.29C70.6892 139.55 70.6292 140.54 70.5792 141.29C70.5792 141.61 70.5792 141.86 70.5792 142.07C70.566 142.156 70.566 142.244 70.5792 142.33C70.6099 142.247 70.6268 142.159 70.6292 142.07C70.6292 141.87 70.6292 141.61 70.7092 141.3C70.7792 140.58 70.8792 139.59 70.9992 138.3C71.2192 135.73 71.5892 132 72.0892 127.4C72.5892 122.8 73.2792 117.34 74.1392 111.29C74.9992 105.24 76.1392 98.6 77.3992 91.66C78.6592 84.72 80.1192 78.15 81.4892 72.19C82.8592 66.23 84.2192 60.9 85.4292 56.43C86.6392 51.96 87.6392 48.36 88.3692 45.88L89.1892 43.01C89.2692 42.71 89.3292 42.46 89.3892 42.26C89.4072 42.1746 89.4139 42.0872 89.4092 42Z" fill="#263238"/>
<path d="M65.9997 132.18C71.5497 120.56 75.5897 104.18 72.8697 91.45C66.6638 104.068 64.2762 118.224 65.9997 132.18Z" fill="#455A64"/>
<path d="M56.7898 117.13C62.3398 105.5 66.3798 89.13 63.6498 76.4C57.4417 89.0177 55.0573 103.175 56.7898 117.13Z" fill="#455A64"/>
<path d="M48.5095 101.82C54.0595 90.19 58.0995 73.82 55.3695 61.09C49.1615 73.7077 46.777 87.8649 48.5095 101.82Z" fill="#455A64"/>
<path d="M40.3497 85.31C44.4797 73.01 46.5497 56.23 42.3497 43.96C37.6904 57.2583 36.9956 71.624 40.3497 85.31Z" fill="#455A64"/>
<path d="M34.9994 71.79C34.5894 58.7 30.7394 42.3 22.6094 32.63C22.7911 46.6189 27.1015 60.2424 34.9994 71.79Z" fill="#455A64"/>
<path d="M37.4896 78.28C27.8596 69.2 13.2196 60.17 0.0595703 58.99C10.3527 68.9819 23.3791 75.6952 37.4896 78.28Z" fill="#455A64"/>
<path d="M43.9996 92.06C33.2096 83.5 17.1696 75.48 3.30957 75.45C14.9281 84.895 29.0904 90.6762 43.9996 92.06Z" fill="#455A64"/>
<path d="M52.0999 108.67C41.3099 100.12 25.2799 92.09 11.4199 92.06C23.0357 101.503 37.1942 107.284 52.0999 108.67Z" fill="#455A64"/>
<path d="M63.4097 127.79C52.6197 119.23 36.5797 111.21 22.7197 111.17C34.3352 120.622 48.4986 126.407 63.4097 127.79Z" fill="#455A64"/>
<path d="M33.7793 69.42C33.7793 69.42 33.7793 69.49 33.8393 69.63L34.0593 70.25L34.9593 72.6C35.7493 74.6 36.9593 77.6 38.4893 81.18C41.5693 88.37 46.1393 98.18 51.8093 108.72C54.6493 113.97 57.4993 118.91 60.1593 123.34C62.8193 127.77 65.3493 131.71 67.5193 134.97C69.6893 138.23 71.5193 140.84 72.7593 142.62L74.2393 144.62L74.6293 145.14C74.7193 145.26 74.7693 145.32 74.7793 145.31C74.747 145.241 74.7103 145.174 74.6693 145.11L74.3193 144.56C73.9693 144.05 73.5093 143.35 72.9193 142.47C71.6793 140.66 69.9193 138.02 67.8093 134.74C65.6993 131.46 63.2093 127.5 60.5493 123.07C57.8893 118.64 55.0793 113.69 52.2393 108.44C46.5693 98 41.9993 88.2 38.8093 81C37.2293 77.42 35.9793 74.51 35.1393 72.49L34.1393 70.17L33.8693 69.57C33.8441 69.5173 33.814 69.4671 33.7793 69.42Z" fill="#263238"/>
<path d="M39.5791 133.59H94.7391V144.22H89.0691L84.2991 174.54H50.1991L45.2891 144.22H39.5791V133.59Z" fill="#FF725E"/>
<path d="M39.5791 144C39.5791 143.86 51.8391 143.74 66.9591 143.74C82.0791 143.74 94.3391 143.86 94.3391 144C94.3391 144.14 82.0891 144.25 66.9591 144.25C51.8291 144.25 39.5791 144.14 39.5791 144Z" fill="#263238"/>
</svg>
