<svg width="64" height="127" viewBox="0 0 64 127" fill="none" xmlns="http://www.w3.org/2000/svg">
<path d="M35.2696 107.17C34.5996 104.53 36.3496 101.88 38.2696 99.97C40.1896 98.06 42.5596 96.36 43.5896 93.83C45.2496 89.73 43.0796 84.39 45.8896 80.98C47.5496 78.98 50.4996 78.32 51.9696 76.17C52.6487 74.9797 53.1029 73.6747 53.3096 72.32C54.9026 65.5021 58.2976 59.2372 63.1396 54.18C63.4312 60.2662 62.0771 66.3184 59.2196 71.7C58.0796 73.85 56.6796 75.94 56.2896 78.35C55.6596 82.25 57.8096 86.29 56.8296 90.12C55.7096 94.5 50.7696 97.41 50.5096 101.92C50.2896 105.74 53.5996 109.11 53.3296 112.92C53.1194 114.543 52.5264 116.092 51.5996 117.44C48.5996 122.33 44.2696 125.69 37.6896 125.54L29.6396 125.78L35.2696 107.17Z" fill="#FF725E"/>
<g opacity="0.3">
<path opacity="0.3" d="M35.2696 107.17C34.5996 104.53 36.3496 101.88 38.2696 99.97C40.1896 98.06 42.5596 96.36 43.5896 93.83C45.2496 89.73 43.0796 84.39 45.8896 80.98C47.5496 78.98 50.4996 78.32 51.9696 76.17C52.6487 74.9797 53.1029 73.6747 53.3096 72.32C54.9026 65.5021 58.2976 59.2372 63.1396 54.18C63.4312 60.2662 62.0771 66.3184 59.2196 71.7C58.0796 73.85 56.6796 75.94 56.2896 78.35C55.6596 82.25 57.8096 86.29 56.8296 90.12C55.7096 94.5 50.7696 97.41 50.5096 101.92C50.2896 105.74 53.5996 109.11 53.3296 112.92C53.1194 114.543 52.5264 116.092 51.5996 117.44C48.5996 122.33 44.2696 125.69 37.6896 125.54L29.6396 125.78L35.2696 107.17Z" fill="black"/>
</g>
<path d="M28 126C27.2619 126.106 26.5112 126.085 25.78 125.94C24.8904 125.801 24.0163 125.577 23.17 125.27C22.0048 124.856 20.9166 124.251 19.95 123.48C19.3669 123.007 18.9128 122.395 18.63 121.7C18.3882 120.919 18.2636 120.107 18.26 119.29C18.2519 118.421 18.1951 117.553 18.09 116.69C17.9266 115.767 17.5871 114.884 17.09 114.09C16.15 112.42 14.58 110.83 14.09 108.56C13.6 106.29 13.96 103.92 14.34 101.51C14.72 99.1 15.11 96.46 14.2 93.94C13.29 91.42 11.6 89.14 10.73 86.29C9.85998 83.44 10.29 80.34 10.13 77.29C10.0868 75.7464 9.74729 74.2255 9.12998 72.81C8.48998 71.38 7.58997 70.03 6.89997 68.53C5.47997 65.53 5.24997 62.05 4.89997 58.67C4.71997 56.98 4.53998 55.26 4.34998 53.53C4.23998 51.7852 3.9518 50.0562 3.48996 48.37C2.95255 46.6684 2.31819 44.999 1.58997 43.37C1.20751 42.5286 0.899675 41.6553 0.669986 40.76C0.519986 39.81 0.479986 38.92 0.419986 37.99C0.34351 36.1296 0.427151 34.2661 0.669986 32.42C0.899986 30.56 1.24996 28.72 1.45996 26.86V26.54L1.50998 26.17L1.83997 26.33C3.55832 27.1985 5.05103 28.455 6.19998 30C7.31144 31.5049 8.20054 33.1619 8.83997 34.92C9.96841 38.3603 10.7883 41.8943 11.29 45.48C11.7733 48.9002 12.8746 52.2039 14.54 55.23C15.41 56.67 16.47 57.99 17.4 59.39C18.3956 60.7583 19.0783 62.3287 19.4 63.99C19.86 67.4 17.96 70.38 18.34 73.4C18.5186 74.8827 19.0094 76.3107 19.78 77.59C20.51 78.88 21.36 80.08 22.17 81.28C22.9959 82.4553 23.7122 83.7039 24.31 85.01C24.8753 86.2744 25.2138 87.6284 25.31 89.01C25.5 91.73 25.1 94.3 25.31 96.73C25.5341 99.05 26.2137 101.303 27.31 103.36C28.31 105.36 29.31 107.14 30.24 108.89C30.69 109.76 31.11 110.61 31.45 111.46C31.7701 112.283 32.0014 113.138 32.14 114.01C32.3646 115.532 32.3646 117.078 32.14 118.6C31.9212 120.728 31.1144 122.754 29.81 124.45C29.613 124.704 29.392 124.938 29.15 125.15C28.9903 125.319 28.8125 125.47 28.62 125.6C28.32 125.82 28.16 125.92 28.16 125.92C28.7329 125.464 29.2589 124.951 29.73 124.39C30.9762 122.688 31.7397 120.68 31.94 118.58C32.13 117.074 32.1064 115.549 31.87 114.05C31.7193 113.199 31.4849 112.365 31.17 111.56C30.8065 110.693 30.3993 109.845 29.95 109.02C29.05 107.29 27.95 105.5 26.95 103.5C25.8511 101.405 25.1718 99.1154 24.95 96.76C24.76 94.27 25.14 91.69 24.95 89.04C24.8691 87.6915 24.5509 86.3679 24.01 85.13C23.4172 83.8506 22.7076 82.6288 21.89 81.48C21.08 80.28 20.22 79.08 19.47 77.76C18.6654 76.4328 18.1508 74.9503 17.96 73.41C17.59 70.19 19.47 67.19 18.96 64.02C18.6547 62.4307 18.0025 60.9283 17.05 59.62C16.14 58.24 15.05 56.93 14.17 55.45C12.4709 52.3712 11.3427 49.0104 10.84 45.53C10.18 42.05 9.71998 38.46 8.40998 35.06C7.79043 33.349 6.92829 31.7358 5.84998 30.27C4.76129 28.7931 3.34841 27.5854 1.71997 26.74L2.08997 26.53C2.08997 26.64 2.08997 26.75 2.08997 26.86C1.87997 28.74 1.52997 30.59 1.30997 32.42C1.04225 34.2672 0.938515 36.1345 0.999972 38C1.04997 38.9 1.09998 39.84 1.22998 40.69C1.46247 41.5481 1.75998 42.3872 2.11997 43.2C2.85835 44.8443 3.49947 46.5305 4.03998 48.25C4.51406 49.9611 4.80568 51.7175 4.90998 53.49C5.08998 55.22 5.27998 56.94 5.44998 58.64C5.81998 62.03 6.04998 65.41 7.44998 68.35C8.11998 69.81 9.01997 71.16 9.67997 72.64C10.3083 74.1081 10.6478 75.6835 10.68 77.28C10.84 80.39 10.42 83.42 11.24 86.18C12.06 88.94 13.81 91.18 14.68 93.82C15.55 96.46 15.21 99.17 14.81 101.57C14.41 103.97 14 106.35 14.51 108.5C15.02 110.65 16.51 112.24 17.44 113.96C17.9447 114.783 18.2844 115.697 18.44 116.65C18.5373 117.527 18.5873 118.408 18.59 119.29C18.5874 120.082 18.6985 120.87 18.92 121.63C19.1858 122.291 19.6119 122.875 20.16 123.33C21.1001 124.099 22.1611 124.707 23.3 125.13C24.1356 125.45 24.9994 125.691 25.88 125.85C26.4181 125.947 26.9632 126.001 27.51 126.01L28 126Z" fill="#263238"/>
<path d="M3.13986 31C3.16791 31.0819 3.19125 31.1654 3.20984 31.25L3.38986 31.97C3.53986 32.61 3.71984 33.56 4.01984 34.76C4.31984 35.96 5.01986 37.31 5.66986 38.98C6.39316 40.8535 7.02062 42.7627 7.54984 44.7C8.14984 46.85 8.67984 49.24 9.23984 51.79C9.70999 54.5222 10.5616 57.1748 11.7698 59.67C12.4198 60.98 13.1598 62.31 13.7698 63.76C14.3439 65.2484 14.7237 66.8045 14.8998 68.39C15.2906 71.6669 15.8514 74.9213 16.5798 78.14L20.9998 96.75C22.3998 102.46 23.6699 107.61 24.7299 111.95C25.7899 116.29 26.6099 119.74 27.1999 122.2C27.4699 123.38 27.6899 124.32 27.8499 125L27.9998 125.73C28.0089 125.813 28.0089 125.897 27.9998 125.98C27.9587 125.905 27.9284 125.824 27.9099 125.74L27.6999 125.02C27.5199 124.35 27.2798 123.42 26.9598 122.25C26.3298 119.8 25.4398 116.32 24.3298 112.04C23.2198 107.76 21.9398 102.57 20.4998 96.87C19.0598 91.17 17.5999 84.87 16.0099 78.23C15.2716 74.9998 14.7108 71.7315 14.3298 68.44C14.1538 66.8975 13.7877 65.3826 13.2398 63.93C12.6798 62.51 11.9498 61.19 11.2998 59.87C10.0913 57.3337 9.24314 54.641 8.77985 51.87C8.23985 49.3 7.72985 46.92 7.15985 44.78C6.58985 42.64 5.96984 40.72 5.35984 39.06C4.74984 37.4 4.07986 36.06 3.78986 34.79C3.49986 33.52 3.36984 32.62 3.23984 31.97L3.11984 31.24C3.11682 31.1595 3.12355 31.0789 3.13986 31Z" fill="#263238"/>
<path d="M26.6198 126C21.3698 122.84 19.9198 113.34 22.1498 107.64C24.3798 101.94 28.2398 96.75 28.8698 90.64C29.3498 85.97 27.8698 81.15 28.9598 76.58C30.4698 70.42 36.5198 65.67 36.4898 59.32C36.4898 55.76 34.4899 52.4 34.6399 48.84C34.8699 44.48 38.2398 41.04 40.3298 37.2C43.5398 31.34 43.7898 24.38 44.9098 17.79C46.0298 11.2 48.5898 4.15 54.4598 0.940002C55.2898 6.55 56.7398 10.39 56.2299 17.94C56.0499 20.66 52.8599 25.86 52.3899 31.83C52.1099 35.4 51.9198 38.97 51.6798 42.54C51.4398 46.11 51.1998 49.54 49.9398 52.8C48.9398 55.29 47.4199 57.54 46.6999 60.11C45.3299 64.94 47.0599 70.2 45.9499 75.11C45.0199 79.26 42.1199 82.81 41.5098 87.03C40.6498 92.94 44.4499 99.11 42.4499 104.75C41.4499 107.54 39.1499 109.75 38.4499 112.67C37.9299 114.91 38.4498 117.29 37.9898 119.54C37.2298 123.17 30.2898 125.96 26.5898 125.71" fill="#FF725E"/>
<path d="M53.0002 6.51001C53.0113 6.61639 53.0113 6.72361 53.0002 6.82999L52.8802 7.75C52.7502 8.56 52.6102 9.75 52.3302 11.28C52.0502 12.81 51.2202 14.56 50.5702 16.65C49.9202 18.74 49.2102 21.14 48.5702 23.84C47.9302 26.54 47.4402 29.52 46.8902 32.73C46.4433 36.1751 45.5177 39.5409 44.1402 42.73C43.3902 44.4 42.5502 46.08 41.9202 47.87C41.3061 49.7087 40.9231 51.6167 40.7802 53.55C40.4676 57.6563 39.9302 61.7425 39.1702 65.79C37.5102 74.08 35.9302 81.97 34.5002 89.16C33.0702 96.35 31.6202 102.77 30.5002 108.16C29.3802 113.55 28.4002 117.92 27.7502 120.98C27.4235 122.473 27.1635 123.633 26.9702 124.46C26.8802 124.84 26.8102 125.14 26.7602 125.37C26.7363 125.472 26.7062 125.572 26.6702 125.67C26.6568 125.567 26.6568 125.463 26.6702 125.36C26.7202 125.12 26.7702 124.82 26.8402 124.44L27.5202 120.94L30.1102 108.08C31.2302 102.65 32.5502 96.19 34.0302 89.02C35.5102 81.85 37.0302 73.94 38.6602 65.66C39.4109 61.6245 39.9483 57.5521 40.2702 53.46C40.4255 51.4858 40.8218 49.538 41.4502 47.66C42.1002 45.84 42.9502 44.15 43.7002 42.49C45.0763 39.3233 46.0084 35.9817 46.4702 32.56C47.0302 29.36 47.5702 26.37 48.2102 23.67C48.7727 21.2373 49.4569 18.8342 50.2602 16.47C50.9402 14.37 51.7702 12.65 52.1002 11.14C52.4302 9.63002 52.5802 8.44002 52.7402 7.64002C52.8102 7.26002 52.8702 6.96001 52.9202 6.73001C52.9702 6.50001 53.0002 6.51001 53.0002 6.51001Z" fill="#263238"/>
</svg>
