<svg width="35" height="35" viewBox="0 0 35 35" fill="none" xmlns="http://www.w3.org/2000/svg">
<rect width="35" height="35" rx="4" fill="#EFF2F5"/>
<path d="M14.552 21.472C15.576 20.6187 16.392 19.9093 17 19.344C17.608 18.768 18.1147 18.1707 18.52 17.552C18.9253 16.9333 19.128 16.3253 19.128 15.728C19.128 15.184 19 14.7573 18.744 14.448C18.488 14.1387 18.0933 13.984 17.56 13.984C17.0267 13.984 16.616 14.1653 16.328 14.528C16.04 14.88 15.8907 15.3653 15.88 15.984H13.704C13.7467 14.704 14.1253 13.7333 14.84 13.072C15.5653 12.4107 16.4827 12.08 17.592 12.08C18.808 12.08 19.7413 12.4053 20.392 13.056C21.0427 13.696 21.368 14.544 21.368 15.6C21.368 16.432 21.144 17.2267 20.696 17.984C20.248 18.7413 19.736 19.4027 19.16 19.968C18.584 20.5227 17.832 21.1947 16.904 21.984H21.624V23.84H13.72V22.176L14.552 21.472Z" fill="#3699FF"/>
</svg>
